%TF.GenerationSoftware,KiCad,Pcbnew,(5.1.9)-1*%
%TF.CreationDate,2021-06-30T11:02:33-04:00*%
%TF.ProjectId,disco_fish,64697363-6f5f-4666-9973-682e6b696361,rev?*%
%TF.SameCoordinates,Original*%
%TF.FileFunction,Legend,Top*%
%TF.FilePolarity,Positive*%
%FSLAX46Y46*%
G04 Gerber Fmt 4.6, Leading zero omitted, Abs format (unit mm)*
G04 Created by KiCad (PCBNEW (5.1.9)-1) date 2021-06-30 11:02:33*
%MOMM*%
%LPD*%
G01*
G04 APERTURE LIST*
%ADD10C,0.304800*%
%ADD11C,0.150000*%
%ADD12C,0.120000*%
%ADD13C,0.152400*%
%ADD14C,0.127000*%
G04 APERTURE END LIST*
D10*
X173778333Y-54186666D02*
X173778333Y-55202666D01*
X173778333Y-54694666D02*
X172000333Y-54694666D01*
X172254333Y-54864000D01*
X172423666Y-55033333D01*
X172508333Y-55202666D01*
X172169666Y-53509333D02*
X172085000Y-53424666D01*
X172000333Y-53255333D01*
X172000333Y-52832000D01*
X172085000Y-52662666D01*
X172169666Y-52578000D01*
X172339000Y-52493333D01*
X172508333Y-52493333D01*
X172762333Y-52578000D01*
X173778333Y-53594000D01*
X173778333Y-52493333D01*
X172000333Y-51985333D02*
X173778333Y-51392666D01*
X172000333Y-50800000D01*
X158538333Y-54186666D02*
X158538333Y-55202666D01*
X158538333Y-54694666D02*
X156760333Y-54694666D01*
X157014333Y-54864000D01*
X157183666Y-55033333D01*
X157268333Y-55202666D01*
X156929666Y-53509333D02*
X156845000Y-53424666D01*
X156760333Y-53255333D01*
X156760333Y-52832000D01*
X156845000Y-52662666D01*
X156929666Y-52578000D01*
X157099000Y-52493333D01*
X157268333Y-52493333D01*
X157522333Y-52578000D01*
X158538333Y-53594000D01*
X158538333Y-52493333D01*
X156760333Y-51985333D02*
X158538333Y-51392666D01*
X156760333Y-50800000D01*
X166751000Y-54440666D02*
X166666333Y-54610000D01*
X166666333Y-54864000D01*
X166751000Y-55118000D01*
X166920333Y-55287333D01*
X167089666Y-55372000D01*
X167428333Y-55456666D01*
X167682333Y-55456666D01*
X168021000Y-55372000D01*
X168190333Y-55287333D01*
X168359666Y-55118000D01*
X168444333Y-54864000D01*
X168444333Y-54694666D01*
X168359666Y-54440666D01*
X168275000Y-54356000D01*
X167682333Y-54356000D01*
X167682333Y-54694666D01*
X168444333Y-53594000D02*
X166666333Y-53594000D01*
X168444333Y-52578000D01*
X166666333Y-52578000D01*
X168444333Y-51731333D02*
X166666333Y-51731333D01*
X166666333Y-51308000D01*
X166751000Y-51054000D01*
X166920333Y-50884666D01*
X167089666Y-50800000D01*
X167428333Y-50715333D01*
X167682333Y-50715333D01*
X168021000Y-50800000D01*
X168190333Y-50884666D01*
X168359666Y-51054000D01*
X168444333Y-51308000D01*
X168444333Y-51731333D01*
X161671000Y-54440666D02*
X161586333Y-54610000D01*
X161586333Y-54864000D01*
X161671000Y-55118000D01*
X161840333Y-55287333D01*
X162009666Y-55372000D01*
X162348333Y-55456666D01*
X162602333Y-55456666D01*
X162941000Y-55372000D01*
X163110333Y-55287333D01*
X163279666Y-55118000D01*
X163364333Y-54864000D01*
X163364333Y-54694666D01*
X163279666Y-54440666D01*
X163195000Y-54356000D01*
X162602333Y-54356000D01*
X162602333Y-54694666D01*
X163364333Y-53594000D02*
X161586333Y-53594000D01*
X163364333Y-52578000D01*
X161586333Y-52578000D01*
X163364333Y-51731333D02*
X161586333Y-51731333D01*
X161586333Y-51308000D01*
X161671000Y-51054000D01*
X161840333Y-50884666D01*
X162009666Y-50800000D01*
X162348333Y-50715333D01*
X162602333Y-50715333D01*
X162941000Y-50800000D01*
X163110333Y-50884666D01*
X163279666Y-51054000D01*
X163364333Y-51308000D01*
X163364333Y-51731333D01*
D11*
X143780380Y-141676380D02*
X143780380Y-140676380D01*
X144018476Y-140676380D01*
X144161333Y-140724000D01*
X144256571Y-140819238D01*
X144304190Y-140914476D01*
X144351809Y-141104952D01*
X144351809Y-141247809D01*
X144304190Y-141438285D01*
X144256571Y-141533523D01*
X144161333Y-141628761D01*
X144018476Y-141676380D01*
X143780380Y-141676380D01*
X144780380Y-141676380D02*
X144780380Y-140676380D01*
X145208952Y-141628761D02*
X145351809Y-141676380D01*
X145589904Y-141676380D01*
X145685142Y-141628761D01*
X145732761Y-141581142D01*
X145780380Y-141485904D01*
X145780380Y-141390666D01*
X145732761Y-141295428D01*
X145685142Y-141247809D01*
X145589904Y-141200190D01*
X145399428Y-141152571D01*
X145304190Y-141104952D01*
X145256571Y-141057333D01*
X145208952Y-140962095D01*
X145208952Y-140866857D01*
X145256571Y-140771619D01*
X145304190Y-140724000D01*
X145399428Y-140676380D01*
X145637523Y-140676380D01*
X145780380Y-140724000D01*
X146780380Y-141581142D02*
X146732761Y-141628761D01*
X146589904Y-141676380D01*
X146494666Y-141676380D01*
X146351809Y-141628761D01*
X146256571Y-141533523D01*
X146208952Y-141438285D01*
X146161333Y-141247809D01*
X146161333Y-141104952D01*
X146208952Y-140914476D01*
X146256571Y-140819238D01*
X146351809Y-140724000D01*
X146494666Y-140676380D01*
X146589904Y-140676380D01*
X146732761Y-140724000D01*
X146780380Y-140771619D01*
X147399428Y-140676380D02*
X147589904Y-140676380D01*
X147685142Y-140724000D01*
X147780380Y-140819238D01*
X147828000Y-141009714D01*
X147828000Y-141343047D01*
X147780380Y-141533523D01*
X147685142Y-141628761D01*
X147589904Y-141676380D01*
X147399428Y-141676380D01*
X147304190Y-141628761D01*
X147208952Y-141533523D01*
X147161333Y-141343047D01*
X147161333Y-141009714D01*
X147208952Y-140819238D01*
X147304190Y-140724000D01*
X147399428Y-140676380D01*
X149351809Y-141152571D02*
X149018476Y-141152571D01*
X149018476Y-141676380D02*
X149018476Y-140676380D01*
X149494666Y-140676380D01*
X149875619Y-141676380D02*
X149875619Y-140676380D01*
X150304190Y-141628761D02*
X150447047Y-141676380D01*
X150685142Y-141676380D01*
X150780380Y-141628761D01*
X150828000Y-141581142D01*
X150875619Y-141485904D01*
X150875619Y-141390666D01*
X150828000Y-141295428D01*
X150780380Y-141247809D01*
X150685142Y-141200190D01*
X150494666Y-141152571D01*
X150399428Y-141104952D01*
X150351809Y-141057333D01*
X150304190Y-140962095D01*
X150304190Y-140866857D01*
X150351809Y-140771619D01*
X150399428Y-140724000D01*
X150494666Y-140676380D01*
X150732761Y-140676380D01*
X150875619Y-140724000D01*
X151304190Y-141676380D02*
X151304190Y-140676380D01*
X151304190Y-141152571D02*
X151875619Y-141152571D01*
X151875619Y-141676380D02*
X151875619Y-140676380D01*
X168809000Y-130580095D02*
X168809000Y-131580095D01*
X167441619Y-131389619D02*
X167917809Y-131056285D01*
X167441619Y-130818190D02*
X168441619Y-130818190D01*
X168441619Y-131199142D01*
X168394000Y-131294380D01*
X168346380Y-131342000D01*
X168251142Y-131389619D01*
X168108285Y-131389619D01*
X168013047Y-131342000D01*
X167965428Y-131294380D01*
X167917809Y-131199142D01*
X167917809Y-130818190D01*
X168809000Y-131580095D02*
X168809000Y-132484857D01*
X167965428Y-131818190D02*
X167965428Y-132151523D01*
X167441619Y-132294380D02*
X167441619Y-131818190D01*
X168441619Y-131818190D01*
X168441619Y-132294380D01*
X168809000Y-132484857D02*
X168809000Y-133437238D01*
X167489238Y-132675333D02*
X167441619Y-132818190D01*
X167441619Y-133056285D01*
X167489238Y-133151523D01*
X167536857Y-133199142D01*
X167632095Y-133246761D01*
X167727333Y-133246761D01*
X167822571Y-133199142D01*
X167870190Y-133151523D01*
X167917809Y-133056285D01*
X167965428Y-132865809D01*
X168013047Y-132770571D01*
X168060666Y-132722952D01*
X168155904Y-132675333D01*
X168251142Y-132675333D01*
X168346380Y-132722952D01*
X168394000Y-132770571D01*
X168441619Y-132865809D01*
X168441619Y-133103904D01*
X168394000Y-133246761D01*
X168809000Y-133437238D02*
X168809000Y-134342000D01*
X167965428Y-133675333D02*
X167965428Y-134008666D01*
X167441619Y-134151523D02*
X167441619Y-133675333D01*
X168441619Y-133675333D01*
X168441619Y-134151523D01*
X168809000Y-134342000D02*
X168809000Y-135103904D01*
X168441619Y-134437238D02*
X168441619Y-135008666D01*
X167441619Y-134722952D02*
X168441619Y-134722952D01*
X164441238Y-132318285D02*
X164393619Y-132461142D01*
X164393619Y-132699238D01*
X164441238Y-132794476D01*
X164488857Y-132842095D01*
X164584095Y-132889714D01*
X164679333Y-132889714D01*
X164774571Y-132842095D01*
X164822190Y-132794476D01*
X164869809Y-132699238D01*
X164917428Y-132508761D01*
X164965047Y-132413523D01*
X165012666Y-132365904D01*
X165107904Y-132318285D01*
X165203142Y-132318285D01*
X165298380Y-132365904D01*
X165346000Y-132413523D01*
X165393619Y-132508761D01*
X165393619Y-132746857D01*
X165346000Y-132889714D01*
X164488857Y-133889714D02*
X164441238Y-133842095D01*
X164393619Y-133699238D01*
X164393619Y-133604000D01*
X164441238Y-133461142D01*
X164536476Y-133365904D01*
X164631714Y-133318285D01*
X164822190Y-133270666D01*
X164965047Y-133270666D01*
X165155523Y-133318285D01*
X165250761Y-133365904D01*
X165346000Y-133461142D01*
X165393619Y-133604000D01*
X165393619Y-133699238D01*
X165346000Y-133842095D01*
X165298380Y-133889714D01*
X164393619Y-134318285D02*
X165393619Y-134318285D01*
X164393619Y-134889714D02*
X164965047Y-134461142D01*
X165393619Y-134889714D02*
X164822190Y-134318285D01*
X161599619Y-132032571D02*
X162599619Y-132032571D01*
X161885333Y-132365904D01*
X162599619Y-132699238D01*
X161599619Y-132699238D01*
X161599619Y-133175428D02*
X162599619Y-133175428D01*
X161647238Y-133604000D02*
X161599619Y-133746857D01*
X161599619Y-133984952D01*
X161647238Y-134080190D01*
X161694857Y-134127809D01*
X161790095Y-134175428D01*
X161885333Y-134175428D01*
X161980571Y-134127809D01*
X162028190Y-134080190D01*
X162075809Y-133984952D01*
X162123428Y-133794476D01*
X162171047Y-133699238D01*
X162218666Y-133651619D01*
X162313904Y-133604000D01*
X162409142Y-133604000D01*
X162504380Y-133651619D01*
X162552000Y-133699238D01*
X162599619Y-133794476D01*
X162599619Y-134032571D01*
X162552000Y-134175428D01*
X162599619Y-134794476D02*
X162599619Y-134984952D01*
X162552000Y-135080190D01*
X162456761Y-135175428D01*
X162266285Y-135223047D01*
X161932952Y-135223047D01*
X161742476Y-135175428D01*
X161647238Y-135080190D01*
X161599619Y-134984952D01*
X161599619Y-134794476D01*
X161647238Y-134699238D01*
X161742476Y-134604000D01*
X161932952Y-134556380D01*
X162266285Y-134556380D01*
X162456761Y-134604000D01*
X162552000Y-134699238D01*
X162599619Y-134794476D01*
X167140000Y-120903904D02*
X167092380Y-120999142D01*
X167092380Y-121142000D01*
X167140000Y-121284857D01*
X167235238Y-121380095D01*
X167330476Y-121427714D01*
X167520952Y-121475333D01*
X167663809Y-121475333D01*
X167854285Y-121427714D01*
X167949523Y-121380095D01*
X168044761Y-121284857D01*
X168092380Y-121142000D01*
X168092380Y-121046761D01*
X168044761Y-120903904D01*
X167997142Y-120856285D01*
X167663809Y-120856285D01*
X167663809Y-121046761D01*
X168092380Y-120427714D02*
X167092380Y-120427714D01*
X168092380Y-119856285D01*
X167092380Y-119856285D01*
X168092380Y-119380095D02*
X167092380Y-119380095D01*
X167092380Y-119142000D01*
X167140000Y-118999142D01*
X167235238Y-118903904D01*
X167330476Y-118856285D01*
X167520952Y-118808666D01*
X167663809Y-118808666D01*
X167854285Y-118856285D01*
X167949523Y-118903904D01*
X168044761Y-118999142D01*
X168092380Y-119142000D01*
X168092380Y-119380095D01*
X165552380Y-121459428D02*
X164552380Y-121459428D01*
X165266666Y-121126095D01*
X164552380Y-120792761D01*
X165552380Y-120792761D01*
X164552380Y-120126095D02*
X164552380Y-119935619D01*
X164600000Y-119840380D01*
X164695238Y-119745142D01*
X164885714Y-119697523D01*
X165219047Y-119697523D01*
X165409523Y-119745142D01*
X165504761Y-119840380D01*
X165552380Y-119935619D01*
X165552380Y-120126095D01*
X165504761Y-120221333D01*
X165409523Y-120316571D01*
X165219047Y-120364190D01*
X164885714Y-120364190D01*
X164695238Y-120316571D01*
X164600000Y-120221333D01*
X164552380Y-120126095D01*
X165504761Y-119316571D02*
X165552380Y-119173714D01*
X165552380Y-118935619D01*
X165504761Y-118840380D01*
X165457142Y-118792761D01*
X165361904Y-118745142D01*
X165266666Y-118745142D01*
X165171428Y-118792761D01*
X165123809Y-118840380D01*
X165076190Y-118935619D01*
X165028571Y-119126095D01*
X164980952Y-119221333D01*
X164933333Y-119268952D01*
X164838095Y-119316571D01*
X164742857Y-119316571D01*
X164647619Y-119268952D01*
X164600000Y-119221333D01*
X164552380Y-119126095D01*
X164552380Y-118888000D01*
X164600000Y-118745142D01*
X165552380Y-118316571D02*
X164552380Y-118316571D01*
X161758380Y-121475333D02*
X162758380Y-121142000D01*
X161758380Y-120808666D01*
X162663142Y-119903904D02*
X162710761Y-119951523D01*
X162758380Y-120094380D01*
X162758380Y-120189619D01*
X162710761Y-120332476D01*
X162615523Y-120427714D01*
X162520285Y-120475333D01*
X162329809Y-120522952D01*
X162186952Y-120522952D01*
X161996476Y-120475333D01*
X161901238Y-120427714D01*
X161806000Y-120332476D01*
X161758380Y-120189619D01*
X161758380Y-120094380D01*
X161806000Y-119951523D01*
X161853619Y-119903904D01*
X162663142Y-118903904D02*
X162710761Y-118951523D01*
X162758380Y-119094380D01*
X162758380Y-119189619D01*
X162710761Y-119332476D01*
X162615523Y-119427714D01*
X162520285Y-119475333D01*
X162329809Y-119522952D01*
X162186952Y-119522952D01*
X161996476Y-119475333D01*
X161901238Y-119427714D01*
X161806000Y-119332476D01*
X161758380Y-119189619D01*
X161758380Y-119094380D01*
X161806000Y-118951523D01*
X161853619Y-118903904D01*
D10*
X177122666Y-57277000D02*
X178477333Y-57277000D01*
X177122666Y-66929000D02*
X178477333Y-66929000D01*
X177122666Y-79121000D02*
X178477333Y-79121000D01*
X177122666Y-89281000D02*
X178477333Y-89281000D01*
X175344666Y-100711000D02*
X176699333Y-100711000D01*
X175344666Y-110871000D02*
X176699333Y-110871000D01*
X175344666Y-122809000D02*
X176699333Y-122809000D01*
X175344666Y-132715000D02*
X176699333Y-132715000D01*
X153246666Y-132969000D02*
X154601333Y-132969000D01*
X153246666Y-122809000D02*
X154601333Y-122809000D01*
X153246666Y-111125000D02*
X154601333Y-111125000D01*
X150452666Y-100711000D02*
X151807333Y-100711000D01*
X151468666Y-88773000D02*
X152823333Y-88773000D01*
X151468666Y-67437000D02*
X152823333Y-67437000D01*
X151468666Y-57023000D02*
X152823333Y-57023000D01*
X150452666Y-95631000D02*
X151807333Y-95631000D01*
X151130000Y-96308333D02*
X151130000Y-94953666D01*
X175302333Y-128143000D02*
X176657000Y-128143000D01*
X175979666Y-128820333D02*
X175979666Y-127465666D01*
X179874333Y-128651000D02*
X179789666Y-128735666D01*
X179535666Y-128820333D01*
X179366333Y-128820333D01*
X179112333Y-128735666D01*
X178943000Y-128566333D01*
X178858333Y-128397000D01*
X178773666Y-128058333D01*
X178773666Y-127804333D01*
X178858333Y-127465666D01*
X178943000Y-127296333D01*
X179112333Y-127127000D01*
X179366333Y-127042333D01*
X179535666Y-127042333D01*
X179789666Y-127127000D01*
X179874333Y-127211666D01*
X180636333Y-128820333D02*
X180636333Y-127042333D01*
X180636333Y-127889000D02*
X181652333Y-127889000D01*
X181652333Y-128820333D02*
X181652333Y-127042333D01*
X184785000Y-128820333D02*
X183769000Y-128820333D01*
X184277000Y-128820333D02*
X184277000Y-127042333D01*
X184107666Y-127296333D01*
X183938333Y-127465666D01*
X183769000Y-127550333D01*
X186309000Y-127042333D02*
X185970333Y-127042333D01*
X185801000Y-127127000D01*
X185716333Y-127211666D01*
X185547000Y-127465666D01*
X185462333Y-127804333D01*
X185462333Y-128481666D01*
X185547000Y-128651000D01*
X185631666Y-128735666D01*
X185801000Y-128820333D01*
X186139666Y-128820333D01*
X186309000Y-128735666D01*
X186393666Y-128651000D01*
X186478333Y-128481666D01*
X186478333Y-128058333D01*
X186393666Y-127889000D01*
X186309000Y-127804333D01*
X186139666Y-127719666D01*
X185801000Y-127719666D01*
X185631666Y-127804333D01*
X185547000Y-127889000D01*
X185462333Y-128058333D01*
X175302333Y-117983000D02*
X176657000Y-117983000D01*
X175979666Y-118660333D02*
X175979666Y-117305666D01*
X179874333Y-118491000D02*
X179789666Y-118575666D01*
X179535666Y-118660333D01*
X179366333Y-118660333D01*
X179112333Y-118575666D01*
X178943000Y-118406333D01*
X178858333Y-118237000D01*
X178773666Y-117898333D01*
X178773666Y-117644333D01*
X178858333Y-117305666D01*
X178943000Y-117136333D01*
X179112333Y-116967000D01*
X179366333Y-116882333D01*
X179535666Y-116882333D01*
X179789666Y-116967000D01*
X179874333Y-117051666D01*
X180636333Y-118660333D02*
X180636333Y-116882333D01*
X180636333Y-117729000D02*
X181652333Y-117729000D01*
X181652333Y-118660333D02*
X181652333Y-116882333D01*
X184785000Y-118660333D02*
X183769000Y-118660333D01*
X184277000Y-118660333D02*
X184277000Y-116882333D01*
X184107666Y-117136333D01*
X183938333Y-117305666D01*
X183769000Y-117390333D01*
X186309000Y-117475000D02*
X186309000Y-118660333D01*
X185885666Y-116797666D02*
X185462333Y-118067666D01*
X186563000Y-118067666D01*
X175302333Y-106045000D02*
X176657000Y-106045000D01*
X175979666Y-106722333D02*
X175979666Y-105367666D01*
X179874333Y-106553000D02*
X179789666Y-106637666D01*
X179535666Y-106722333D01*
X179366333Y-106722333D01*
X179112333Y-106637666D01*
X178943000Y-106468333D01*
X178858333Y-106299000D01*
X178773666Y-105960333D01*
X178773666Y-105706333D01*
X178858333Y-105367666D01*
X178943000Y-105198333D01*
X179112333Y-105029000D01*
X179366333Y-104944333D01*
X179535666Y-104944333D01*
X179789666Y-105029000D01*
X179874333Y-105113666D01*
X180636333Y-106722333D02*
X180636333Y-104944333D01*
X180636333Y-105791000D02*
X181652333Y-105791000D01*
X181652333Y-106722333D02*
X181652333Y-104944333D01*
X184785000Y-106722333D02*
X183769000Y-106722333D01*
X184277000Y-106722333D02*
X184277000Y-104944333D01*
X184107666Y-105198333D01*
X183938333Y-105367666D01*
X183769000Y-105452333D01*
X185462333Y-105113666D02*
X185547000Y-105029000D01*
X185716333Y-104944333D01*
X186139666Y-104944333D01*
X186309000Y-105029000D01*
X186393666Y-105113666D01*
X186478333Y-105283000D01*
X186478333Y-105452333D01*
X186393666Y-105706333D01*
X185377666Y-106722333D01*
X186478333Y-106722333D01*
X175302333Y-95885000D02*
X176657000Y-95885000D01*
X175979666Y-96562333D02*
X175979666Y-95207666D01*
X179874333Y-96393000D02*
X179789666Y-96477666D01*
X179535666Y-96562333D01*
X179366333Y-96562333D01*
X179112333Y-96477666D01*
X178943000Y-96308333D01*
X178858333Y-96139000D01*
X178773666Y-95800333D01*
X178773666Y-95546333D01*
X178858333Y-95207666D01*
X178943000Y-95038333D01*
X179112333Y-94869000D01*
X179366333Y-94784333D01*
X179535666Y-94784333D01*
X179789666Y-94869000D01*
X179874333Y-94953666D01*
X180636333Y-96562333D02*
X180636333Y-94784333D01*
X180636333Y-95631000D02*
X181652333Y-95631000D01*
X181652333Y-96562333D02*
X181652333Y-94784333D01*
X184785000Y-96562333D02*
X183769000Y-96562333D01*
X184277000Y-96562333D02*
X184277000Y-94784333D01*
X184107666Y-95038333D01*
X183938333Y-95207666D01*
X183769000Y-95292333D01*
X185885666Y-94784333D02*
X186055000Y-94784333D01*
X186224333Y-94869000D01*
X186309000Y-94953666D01*
X186393666Y-95123000D01*
X186478333Y-95461666D01*
X186478333Y-95885000D01*
X186393666Y-96223666D01*
X186309000Y-96393000D01*
X186224333Y-96477666D01*
X186055000Y-96562333D01*
X185885666Y-96562333D01*
X185716333Y-96477666D01*
X185631666Y-96393000D01*
X185547000Y-96223666D01*
X185462333Y-95885000D01*
X185462333Y-95461666D01*
X185547000Y-95123000D01*
X185631666Y-94953666D01*
X185716333Y-94869000D01*
X185885666Y-94784333D01*
X176911000Y-84201000D02*
X178265666Y-84201000D01*
X177588333Y-84878333D02*
X177588333Y-83523666D01*
X181483000Y-84709000D02*
X181398333Y-84793666D01*
X181144333Y-84878333D01*
X180975000Y-84878333D01*
X180721000Y-84793666D01*
X180551666Y-84624333D01*
X180467000Y-84455000D01*
X180382333Y-84116333D01*
X180382333Y-83862333D01*
X180467000Y-83523666D01*
X180551666Y-83354333D01*
X180721000Y-83185000D01*
X180975000Y-83100333D01*
X181144333Y-83100333D01*
X181398333Y-83185000D01*
X181483000Y-83269666D01*
X182245000Y-84878333D02*
X182245000Y-83100333D01*
X182245000Y-83947000D02*
X183261000Y-83947000D01*
X183261000Y-84878333D02*
X183261000Y-83100333D01*
X185716333Y-83862333D02*
X185547000Y-83777666D01*
X185462333Y-83693000D01*
X185377666Y-83523666D01*
X185377666Y-83439000D01*
X185462333Y-83269666D01*
X185547000Y-83185000D01*
X185716333Y-83100333D01*
X186055000Y-83100333D01*
X186224333Y-83185000D01*
X186309000Y-83269666D01*
X186393666Y-83439000D01*
X186393666Y-83523666D01*
X186309000Y-83693000D01*
X186224333Y-83777666D01*
X186055000Y-83862333D01*
X185716333Y-83862333D01*
X185547000Y-83947000D01*
X185462333Y-84031666D01*
X185377666Y-84201000D01*
X185377666Y-84539666D01*
X185462333Y-84709000D01*
X185547000Y-84793666D01*
X185716333Y-84878333D01*
X186055000Y-84878333D01*
X186224333Y-84793666D01*
X186309000Y-84709000D01*
X186393666Y-84539666D01*
X186393666Y-84201000D01*
X186309000Y-84031666D01*
X186224333Y-83947000D01*
X186055000Y-83862333D01*
X176911000Y-74295000D02*
X178265666Y-74295000D01*
X177588333Y-74972333D02*
X177588333Y-73617666D01*
X181483000Y-74803000D02*
X181398333Y-74887666D01*
X181144333Y-74972333D01*
X180975000Y-74972333D01*
X180721000Y-74887666D01*
X180551666Y-74718333D01*
X180467000Y-74549000D01*
X180382333Y-74210333D01*
X180382333Y-73956333D01*
X180467000Y-73617666D01*
X180551666Y-73448333D01*
X180721000Y-73279000D01*
X180975000Y-73194333D01*
X181144333Y-73194333D01*
X181398333Y-73279000D01*
X181483000Y-73363666D01*
X182245000Y-74972333D02*
X182245000Y-73194333D01*
X182245000Y-74041000D02*
X183261000Y-74041000D01*
X183261000Y-74972333D02*
X183261000Y-73194333D01*
X186224333Y-73194333D02*
X185885666Y-73194333D01*
X185716333Y-73279000D01*
X185631666Y-73363666D01*
X185462333Y-73617666D01*
X185377666Y-73956333D01*
X185377666Y-74633666D01*
X185462333Y-74803000D01*
X185547000Y-74887666D01*
X185716333Y-74972333D01*
X186055000Y-74972333D01*
X186224333Y-74887666D01*
X186309000Y-74803000D01*
X186393666Y-74633666D01*
X186393666Y-74210333D01*
X186309000Y-74041000D01*
X186224333Y-73956333D01*
X186055000Y-73871666D01*
X185716333Y-73871666D01*
X185547000Y-73956333D01*
X185462333Y-74041000D01*
X185377666Y-74210333D01*
X176911000Y-62357000D02*
X178265666Y-62357000D01*
X177588333Y-63034333D02*
X177588333Y-61679666D01*
X181483000Y-62865000D02*
X181398333Y-62949666D01*
X181144333Y-63034333D01*
X180975000Y-63034333D01*
X180721000Y-62949666D01*
X180551666Y-62780333D01*
X180467000Y-62611000D01*
X180382333Y-62272333D01*
X180382333Y-62018333D01*
X180467000Y-61679666D01*
X180551666Y-61510333D01*
X180721000Y-61341000D01*
X180975000Y-61256333D01*
X181144333Y-61256333D01*
X181398333Y-61341000D01*
X181483000Y-61425666D01*
X182245000Y-63034333D02*
X182245000Y-61256333D01*
X182245000Y-62103000D02*
X183261000Y-62103000D01*
X183261000Y-63034333D02*
X183261000Y-61256333D01*
X186224333Y-61849000D02*
X186224333Y-63034333D01*
X185801000Y-61171666D02*
X185377666Y-62441666D01*
X186478333Y-62441666D01*
X144568333Y-128651000D02*
X144483666Y-128735666D01*
X144229666Y-128820333D01*
X144060333Y-128820333D01*
X143806333Y-128735666D01*
X143637000Y-128566333D01*
X143552333Y-128397000D01*
X143467666Y-128058333D01*
X143467666Y-127804333D01*
X143552333Y-127465666D01*
X143637000Y-127296333D01*
X143806333Y-127127000D01*
X144060333Y-127042333D01*
X144229666Y-127042333D01*
X144483666Y-127127000D01*
X144568333Y-127211666D01*
X145330333Y-128820333D02*
X145330333Y-127042333D01*
X145330333Y-127889000D02*
X146346333Y-127889000D01*
X146346333Y-128820333D02*
X146346333Y-127042333D01*
X149479000Y-128820333D02*
X148463000Y-128820333D01*
X148971000Y-128820333D02*
X148971000Y-127042333D01*
X148801666Y-127296333D01*
X148632333Y-127465666D01*
X148463000Y-127550333D01*
X151087666Y-127042333D02*
X150241000Y-127042333D01*
X150156333Y-127889000D01*
X150241000Y-127804333D01*
X150410333Y-127719666D01*
X150833666Y-127719666D01*
X151003000Y-127804333D01*
X151087666Y-127889000D01*
X151172333Y-128058333D01*
X151172333Y-128481666D01*
X151087666Y-128651000D01*
X151003000Y-128735666D01*
X150833666Y-128820333D01*
X150410333Y-128820333D01*
X150241000Y-128735666D01*
X150156333Y-128651000D01*
X153289000Y-128143000D02*
X154643666Y-128143000D01*
X153966333Y-128820333D02*
X153966333Y-127465666D01*
X144568333Y-118237000D02*
X144483666Y-118321666D01*
X144229666Y-118406333D01*
X144060333Y-118406333D01*
X143806333Y-118321666D01*
X143637000Y-118152333D01*
X143552333Y-117983000D01*
X143467666Y-117644333D01*
X143467666Y-117390333D01*
X143552333Y-117051666D01*
X143637000Y-116882333D01*
X143806333Y-116713000D01*
X144060333Y-116628333D01*
X144229666Y-116628333D01*
X144483666Y-116713000D01*
X144568333Y-116797666D01*
X145330333Y-118406333D02*
X145330333Y-116628333D01*
X145330333Y-117475000D02*
X146346333Y-117475000D01*
X146346333Y-118406333D02*
X146346333Y-116628333D01*
X149479000Y-118406333D02*
X148463000Y-118406333D01*
X148971000Y-118406333D02*
X148971000Y-116628333D01*
X148801666Y-116882333D01*
X148632333Y-117051666D01*
X148463000Y-117136333D01*
X150071666Y-116628333D02*
X151172333Y-116628333D01*
X150579666Y-117305666D01*
X150833666Y-117305666D01*
X151003000Y-117390333D01*
X151087666Y-117475000D01*
X151172333Y-117644333D01*
X151172333Y-118067666D01*
X151087666Y-118237000D01*
X151003000Y-118321666D01*
X150833666Y-118406333D01*
X150325666Y-118406333D01*
X150156333Y-118321666D01*
X150071666Y-118237000D01*
X153289000Y-117729000D02*
X154643666Y-117729000D01*
X153966333Y-118406333D02*
X153966333Y-117051666D01*
X144568333Y-106553000D02*
X144483666Y-106637666D01*
X144229666Y-106722333D01*
X144060333Y-106722333D01*
X143806333Y-106637666D01*
X143637000Y-106468333D01*
X143552333Y-106299000D01*
X143467666Y-105960333D01*
X143467666Y-105706333D01*
X143552333Y-105367666D01*
X143637000Y-105198333D01*
X143806333Y-105029000D01*
X144060333Y-104944333D01*
X144229666Y-104944333D01*
X144483666Y-105029000D01*
X144568333Y-105113666D01*
X145330333Y-106722333D02*
X145330333Y-104944333D01*
X145330333Y-105791000D02*
X146346333Y-105791000D01*
X146346333Y-106722333D02*
X146346333Y-104944333D01*
X149479000Y-106722333D02*
X148463000Y-106722333D01*
X148971000Y-106722333D02*
X148971000Y-104944333D01*
X148801666Y-105198333D01*
X148632333Y-105367666D01*
X148463000Y-105452333D01*
X151172333Y-106722333D02*
X150156333Y-106722333D01*
X150664333Y-106722333D02*
X150664333Y-104944333D01*
X150495000Y-105198333D01*
X150325666Y-105367666D01*
X150156333Y-105452333D01*
X153289000Y-106045000D02*
X154643666Y-106045000D01*
X153966333Y-106722333D02*
X153966333Y-105367666D01*
X144399000Y-96393000D02*
X144314333Y-96477666D01*
X144060333Y-96562333D01*
X143891000Y-96562333D01*
X143637000Y-96477666D01*
X143467666Y-96308333D01*
X143383000Y-96139000D01*
X143298333Y-95800333D01*
X143298333Y-95546333D01*
X143383000Y-95207666D01*
X143467666Y-95038333D01*
X143637000Y-94869000D01*
X143891000Y-94784333D01*
X144060333Y-94784333D01*
X144314333Y-94869000D01*
X144399000Y-94953666D01*
X145161000Y-96562333D02*
X145161000Y-94784333D01*
X145161000Y-95631000D02*
X146177000Y-95631000D01*
X146177000Y-96562333D02*
X146177000Y-94784333D01*
X148463000Y-96562333D02*
X148801666Y-96562333D01*
X148971000Y-96477666D01*
X149055666Y-96393000D01*
X149225000Y-96139000D01*
X149309666Y-95800333D01*
X149309666Y-95123000D01*
X149225000Y-94953666D01*
X149140333Y-94869000D01*
X148971000Y-94784333D01*
X148632333Y-94784333D01*
X148463000Y-94869000D01*
X148378333Y-94953666D01*
X148293666Y-95123000D01*
X148293666Y-95546333D01*
X148378333Y-95715666D01*
X148463000Y-95800333D01*
X148632333Y-95885000D01*
X148971000Y-95885000D01*
X149140333Y-95800333D01*
X149225000Y-95715666D01*
X149309666Y-95546333D01*
X144399000Y-84709000D02*
X144314333Y-84793666D01*
X144060333Y-84878333D01*
X143891000Y-84878333D01*
X143637000Y-84793666D01*
X143467666Y-84624333D01*
X143383000Y-84455000D01*
X143298333Y-84116333D01*
X143298333Y-83862333D01*
X143383000Y-83523666D01*
X143467666Y-83354333D01*
X143637000Y-83185000D01*
X143891000Y-83100333D01*
X144060333Y-83100333D01*
X144314333Y-83185000D01*
X144399000Y-83269666D01*
X145161000Y-84878333D02*
X145161000Y-83100333D01*
X145161000Y-83947000D02*
X146177000Y-83947000D01*
X146177000Y-84878333D02*
X146177000Y-83100333D01*
X148209000Y-83100333D02*
X149394333Y-83100333D01*
X148632333Y-84878333D01*
X151426333Y-84201000D02*
X152781000Y-84201000D01*
X152103666Y-84878333D02*
X152103666Y-83523666D01*
X144399000Y-74549000D02*
X144314333Y-74633666D01*
X144060333Y-74718333D01*
X143891000Y-74718333D01*
X143637000Y-74633666D01*
X143467666Y-74464333D01*
X143383000Y-74295000D01*
X143298333Y-73956333D01*
X143298333Y-73702333D01*
X143383000Y-73363666D01*
X143467666Y-73194333D01*
X143637000Y-73025000D01*
X143891000Y-72940333D01*
X144060333Y-72940333D01*
X144314333Y-73025000D01*
X144399000Y-73109666D01*
X145161000Y-74718333D02*
X145161000Y-72940333D01*
X145161000Y-73787000D02*
X146177000Y-73787000D01*
X146177000Y-74718333D02*
X146177000Y-72940333D01*
X149225000Y-72940333D02*
X148378333Y-72940333D01*
X148293666Y-73787000D01*
X148378333Y-73702333D01*
X148547666Y-73617666D01*
X148971000Y-73617666D01*
X149140333Y-73702333D01*
X149225000Y-73787000D01*
X149309666Y-73956333D01*
X149309666Y-74379666D01*
X149225000Y-74549000D01*
X149140333Y-74633666D01*
X148971000Y-74718333D01*
X148547666Y-74718333D01*
X148378333Y-74633666D01*
X148293666Y-74549000D01*
X151426333Y-74041000D02*
X152781000Y-74041000D01*
X152103666Y-74718333D02*
X152103666Y-73363666D01*
X144399000Y-62865000D02*
X144314333Y-62949666D01*
X144060333Y-63034333D01*
X143891000Y-63034333D01*
X143637000Y-62949666D01*
X143467666Y-62780333D01*
X143383000Y-62611000D01*
X143298333Y-62272333D01*
X143298333Y-62018333D01*
X143383000Y-61679666D01*
X143467666Y-61510333D01*
X143637000Y-61341000D01*
X143891000Y-61256333D01*
X144060333Y-61256333D01*
X144314333Y-61341000D01*
X144399000Y-61425666D01*
X145161000Y-63034333D02*
X145161000Y-61256333D01*
X145161000Y-62103000D02*
X146177000Y-62103000D01*
X146177000Y-63034333D02*
X146177000Y-61256333D01*
X148209000Y-61256333D02*
X149309666Y-61256333D01*
X148717000Y-61933666D01*
X148971000Y-61933666D01*
X149140333Y-62018333D01*
X149225000Y-62103000D01*
X149309666Y-62272333D01*
X149309666Y-62695666D01*
X149225000Y-62865000D01*
X149140333Y-62949666D01*
X148971000Y-63034333D01*
X148463000Y-63034333D01*
X148293666Y-62949666D01*
X148209000Y-62865000D01*
X151426333Y-62357000D02*
X152781000Y-62357000D01*
X152103666Y-63034333D02*
X152103666Y-61679666D01*
X176911000Y-52197000D02*
X178265666Y-52197000D01*
X177588333Y-52874333D02*
X177588333Y-51519666D01*
X181483000Y-52705000D02*
X181398333Y-52789666D01*
X181144333Y-52874333D01*
X180975000Y-52874333D01*
X180721000Y-52789666D01*
X180551666Y-52620333D01*
X180467000Y-52451000D01*
X180382333Y-52112333D01*
X180382333Y-51858333D01*
X180467000Y-51519666D01*
X180551666Y-51350333D01*
X180721000Y-51181000D01*
X180975000Y-51096333D01*
X181144333Y-51096333D01*
X181398333Y-51181000D01*
X181483000Y-51265666D01*
X182245000Y-52874333D02*
X182245000Y-51096333D01*
X182245000Y-51943000D02*
X183261000Y-51943000D01*
X183261000Y-52874333D02*
X183261000Y-51096333D01*
X185377666Y-51265666D02*
X185462333Y-51181000D01*
X185631666Y-51096333D01*
X186055000Y-51096333D01*
X186224333Y-51181000D01*
X186309000Y-51265666D01*
X186393666Y-51435000D01*
X186393666Y-51604333D01*
X186309000Y-51858333D01*
X185293000Y-52874333D01*
X186393666Y-52874333D01*
X144399000Y-52705000D02*
X144314333Y-52789666D01*
X144060333Y-52874333D01*
X143891000Y-52874333D01*
X143637000Y-52789666D01*
X143467666Y-52620333D01*
X143383000Y-52451000D01*
X143298333Y-52112333D01*
X143298333Y-51858333D01*
X143383000Y-51519666D01*
X143467666Y-51350333D01*
X143637000Y-51181000D01*
X143891000Y-51096333D01*
X144060333Y-51096333D01*
X144314333Y-51181000D01*
X144399000Y-51265666D01*
X145161000Y-52874333D02*
X145161000Y-51096333D01*
X145161000Y-51943000D02*
X146177000Y-51943000D01*
X146177000Y-52874333D02*
X146177000Y-51096333D01*
X149309666Y-52874333D02*
X148293666Y-52874333D01*
X148801666Y-52874333D02*
X148801666Y-51096333D01*
X148632333Y-51350333D01*
X148463000Y-51519666D01*
X148293666Y-51604333D01*
X151426333Y-52197000D02*
X152781000Y-52197000D01*
X152103666Y-52874333D02*
X152103666Y-51519666D01*
D12*
%TO.C,U2*%
X163973000Y-73346000D02*
X162323000Y-73346000D01*
X162323000Y-73346000D02*
X162323000Y-109026000D01*
X162323000Y-109026000D02*
X167623000Y-109026000D01*
X167623000Y-109026000D02*
X167623000Y-73346000D01*
X167623000Y-73346000D02*
X165973000Y-73346000D01*
X165973000Y-73346000D02*
G75*
G02*
X163973000Y-73346000I-1000000J0D01*
G01*
%TO.C,C1*%
X165346000Y-57697000D02*
X164346000Y-57697000D01*
X164346000Y-59397000D02*
X165346000Y-59397000D01*
%TO.C,C2*%
X165346000Y-67349000D02*
X164346000Y-67349000D01*
X164346000Y-69049000D02*
X165346000Y-69049000D01*
%TO.C,C3*%
X154139000Y-97401000D02*
X154139000Y-96401000D01*
X152439000Y-96401000D02*
X152439000Y-97401000D01*
%TO.C,C4*%
X159727000Y-97401000D02*
X159727000Y-96401000D01*
X158027000Y-96401000D02*
X158027000Y-97401000D01*
%TO.C,C5*%
X157392000Y-90178000D02*
X157392000Y-91178000D01*
X159092000Y-91178000D02*
X159092000Y-90178000D01*
%TO.C,C6*%
X170600000Y-90940000D02*
X170600000Y-91940000D01*
X172300000Y-91940000D02*
X172300000Y-90940000D01*
%TO.C,D1*%
X174774000Y-107484000D02*
X174774000Y-106384000D01*
X174774000Y-106384000D02*
X172174000Y-106384000D01*
X174774000Y-107484000D02*
X172174000Y-107484000D01*
D13*
%TO.C,J10*%
X162560000Y-128092200D02*
G75*
G03*
X162560000Y-128092200I-254000J0D01*
G01*
X160909000Y-122047000D02*
X160909000Y-127381000D01*
X168783000Y-122047000D02*
X160909000Y-122047000D01*
X168783000Y-127381000D02*
X168783000Y-122047000D01*
X160909000Y-127381000D02*
X168783000Y-127381000D01*
D12*
%TO.C,J1*%
X142693500Y-49447000D02*
X142693500Y-69947000D01*
X135093500Y-49447000D02*
X135093500Y-69947000D01*
X135093500Y-49447000D02*
X142693500Y-49447000D01*
X142693500Y-69947000D02*
X135093500Y-69947000D01*
%TO.C,J2*%
X142693500Y-91791000D02*
X135093500Y-91791000D01*
X135093500Y-71291000D02*
X142693500Y-71291000D01*
X135093500Y-71291000D02*
X135093500Y-91791000D01*
X142693500Y-71291000D02*
X142693500Y-91791000D01*
%TO.C,J3*%
X142693500Y-93135000D02*
X142693500Y-113635000D01*
X135093500Y-93135000D02*
X135093500Y-113635000D01*
X135093500Y-93135000D02*
X142693500Y-93135000D01*
X142693500Y-113635000D02*
X135093500Y-113635000D01*
%TO.C,J4*%
X142693500Y-135479000D02*
X135093500Y-135479000D01*
X135093500Y-114979000D02*
X142693500Y-114979000D01*
X135093500Y-114979000D02*
X135093500Y-135479000D01*
X142693500Y-114979000D02*
X142693500Y-135479000D01*
%TO.C,J5*%
X187316000Y-69958400D02*
X187316000Y-49458400D01*
X194916000Y-69958400D02*
X194916000Y-49458400D01*
X194916000Y-69958400D02*
X187316000Y-69958400D01*
X187316000Y-49458400D02*
X194916000Y-49458400D01*
%TO.C,J6*%
X187316000Y-71302400D02*
X194916000Y-71302400D01*
X194916000Y-91802400D02*
X187316000Y-91802400D01*
X194916000Y-91802400D02*
X194916000Y-71302400D01*
X187316000Y-91802400D02*
X187316000Y-71302400D01*
%TO.C,J7*%
X187316000Y-113646400D02*
X187316000Y-93146400D01*
X194916000Y-113646400D02*
X194916000Y-93146400D01*
X194916000Y-113646400D02*
X187316000Y-113646400D01*
X187316000Y-93146400D02*
X194916000Y-93146400D01*
%TO.C,J8*%
X187316000Y-114990400D02*
X194916000Y-114990400D01*
X194916000Y-135490400D02*
X187316000Y-135490400D01*
X194916000Y-135490400D02*
X194916000Y-114990400D01*
X187316000Y-135490400D02*
X187316000Y-114990400D01*
%TO.C,Q1*%
X184486000Y-112158000D02*
X185896000Y-112158000D01*
X185896000Y-109838000D02*
X183866000Y-109838000D01*
X185896000Y-109838000D02*
X185896000Y-110498000D01*
X185896000Y-111498000D02*
X185896000Y-112158000D01*
%TO.C,Q2*%
X185896000Y-67556000D02*
X185896000Y-68216000D01*
X185896000Y-65896000D02*
X185896000Y-66556000D01*
X185896000Y-65896000D02*
X183866000Y-65896000D01*
X184486000Y-68216000D02*
X185896000Y-68216000D01*
%TO.C,Q3*%
X145460000Y-99678000D02*
X144050000Y-99678000D01*
X144050000Y-101998000D02*
X146080000Y-101998000D01*
X144050000Y-101998000D02*
X144050000Y-101338000D01*
X144050000Y-100338000D02*
X144050000Y-99678000D01*
%TO.C,Q4*%
X144050000Y-56650000D02*
X144050000Y-55990000D01*
X144050000Y-58310000D02*
X144050000Y-57650000D01*
X144050000Y-58310000D02*
X146080000Y-58310000D01*
X145460000Y-55990000D02*
X144050000Y-55990000D01*
%TO.C,Q5*%
X185896000Y-101338000D02*
X185896000Y-101998000D01*
X185896000Y-99678000D02*
X185896000Y-100338000D01*
X185896000Y-99678000D02*
X183866000Y-99678000D01*
X184486000Y-101998000D02*
X185896000Y-101998000D01*
%TO.C,Q6*%
X184486000Y-58310000D02*
X185896000Y-58310000D01*
X185896000Y-55990000D02*
X183866000Y-55990000D01*
X185896000Y-55990000D02*
X185896000Y-56650000D01*
X185896000Y-57650000D02*
X185896000Y-58310000D01*
%TO.C,Q7*%
X144050000Y-110498000D02*
X144050000Y-109838000D01*
X144050000Y-112158000D02*
X144050000Y-111498000D01*
X144050000Y-112158000D02*
X146080000Y-112158000D01*
X145460000Y-109838000D02*
X144050000Y-109838000D01*
%TO.C,Q8*%
X145460000Y-66150000D02*
X144050000Y-66150000D01*
X144050000Y-68470000D02*
X146080000Y-68470000D01*
X144050000Y-68470000D02*
X144050000Y-67810000D01*
X144050000Y-66810000D02*
X144050000Y-66150000D01*
%TO.C,Q9*%
X185896000Y-133342000D02*
X185896000Y-134002000D01*
X185896000Y-131682000D02*
X185896000Y-132342000D01*
X185896000Y-131682000D02*
X183866000Y-131682000D01*
X184486000Y-134002000D02*
X185896000Y-134002000D01*
%TO.C,Q10*%
X184486000Y-90314000D02*
X185896000Y-90314000D01*
X185896000Y-87994000D02*
X183866000Y-87994000D01*
X185896000Y-87994000D02*
X185896000Y-88654000D01*
X185896000Y-89654000D02*
X185896000Y-90314000D01*
%TO.C,Q11*%
X144050000Y-122182000D02*
X144050000Y-121522000D01*
X144050000Y-123842000D02*
X144050000Y-123182000D01*
X144050000Y-123842000D02*
X146080000Y-123842000D01*
X145460000Y-121522000D02*
X144050000Y-121522000D01*
%TO.C,Q12*%
X145460000Y-77834000D02*
X144050000Y-77834000D01*
X144050000Y-80154000D02*
X146080000Y-80154000D01*
X144050000Y-80154000D02*
X144050000Y-79494000D01*
X144050000Y-78494000D02*
X144050000Y-77834000D01*
%TO.C,Q13*%
X185896000Y-123182000D02*
X185896000Y-123842000D01*
X185896000Y-121522000D02*
X185896000Y-122182000D01*
X185896000Y-121522000D02*
X183866000Y-121522000D01*
X184486000Y-123842000D02*
X185896000Y-123842000D01*
%TO.C,Q14*%
X184486000Y-80154000D02*
X185896000Y-80154000D01*
X185896000Y-77834000D02*
X183866000Y-77834000D01*
X185896000Y-77834000D02*
X185896000Y-78494000D01*
X185896000Y-79494000D02*
X185896000Y-80154000D01*
%TO.C,Q15*%
X144050000Y-132342000D02*
X144050000Y-131682000D01*
X144050000Y-134002000D02*
X144050000Y-133342000D01*
X144050000Y-134002000D02*
X146080000Y-134002000D01*
X145460000Y-131682000D02*
X144050000Y-131682000D01*
%TO.C,Q16*%
X145460000Y-87740000D02*
X144050000Y-87740000D01*
X144050000Y-90060000D02*
X146080000Y-90060000D01*
X144050000Y-90060000D02*
X144050000Y-89400000D01*
X144050000Y-88400000D02*
X144050000Y-87740000D01*
%TO.C,R1*%
X183082000Y-110660922D02*
X183082000Y-111178078D01*
X181662000Y-110660922D02*
X181662000Y-111178078D01*
%TO.C,R2*%
X181535000Y-66670422D02*
X181535000Y-67187578D01*
X182955000Y-66670422D02*
X182955000Y-67187578D01*
%TO.C,R3*%
X146907001Y-101096578D02*
X146907001Y-100579422D01*
X148327001Y-101096578D02*
X148327001Y-100579422D01*
%TO.C,R4*%
X146864000Y-57408578D02*
X146864000Y-56891422D01*
X148284000Y-57408578D02*
X148284000Y-56891422D01*
%TO.C,R5*%
X183082000Y-100500922D02*
X183082000Y-101018078D01*
X181662000Y-100500922D02*
X181662000Y-101018078D01*
%TO.C,R6*%
X181662000Y-56891422D02*
X181662000Y-57408578D01*
X183082000Y-56891422D02*
X183082000Y-57408578D01*
%TO.C,R7*%
X146864000Y-111335078D02*
X146864000Y-110817922D01*
X148284000Y-111335078D02*
X148284000Y-110817922D01*
%TO.C,R8*%
X146864000Y-67568578D02*
X146864000Y-67051422D01*
X148284000Y-67568578D02*
X148284000Y-67051422D01*
%TO.C,R9*%
X172900078Y-104192000D02*
X172382922Y-104192000D01*
X172900078Y-105612000D02*
X172382922Y-105612000D01*
%TO.C,R10*%
X183082000Y-132504922D02*
X183082000Y-133022078D01*
X181662000Y-132504922D02*
X181662000Y-133022078D01*
%TO.C,R11*%
X181662000Y-88895422D02*
X181662000Y-89412578D01*
X183082000Y-88895422D02*
X183082000Y-89412578D01*
%TO.C,R12*%
X148284000Y-122940578D02*
X148284000Y-122423422D01*
X146864000Y-122940578D02*
X146864000Y-122423422D01*
%TO.C,R13*%
X146864000Y-79252578D02*
X146864000Y-78735422D01*
X148284000Y-79252578D02*
X148284000Y-78735422D01*
%TO.C,R14*%
X183082000Y-122423422D02*
X183082000Y-122940578D01*
X181662000Y-122423422D02*
X181662000Y-122940578D01*
%TO.C,R15*%
X181662000Y-78735422D02*
X181662000Y-79252578D01*
X183082000Y-78735422D02*
X183082000Y-79252578D01*
%TO.C,R16*%
X148284000Y-133100578D02*
X148284000Y-132583422D01*
X146864000Y-133100578D02*
X146864000Y-132583422D01*
%TO.C,R17*%
X148284000Y-89158578D02*
X148284000Y-88641422D01*
X146864000Y-89158578D02*
X146864000Y-88641422D01*
%TO.C,R18*%
X164587422Y-129742000D02*
X165104578Y-129742000D01*
X164587422Y-128322000D02*
X165104578Y-128322000D01*
%TO.C,U1*%
X165737000Y-59922000D02*
X164237000Y-59922000D01*
X164237000Y-59922000D02*
X164237000Y-60192000D01*
X164237000Y-60192000D02*
X161407000Y-60192000D01*
X165737000Y-66822000D02*
X164237000Y-66822000D01*
X164237000Y-66822000D02*
X164237000Y-66552000D01*
X164237000Y-66552000D02*
X163137000Y-66552000D01*
%TO.C,Y1*%
X154000200Y-95631000D02*
G75*
G03*
X154000200Y-95631000I-76200J0D01*
G01*
X154406600Y-96684142D02*
X154406600Y-97117858D01*
X157759400Y-97117858D02*
X157759400Y-96684142D01*
%TO.C,J9*%
X175263000Y-50174000D02*
X154763000Y-50174000D01*
X175263000Y-42574000D02*
X154763000Y-42574000D01*
X175263000Y-42574000D02*
X175263000Y-50174000D01*
X154763000Y-50174000D02*
X154763000Y-42574000D01*
%TO.C,U2*%
D14*
X164392428Y-71928714D02*
X164392428Y-72545571D01*
X164428714Y-72618142D01*
X164465000Y-72654428D01*
X164537571Y-72690714D01*
X164682714Y-72690714D01*
X164755285Y-72654428D01*
X164791571Y-72618142D01*
X164827857Y-72545571D01*
X164827857Y-71928714D01*
X165154428Y-72001285D02*
X165190714Y-71965000D01*
X165263285Y-71928714D01*
X165444714Y-71928714D01*
X165517285Y-71965000D01*
X165553571Y-72001285D01*
X165589857Y-72073857D01*
X165589857Y-72146428D01*
X165553571Y-72255285D01*
X165118142Y-72690714D01*
X165589857Y-72690714D01*
%TO.C,C1*%
X167513000Y-59073142D02*
X167476714Y-59109428D01*
X167367857Y-59145714D01*
X167295285Y-59145714D01*
X167186428Y-59109428D01*
X167113857Y-59036857D01*
X167077571Y-58964285D01*
X167041285Y-58819142D01*
X167041285Y-58710285D01*
X167077571Y-58565142D01*
X167113857Y-58492571D01*
X167186428Y-58420000D01*
X167295285Y-58383714D01*
X167367857Y-58383714D01*
X167476714Y-58420000D01*
X167513000Y-58456285D01*
X168238714Y-59145714D02*
X167803285Y-59145714D01*
X168021000Y-59145714D02*
X168021000Y-58383714D01*
X167948428Y-58492571D01*
X167875857Y-58565142D01*
X167803285Y-58601428D01*
%TO.C,C2*%
X167513000Y-68217142D02*
X167476714Y-68253428D01*
X167367857Y-68289714D01*
X167295285Y-68289714D01*
X167186428Y-68253428D01*
X167113857Y-68180857D01*
X167077571Y-68108285D01*
X167041285Y-67963142D01*
X167041285Y-67854285D01*
X167077571Y-67709142D01*
X167113857Y-67636571D01*
X167186428Y-67564000D01*
X167295285Y-67527714D01*
X167367857Y-67527714D01*
X167476714Y-67564000D01*
X167513000Y-67600285D01*
X167803285Y-67600285D02*
X167839571Y-67564000D01*
X167912142Y-67527714D01*
X168093571Y-67527714D01*
X168166142Y-67564000D01*
X168202428Y-67600285D01*
X168238714Y-67672857D01*
X168238714Y-67745428D01*
X168202428Y-67854285D01*
X167767000Y-68289714D01*
X168238714Y-68289714D01*
%TO.C,C3*%
X153162000Y-100602142D02*
X153125714Y-100638428D01*
X153016857Y-100674714D01*
X152944285Y-100674714D01*
X152835428Y-100638428D01*
X152762857Y-100565857D01*
X152726571Y-100493285D01*
X152690285Y-100348142D01*
X152690285Y-100239285D01*
X152726571Y-100094142D01*
X152762857Y-100021571D01*
X152835428Y-99949000D01*
X152944285Y-99912714D01*
X153016857Y-99912714D01*
X153125714Y-99949000D01*
X153162000Y-99985285D01*
X153416000Y-99912714D02*
X153887714Y-99912714D01*
X153633714Y-100203000D01*
X153742571Y-100203000D01*
X153815142Y-100239285D01*
X153851428Y-100275571D01*
X153887714Y-100348142D01*
X153887714Y-100529571D01*
X153851428Y-100602142D01*
X153815142Y-100638428D01*
X153742571Y-100674714D01*
X153524857Y-100674714D01*
X153452285Y-100638428D01*
X153416000Y-100602142D01*
%TO.C,C4*%
X158750000Y-100602142D02*
X158713714Y-100638428D01*
X158604857Y-100674714D01*
X158532285Y-100674714D01*
X158423428Y-100638428D01*
X158350857Y-100565857D01*
X158314571Y-100493285D01*
X158278285Y-100348142D01*
X158278285Y-100239285D01*
X158314571Y-100094142D01*
X158350857Y-100021571D01*
X158423428Y-99949000D01*
X158532285Y-99912714D01*
X158604857Y-99912714D01*
X158713714Y-99949000D01*
X158750000Y-99985285D01*
X159403142Y-100166714D02*
X159403142Y-100674714D01*
X159221714Y-99876428D02*
X159040285Y-100420714D01*
X159512000Y-100420714D01*
%TO.C,C5*%
X156083000Y-89680142D02*
X156046714Y-89716428D01*
X155937857Y-89752714D01*
X155865285Y-89752714D01*
X155756428Y-89716428D01*
X155683857Y-89643857D01*
X155647571Y-89571285D01*
X155611285Y-89426142D01*
X155611285Y-89317285D01*
X155647571Y-89172142D01*
X155683857Y-89099571D01*
X155756428Y-89027000D01*
X155865285Y-88990714D01*
X155937857Y-88990714D01*
X156046714Y-89027000D01*
X156083000Y-89063285D01*
X156772428Y-88990714D02*
X156409571Y-88990714D01*
X156373285Y-89353571D01*
X156409571Y-89317285D01*
X156482142Y-89281000D01*
X156663571Y-89281000D01*
X156736142Y-89317285D01*
X156772428Y-89353571D01*
X156808714Y-89426142D01*
X156808714Y-89607571D01*
X156772428Y-89680142D01*
X156736142Y-89716428D01*
X156663571Y-89752714D01*
X156482142Y-89752714D01*
X156409571Y-89716428D01*
X156373285Y-89680142D01*
%TO.C,C6*%
X173355000Y-90696142D02*
X173318714Y-90732428D01*
X173209857Y-90768714D01*
X173137285Y-90768714D01*
X173028428Y-90732428D01*
X172955857Y-90659857D01*
X172919571Y-90587285D01*
X172883285Y-90442142D01*
X172883285Y-90333285D01*
X172919571Y-90188142D01*
X172955857Y-90115571D01*
X173028428Y-90043000D01*
X173137285Y-90006714D01*
X173209857Y-90006714D01*
X173318714Y-90043000D01*
X173355000Y-90079285D01*
X174008142Y-90006714D02*
X173863000Y-90006714D01*
X173790428Y-90043000D01*
X173754142Y-90079285D01*
X173681571Y-90188142D01*
X173645285Y-90333285D01*
X173645285Y-90623571D01*
X173681571Y-90696142D01*
X173717857Y-90732428D01*
X173790428Y-90768714D01*
X173935571Y-90768714D01*
X174008142Y-90732428D01*
X174044428Y-90696142D01*
X174080714Y-90623571D01*
X174080714Y-90442142D01*
X174044428Y-90369571D01*
X174008142Y-90333285D01*
X173935571Y-90297000D01*
X173790428Y-90297000D01*
X173717857Y-90333285D01*
X173681571Y-90369571D01*
X173645285Y-90442142D01*
%TO.C,D1*%
X171395571Y-108802714D02*
X171395571Y-108040714D01*
X171577000Y-108040714D01*
X171685857Y-108077000D01*
X171758428Y-108149571D01*
X171794714Y-108222142D01*
X171831000Y-108367285D01*
X171831000Y-108476142D01*
X171794714Y-108621285D01*
X171758428Y-108693857D01*
X171685857Y-108766428D01*
X171577000Y-108802714D01*
X171395571Y-108802714D01*
X172556714Y-108802714D02*
X172121285Y-108802714D01*
X172339000Y-108802714D02*
X172339000Y-108040714D01*
X172266428Y-108149571D01*
X172193857Y-108222142D01*
X172121285Y-108258428D01*
%TO.C,J10*%
X169817142Y-126582714D02*
X169817142Y-127127000D01*
X169780857Y-127235857D01*
X169708285Y-127308428D01*
X169599428Y-127344714D01*
X169526857Y-127344714D01*
X170579142Y-127344714D02*
X170143714Y-127344714D01*
X170361428Y-127344714D02*
X170361428Y-126582714D01*
X170288857Y-126691571D01*
X170216285Y-126764142D01*
X170143714Y-126800428D01*
X171050857Y-126582714D02*
X171123428Y-126582714D01*
X171196000Y-126619000D01*
X171232285Y-126655285D01*
X171268571Y-126727857D01*
X171304857Y-126873000D01*
X171304857Y-127054428D01*
X171268571Y-127199571D01*
X171232285Y-127272142D01*
X171196000Y-127308428D01*
X171123428Y-127344714D01*
X171050857Y-127344714D01*
X170978285Y-127308428D01*
X170942000Y-127272142D01*
X170905714Y-127199571D01*
X170869428Y-127054428D01*
X170869428Y-126873000D01*
X170905714Y-126727857D01*
X170942000Y-126655285D01*
X170978285Y-126619000D01*
X171050857Y-126582714D01*
D11*
X162306000Y-125436380D02*
X162306000Y-125674476D01*
X162067904Y-125579238D02*
X162306000Y-125674476D01*
X162544095Y-125579238D01*
X162163142Y-125864952D02*
X162306000Y-125674476D01*
X162448857Y-125864952D01*
%TO.C,J1*%
D14*
X143510000Y-48096714D02*
X143510000Y-48641000D01*
X143473714Y-48749857D01*
X143401142Y-48822428D01*
X143292285Y-48858714D01*
X143219714Y-48858714D01*
X144272000Y-48858714D02*
X143836571Y-48858714D01*
X144054285Y-48858714D02*
X144054285Y-48096714D01*
X143981714Y-48205571D01*
X143909142Y-48278142D01*
X143836571Y-48314428D01*
%TO.C,J2*%
X143510000Y-70194714D02*
X143510000Y-70739000D01*
X143473714Y-70847857D01*
X143401142Y-70920428D01*
X143292285Y-70956714D01*
X143219714Y-70956714D01*
X143836571Y-70267285D02*
X143872857Y-70231000D01*
X143945428Y-70194714D01*
X144126857Y-70194714D01*
X144199428Y-70231000D01*
X144235714Y-70267285D01*
X144272000Y-70339857D01*
X144272000Y-70412428D01*
X144235714Y-70521285D01*
X143800285Y-70956714D01*
X144272000Y-70956714D01*
%TO.C,J3*%
X143510000Y-92038714D02*
X143510000Y-92583000D01*
X143473714Y-92691857D01*
X143401142Y-92764428D01*
X143292285Y-92800714D01*
X143219714Y-92800714D01*
X143800285Y-92038714D02*
X144272000Y-92038714D01*
X144018000Y-92329000D01*
X144126857Y-92329000D01*
X144199428Y-92365285D01*
X144235714Y-92401571D01*
X144272000Y-92474142D01*
X144272000Y-92655571D01*
X144235714Y-92728142D01*
X144199428Y-92764428D01*
X144126857Y-92800714D01*
X143909142Y-92800714D01*
X143836571Y-92764428D01*
X143800285Y-92728142D01*
%TO.C,J4*%
X143510000Y-113882714D02*
X143510000Y-114427000D01*
X143473714Y-114535857D01*
X143401142Y-114608428D01*
X143292285Y-114644714D01*
X143219714Y-114644714D01*
X144199428Y-114136714D02*
X144199428Y-114644714D01*
X144018000Y-113846428D02*
X143836571Y-114390714D01*
X144308285Y-114390714D01*
%TO.C,J5*%
X185674000Y-48350714D02*
X185674000Y-48895000D01*
X185637714Y-49003857D01*
X185565142Y-49076428D01*
X185456285Y-49112714D01*
X185383714Y-49112714D01*
X186399714Y-48350714D02*
X186036857Y-48350714D01*
X186000571Y-48713571D01*
X186036857Y-48677285D01*
X186109428Y-48641000D01*
X186290857Y-48641000D01*
X186363428Y-48677285D01*
X186399714Y-48713571D01*
X186436000Y-48786142D01*
X186436000Y-48967571D01*
X186399714Y-49040142D01*
X186363428Y-49076428D01*
X186290857Y-49112714D01*
X186109428Y-49112714D01*
X186036857Y-49076428D01*
X186000571Y-49040142D01*
%TO.C,J6*%
X185674000Y-70448714D02*
X185674000Y-70993000D01*
X185637714Y-71101857D01*
X185565142Y-71174428D01*
X185456285Y-71210714D01*
X185383714Y-71210714D01*
X186363428Y-70448714D02*
X186218285Y-70448714D01*
X186145714Y-70485000D01*
X186109428Y-70521285D01*
X186036857Y-70630142D01*
X186000571Y-70775285D01*
X186000571Y-71065571D01*
X186036857Y-71138142D01*
X186073142Y-71174428D01*
X186145714Y-71210714D01*
X186290857Y-71210714D01*
X186363428Y-71174428D01*
X186399714Y-71138142D01*
X186436000Y-71065571D01*
X186436000Y-70884142D01*
X186399714Y-70811571D01*
X186363428Y-70775285D01*
X186290857Y-70739000D01*
X186145714Y-70739000D01*
X186073142Y-70775285D01*
X186036857Y-70811571D01*
X186000571Y-70884142D01*
%TO.C,J7*%
X185674000Y-92292714D02*
X185674000Y-92837000D01*
X185637714Y-92945857D01*
X185565142Y-93018428D01*
X185456285Y-93054714D01*
X185383714Y-93054714D01*
X185964285Y-92292714D02*
X186472285Y-92292714D01*
X186145714Y-93054714D01*
%TO.C,J8*%
X185674000Y-113882714D02*
X185674000Y-114427000D01*
X185637714Y-114535857D01*
X185565142Y-114608428D01*
X185456285Y-114644714D01*
X185383714Y-114644714D01*
X186145714Y-114209285D02*
X186073142Y-114173000D01*
X186036857Y-114136714D01*
X186000571Y-114064142D01*
X186000571Y-114027857D01*
X186036857Y-113955285D01*
X186073142Y-113919000D01*
X186145714Y-113882714D01*
X186290857Y-113882714D01*
X186363428Y-113919000D01*
X186399714Y-113955285D01*
X186436000Y-114027857D01*
X186436000Y-114064142D01*
X186399714Y-114136714D01*
X186363428Y-114173000D01*
X186290857Y-114209285D01*
X186145714Y-114209285D01*
X186073142Y-114245571D01*
X186036857Y-114281857D01*
X186000571Y-114354428D01*
X186000571Y-114499571D01*
X186036857Y-114572142D01*
X186073142Y-114608428D01*
X186145714Y-114644714D01*
X186290857Y-114644714D01*
X186363428Y-114608428D01*
X186399714Y-114572142D01*
X186436000Y-114499571D01*
X186436000Y-114354428D01*
X186399714Y-114281857D01*
X186363428Y-114245571D01*
X186290857Y-114209285D01*
%TO.C,Q1*%
X184839428Y-108621285D02*
X184766857Y-108585000D01*
X184694285Y-108512428D01*
X184585428Y-108403571D01*
X184512857Y-108367285D01*
X184440285Y-108367285D01*
X184476571Y-108548714D02*
X184404000Y-108512428D01*
X184331428Y-108439857D01*
X184295142Y-108294714D01*
X184295142Y-108040714D01*
X184331428Y-107895571D01*
X184404000Y-107823000D01*
X184476571Y-107786714D01*
X184621714Y-107786714D01*
X184694285Y-107823000D01*
X184766857Y-107895571D01*
X184803142Y-108040714D01*
X184803142Y-108294714D01*
X184766857Y-108439857D01*
X184694285Y-108512428D01*
X184621714Y-108548714D01*
X184476571Y-108548714D01*
X185528857Y-108548714D02*
X185093428Y-108548714D01*
X185311142Y-108548714D02*
X185311142Y-107786714D01*
X185238571Y-107895571D01*
X185166000Y-107968142D01*
X185093428Y-108004428D01*
%TO.C,Q2*%
X185043428Y-64933285D02*
X184970857Y-64897000D01*
X184898285Y-64824428D01*
X184789428Y-64715571D01*
X184716857Y-64679285D01*
X184644285Y-64679285D01*
X184680571Y-64860714D02*
X184608000Y-64824428D01*
X184535428Y-64751857D01*
X184499142Y-64606714D01*
X184499142Y-64352714D01*
X184535428Y-64207571D01*
X184608000Y-64135000D01*
X184680571Y-64098714D01*
X184825714Y-64098714D01*
X184898285Y-64135000D01*
X184970857Y-64207571D01*
X185007142Y-64352714D01*
X185007142Y-64606714D01*
X184970857Y-64751857D01*
X184898285Y-64824428D01*
X184825714Y-64860714D01*
X184680571Y-64860714D01*
X185297428Y-64171285D02*
X185333714Y-64135000D01*
X185406285Y-64098714D01*
X185587714Y-64098714D01*
X185660285Y-64135000D01*
X185696571Y-64171285D01*
X185732857Y-64243857D01*
X185732857Y-64316428D01*
X185696571Y-64425285D01*
X185261142Y-64860714D01*
X185732857Y-64860714D01*
%TO.C,Q3*%
X144453428Y-103795285D02*
X144380857Y-103759000D01*
X144308285Y-103686428D01*
X144199428Y-103577571D01*
X144126857Y-103541285D01*
X144054285Y-103541285D01*
X144090571Y-103722714D02*
X144018000Y-103686428D01*
X143945428Y-103613857D01*
X143909142Y-103468714D01*
X143909142Y-103214714D01*
X143945428Y-103069571D01*
X144018000Y-102997000D01*
X144090571Y-102960714D01*
X144235714Y-102960714D01*
X144308285Y-102997000D01*
X144380857Y-103069571D01*
X144417142Y-103214714D01*
X144417142Y-103468714D01*
X144380857Y-103613857D01*
X144308285Y-103686428D01*
X144235714Y-103722714D01*
X144090571Y-103722714D01*
X144671142Y-102960714D02*
X145142857Y-102960714D01*
X144888857Y-103251000D01*
X144997714Y-103251000D01*
X145070285Y-103287285D01*
X145106571Y-103323571D01*
X145142857Y-103396142D01*
X145142857Y-103577571D01*
X145106571Y-103650142D01*
X145070285Y-103686428D01*
X144997714Y-103722714D01*
X144780000Y-103722714D01*
X144707428Y-103686428D01*
X144671142Y-103650142D01*
%TO.C,Q4*%
X144199428Y-60107285D02*
X144126857Y-60071000D01*
X144054285Y-59998428D01*
X143945428Y-59889571D01*
X143872857Y-59853285D01*
X143800285Y-59853285D01*
X143836571Y-60034714D02*
X143764000Y-59998428D01*
X143691428Y-59925857D01*
X143655142Y-59780714D01*
X143655142Y-59526714D01*
X143691428Y-59381571D01*
X143764000Y-59309000D01*
X143836571Y-59272714D01*
X143981714Y-59272714D01*
X144054285Y-59309000D01*
X144126857Y-59381571D01*
X144163142Y-59526714D01*
X144163142Y-59780714D01*
X144126857Y-59925857D01*
X144054285Y-59998428D01*
X143981714Y-60034714D01*
X143836571Y-60034714D01*
X144816285Y-59526714D02*
X144816285Y-60034714D01*
X144634857Y-59236428D02*
X144453428Y-59780714D01*
X144925142Y-59780714D01*
%TO.C,Q5*%
X185601428Y-103541285D02*
X185528857Y-103505000D01*
X185456285Y-103432428D01*
X185347428Y-103323571D01*
X185274857Y-103287285D01*
X185202285Y-103287285D01*
X185238571Y-103468714D02*
X185166000Y-103432428D01*
X185093428Y-103359857D01*
X185057142Y-103214714D01*
X185057142Y-102960714D01*
X185093428Y-102815571D01*
X185166000Y-102743000D01*
X185238571Y-102706714D01*
X185383714Y-102706714D01*
X185456285Y-102743000D01*
X185528857Y-102815571D01*
X185565142Y-102960714D01*
X185565142Y-103214714D01*
X185528857Y-103359857D01*
X185456285Y-103432428D01*
X185383714Y-103468714D01*
X185238571Y-103468714D01*
X186254571Y-102706714D02*
X185891714Y-102706714D01*
X185855428Y-103069571D01*
X185891714Y-103033285D01*
X185964285Y-102997000D01*
X186145714Y-102997000D01*
X186218285Y-103033285D01*
X186254571Y-103069571D01*
X186290857Y-103142142D01*
X186290857Y-103323571D01*
X186254571Y-103396142D01*
X186218285Y-103432428D01*
X186145714Y-103468714D01*
X185964285Y-103468714D01*
X185891714Y-103432428D01*
X185855428Y-103396142D01*
%TO.C,Q6*%
X185347428Y-60107285D02*
X185274857Y-60071000D01*
X185202285Y-59998428D01*
X185093428Y-59889571D01*
X185020857Y-59853285D01*
X184948285Y-59853285D01*
X184984571Y-60034714D02*
X184912000Y-59998428D01*
X184839428Y-59925857D01*
X184803142Y-59780714D01*
X184803142Y-59526714D01*
X184839428Y-59381571D01*
X184912000Y-59309000D01*
X184984571Y-59272714D01*
X185129714Y-59272714D01*
X185202285Y-59309000D01*
X185274857Y-59381571D01*
X185311142Y-59526714D01*
X185311142Y-59780714D01*
X185274857Y-59925857D01*
X185202285Y-59998428D01*
X185129714Y-60034714D01*
X184984571Y-60034714D01*
X185964285Y-59272714D02*
X185819142Y-59272714D01*
X185746571Y-59309000D01*
X185710285Y-59345285D01*
X185637714Y-59454142D01*
X185601428Y-59599285D01*
X185601428Y-59889571D01*
X185637714Y-59962142D01*
X185674000Y-59998428D01*
X185746571Y-60034714D01*
X185891714Y-60034714D01*
X185964285Y-59998428D01*
X186000571Y-59962142D01*
X186036857Y-59889571D01*
X186036857Y-59708142D01*
X186000571Y-59635571D01*
X185964285Y-59599285D01*
X185891714Y-59563000D01*
X185746571Y-59563000D01*
X185674000Y-59599285D01*
X185637714Y-59635571D01*
X185601428Y-59708142D01*
%TO.C,Q7*%
X144453428Y-108875285D02*
X144380857Y-108839000D01*
X144308285Y-108766428D01*
X144199428Y-108657571D01*
X144126857Y-108621285D01*
X144054285Y-108621285D01*
X144090571Y-108802714D02*
X144018000Y-108766428D01*
X143945428Y-108693857D01*
X143909142Y-108548714D01*
X143909142Y-108294714D01*
X143945428Y-108149571D01*
X144018000Y-108077000D01*
X144090571Y-108040714D01*
X144235714Y-108040714D01*
X144308285Y-108077000D01*
X144380857Y-108149571D01*
X144417142Y-108294714D01*
X144417142Y-108548714D01*
X144380857Y-108693857D01*
X144308285Y-108766428D01*
X144235714Y-108802714D01*
X144090571Y-108802714D01*
X144671142Y-108040714D02*
X145179142Y-108040714D01*
X144852571Y-108802714D01*
%TO.C,Q8*%
X144453428Y-64933285D02*
X144380857Y-64897000D01*
X144308285Y-64824428D01*
X144199428Y-64715571D01*
X144126857Y-64679285D01*
X144054285Y-64679285D01*
X144090571Y-64860714D02*
X144018000Y-64824428D01*
X143945428Y-64751857D01*
X143909142Y-64606714D01*
X143909142Y-64352714D01*
X143945428Y-64207571D01*
X144018000Y-64135000D01*
X144090571Y-64098714D01*
X144235714Y-64098714D01*
X144308285Y-64135000D01*
X144380857Y-64207571D01*
X144417142Y-64352714D01*
X144417142Y-64606714D01*
X144380857Y-64751857D01*
X144308285Y-64824428D01*
X144235714Y-64860714D01*
X144090571Y-64860714D01*
X144852571Y-64425285D02*
X144780000Y-64389000D01*
X144743714Y-64352714D01*
X144707428Y-64280142D01*
X144707428Y-64243857D01*
X144743714Y-64171285D01*
X144780000Y-64135000D01*
X144852571Y-64098714D01*
X144997714Y-64098714D01*
X145070285Y-64135000D01*
X145106571Y-64171285D01*
X145142857Y-64243857D01*
X145142857Y-64280142D01*
X145106571Y-64352714D01*
X145070285Y-64389000D01*
X144997714Y-64425285D01*
X144852571Y-64425285D01*
X144780000Y-64461571D01*
X144743714Y-64497857D01*
X144707428Y-64570428D01*
X144707428Y-64715571D01*
X144743714Y-64788142D01*
X144780000Y-64824428D01*
X144852571Y-64860714D01*
X144997714Y-64860714D01*
X145070285Y-64824428D01*
X145106571Y-64788142D01*
X145142857Y-64715571D01*
X145142857Y-64570428D01*
X145106571Y-64497857D01*
X145070285Y-64461571D01*
X144997714Y-64425285D01*
%TO.C,Q9*%
X185093428Y-135799285D02*
X185020857Y-135763000D01*
X184948285Y-135690428D01*
X184839428Y-135581571D01*
X184766857Y-135545285D01*
X184694285Y-135545285D01*
X184730571Y-135726714D02*
X184658000Y-135690428D01*
X184585428Y-135617857D01*
X184549142Y-135472714D01*
X184549142Y-135218714D01*
X184585428Y-135073571D01*
X184658000Y-135001000D01*
X184730571Y-134964714D01*
X184875714Y-134964714D01*
X184948285Y-135001000D01*
X185020857Y-135073571D01*
X185057142Y-135218714D01*
X185057142Y-135472714D01*
X185020857Y-135617857D01*
X184948285Y-135690428D01*
X184875714Y-135726714D01*
X184730571Y-135726714D01*
X185420000Y-135726714D02*
X185565142Y-135726714D01*
X185637714Y-135690428D01*
X185674000Y-135654142D01*
X185746571Y-135545285D01*
X185782857Y-135400142D01*
X185782857Y-135109857D01*
X185746571Y-135037285D01*
X185710285Y-135001000D01*
X185637714Y-134964714D01*
X185492571Y-134964714D01*
X185420000Y-135001000D01*
X185383714Y-135037285D01*
X185347428Y-135109857D01*
X185347428Y-135291285D01*
X185383714Y-135363857D01*
X185420000Y-135400142D01*
X185492571Y-135436428D01*
X185637714Y-135436428D01*
X185710285Y-135400142D01*
X185746571Y-135363857D01*
X185782857Y-135291285D01*
%TO.C,Q10*%
X184476571Y-86777285D02*
X184404000Y-86741000D01*
X184331428Y-86668428D01*
X184222571Y-86559571D01*
X184150000Y-86523285D01*
X184077428Y-86523285D01*
X184113714Y-86704714D02*
X184041142Y-86668428D01*
X183968571Y-86595857D01*
X183932285Y-86450714D01*
X183932285Y-86196714D01*
X183968571Y-86051571D01*
X184041142Y-85979000D01*
X184113714Y-85942714D01*
X184258857Y-85942714D01*
X184331428Y-85979000D01*
X184404000Y-86051571D01*
X184440285Y-86196714D01*
X184440285Y-86450714D01*
X184404000Y-86595857D01*
X184331428Y-86668428D01*
X184258857Y-86704714D01*
X184113714Y-86704714D01*
X185166000Y-86704714D02*
X184730571Y-86704714D01*
X184948285Y-86704714D02*
X184948285Y-85942714D01*
X184875714Y-86051571D01*
X184803142Y-86124142D01*
X184730571Y-86160428D01*
X185637714Y-85942714D02*
X185710285Y-85942714D01*
X185782857Y-85979000D01*
X185819142Y-86015285D01*
X185855428Y-86087857D01*
X185891714Y-86233000D01*
X185891714Y-86414428D01*
X185855428Y-86559571D01*
X185819142Y-86632142D01*
X185782857Y-86668428D01*
X185710285Y-86704714D01*
X185637714Y-86704714D01*
X185565142Y-86668428D01*
X185528857Y-86632142D01*
X185492571Y-86559571D01*
X185456285Y-86414428D01*
X185456285Y-86233000D01*
X185492571Y-86087857D01*
X185528857Y-86015285D01*
X185565142Y-85979000D01*
X185637714Y-85942714D01*
%TO.C,Q11*%
X144394571Y-125639285D02*
X144322000Y-125603000D01*
X144249428Y-125530428D01*
X144140571Y-125421571D01*
X144068000Y-125385285D01*
X143995428Y-125385285D01*
X144031714Y-125566714D02*
X143959142Y-125530428D01*
X143886571Y-125457857D01*
X143850285Y-125312714D01*
X143850285Y-125058714D01*
X143886571Y-124913571D01*
X143959142Y-124841000D01*
X144031714Y-124804714D01*
X144176857Y-124804714D01*
X144249428Y-124841000D01*
X144322000Y-124913571D01*
X144358285Y-125058714D01*
X144358285Y-125312714D01*
X144322000Y-125457857D01*
X144249428Y-125530428D01*
X144176857Y-125566714D01*
X144031714Y-125566714D01*
X145084000Y-125566714D02*
X144648571Y-125566714D01*
X144866285Y-125566714D02*
X144866285Y-124804714D01*
X144793714Y-124913571D01*
X144721142Y-124986142D01*
X144648571Y-125022428D01*
X145809714Y-125566714D02*
X145374285Y-125566714D01*
X145592000Y-125566714D02*
X145592000Y-124804714D01*
X145519428Y-124913571D01*
X145446857Y-124986142D01*
X145374285Y-125022428D01*
%TO.C,Q12*%
X144344571Y-82205285D02*
X144272000Y-82169000D01*
X144199428Y-82096428D01*
X144090571Y-81987571D01*
X144018000Y-81951285D01*
X143945428Y-81951285D01*
X143981714Y-82132714D02*
X143909142Y-82096428D01*
X143836571Y-82023857D01*
X143800285Y-81878714D01*
X143800285Y-81624714D01*
X143836571Y-81479571D01*
X143909142Y-81407000D01*
X143981714Y-81370714D01*
X144126857Y-81370714D01*
X144199428Y-81407000D01*
X144272000Y-81479571D01*
X144308285Y-81624714D01*
X144308285Y-81878714D01*
X144272000Y-82023857D01*
X144199428Y-82096428D01*
X144126857Y-82132714D01*
X143981714Y-82132714D01*
X145034000Y-82132714D02*
X144598571Y-82132714D01*
X144816285Y-82132714D02*
X144816285Y-81370714D01*
X144743714Y-81479571D01*
X144671142Y-81552142D01*
X144598571Y-81588428D01*
X145324285Y-81443285D02*
X145360571Y-81407000D01*
X145433142Y-81370714D01*
X145614571Y-81370714D01*
X145687142Y-81407000D01*
X145723428Y-81443285D01*
X145759714Y-81515857D01*
X145759714Y-81588428D01*
X145723428Y-81697285D01*
X145288000Y-82132714D01*
X145759714Y-82132714D01*
%TO.C,Q13*%
X184680571Y-125893285D02*
X184608000Y-125857000D01*
X184535428Y-125784428D01*
X184426571Y-125675571D01*
X184354000Y-125639285D01*
X184281428Y-125639285D01*
X184317714Y-125820714D02*
X184245142Y-125784428D01*
X184172571Y-125711857D01*
X184136285Y-125566714D01*
X184136285Y-125312714D01*
X184172571Y-125167571D01*
X184245142Y-125095000D01*
X184317714Y-125058714D01*
X184462857Y-125058714D01*
X184535428Y-125095000D01*
X184608000Y-125167571D01*
X184644285Y-125312714D01*
X184644285Y-125566714D01*
X184608000Y-125711857D01*
X184535428Y-125784428D01*
X184462857Y-125820714D01*
X184317714Y-125820714D01*
X185370000Y-125820714D02*
X184934571Y-125820714D01*
X185152285Y-125820714D02*
X185152285Y-125058714D01*
X185079714Y-125167571D01*
X185007142Y-125240142D01*
X184934571Y-125276428D01*
X185624000Y-125058714D02*
X186095714Y-125058714D01*
X185841714Y-125349000D01*
X185950571Y-125349000D01*
X186023142Y-125385285D01*
X186059428Y-125421571D01*
X186095714Y-125494142D01*
X186095714Y-125675571D01*
X186059428Y-125748142D01*
X186023142Y-125784428D01*
X185950571Y-125820714D01*
X185732857Y-125820714D01*
X185660285Y-125784428D01*
X185624000Y-125748142D01*
%TO.C,Q14*%
X184680571Y-82205285D02*
X184608000Y-82169000D01*
X184535428Y-82096428D01*
X184426571Y-81987571D01*
X184354000Y-81951285D01*
X184281428Y-81951285D01*
X184317714Y-82132714D02*
X184245142Y-82096428D01*
X184172571Y-82023857D01*
X184136285Y-81878714D01*
X184136285Y-81624714D01*
X184172571Y-81479571D01*
X184245142Y-81407000D01*
X184317714Y-81370714D01*
X184462857Y-81370714D01*
X184535428Y-81407000D01*
X184608000Y-81479571D01*
X184644285Y-81624714D01*
X184644285Y-81878714D01*
X184608000Y-82023857D01*
X184535428Y-82096428D01*
X184462857Y-82132714D01*
X184317714Y-82132714D01*
X185370000Y-82132714D02*
X184934571Y-82132714D01*
X185152285Y-82132714D02*
X185152285Y-81370714D01*
X185079714Y-81479571D01*
X185007142Y-81552142D01*
X184934571Y-81588428D01*
X186023142Y-81624714D02*
X186023142Y-82132714D01*
X185841714Y-81334428D02*
X185660285Y-81878714D01*
X186132000Y-81878714D01*
%TO.C,Q15*%
X144344571Y-135799285D02*
X144272000Y-135763000D01*
X144199428Y-135690428D01*
X144090571Y-135581571D01*
X144018000Y-135545285D01*
X143945428Y-135545285D01*
X143981714Y-135726714D02*
X143909142Y-135690428D01*
X143836571Y-135617857D01*
X143800285Y-135472714D01*
X143800285Y-135218714D01*
X143836571Y-135073571D01*
X143909142Y-135001000D01*
X143981714Y-134964714D01*
X144126857Y-134964714D01*
X144199428Y-135001000D01*
X144272000Y-135073571D01*
X144308285Y-135218714D01*
X144308285Y-135472714D01*
X144272000Y-135617857D01*
X144199428Y-135690428D01*
X144126857Y-135726714D01*
X143981714Y-135726714D01*
X145034000Y-135726714D02*
X144598571Y-135726714D01*
X144816285Y-135726714D02*
X144816285Y-134964714D01*
X144743714Y-135073571D01*
X144671142Y-135146142D01*
X144598571Y-135182428D01*
X145723428Y-134964714D02*
X145360571Y-134964714D01*
X145324285Y-135327571D01*
X145360571Y-135291285D01*
X145433142Y-135255000D01*
X145614571Y-135255000D01*
X145687142Y-135291285D01*
X145723428Y-135327571D01*
X145759714Y-135400142D01*
X145759714Y-135581571D01*
X145723428Y-135654142D01*
X145687142Y-135690428D01*
X145614571Y-135726714D01*
X145433142Y-135726714D01*
X145360571Y-135690428D01*
X145324285Y-135654142D01*
%TO.C,Q16*%
X144344571Y-86777285D02*
X144272000Y-86741000D01*
X144199428Y-86668428D01*
X144090571Y-86559571D01*
X144018000Y-86523285D01*
X143945428Y-86523285D01*
X143981714Y-86704714D02*
X143909142Y-86668428D01*
X143836571Y-86595857D01*
X143800285Y-86450714D01*
X143800285Y-86196714D01*
X143836571Y-86051571D01*
X143909142Y-85979000D01*
X143981714Y-85942714D01*
X144126857Y-85942714D01*
X144199428Y-85979000D01*
X144272000Y-86051571D01*
X144308285Y-86196714D01*
X144308285Y-86450714D01*
X144272000Y-86595857D01*
X144199428Y-86668428D01*
X144126857Y-86704714D01*
X143981714Y-86704714D01*
X145034000Y-86704714D02*
X144598571Y-86704714D01*
X144816285Y-86704714D02*
X144816285Y-85942714D01*
X144743714Y-86051571D01*
X144671142Y-86124142D01*
X144598571Y-86160428D01*
X145687142Y-85942714D02*
X145542000Y-85942714D01*
X145469428Y-85979000D01*
X145433142Y-86015285D01*
X145360571Y-86124142D01*
X145324285Y-86269285D01*
X145324285Y-86559571D01*
X145360571Y-86632142D01*
X145396857Y-86668428D01*
X145469428Y-86704714D01*
X145614571Y-86704714D01*
X145687142Y-86668428D01*
X145723428Y-86632142D01*
X145759714Y-86559571D01*
X145759714Y-86378142D01*
X145723428Y-86305571D01*
X145687142Y-86269285D01*
X145614571Y-86233000D01*
X145469428Y-86233000D01*
X145396857Y-86269285D01*
X145360571Y-86305571D01*
X145324285Y-86378142D01*
%TO.C,R1*%
X181991000Y-108548714D02*
X181737000Y-108185857D01*
X181555571Y-108548714D02*
X181555571Y-107786714D01*
X181845857Y-107786714D01*
X181918428Y-107823000D01*
X181954714Y-107859285D01*
X181991000Y-107931857D01*
X181991000Y-108040714D01*
X181954714Y-108113285D01*
X181918428Y-108149571D01*
X181845857Y-108185857D01*
X181555571Y-108185857D01*
X182716714Y-108548714D02*
X182281285Y-108548714D01*
X182499000Y-108548714D02*
X182499000Y-107786714D01*
X182426428Y-107895571D01*
X182353857Y-107968142D01*
X182281285Y-108004428D01*
%TO.C,R2*%
X181991000Y-64860714D02*
X181737000Y-64497857D01*
X181555571Y-64860714D02*
X181555571Y-64098714D01*
X181845857Y-64098714D01*
X181918428Y-64135000D01*
X181954714Y-64171285D01*
X181991000Y-64243857D01*
X181991000Y-64352714D01*
X181954714Y-64425285D01*
X181918428Y-64461571D01*
X181845857Y-64497857D01*
X181555571Y-64497857D01*
X182281285Y-64171285D02*
X182317571Y-64135000D01*
X182390142Y-64098714D01*
X182571571Y-64098714D01*
X182644142Y-64135000D01*
X182680428Y-64171285D01*
X182716714Y-64243857D01*
X182716714Y-64316428D01*
X182680428Y-64425285D01*
X182245000Y-64860714D01*
X182716714Y-64860714D01*
%TO.C,R3*%
X147447000Y-103656715D02*
X147193000Y-103293858D01*
X147011571Y-103656715D02*
X147011571Y-102894715D01*
X147301857Y-102894715D01*
X147374428Y-102931001D01*
X147410714Y-102967286D01*
X147447000Y-103039858D01*
X147447000Y-103148715D01*
X147410714Y-103221286D01*
X147374428Y-103257572D01*
X147301857Y-103293858D01*
X147011571Y-103293858D01*
X147701000Y-102894715D02*
X148172714Y-102894715D01*
X147918714Y-103185001D01*
X148027571Y-103185001D01*
X148100142Y-103221286D01*
X148136428Y-103257572D01*
X148172714Y-103330143D01*
X148172714Y-103511572D01*
X148136428Y-103584143D01*
X148100142Y-103620429D01*
X148027571Y-103656715D01*
X147809857Y-103656715D01*
X147737285Y-103620429D01*
X147701000Y-103584143D01*
%TO.C,R4*%
X147447000Y-60034714D02*
X147193000Y-59671857D01*
X147011571Y-60034714D02*
X147011571Y-59272714D01*
X147301857Y-59272714D01*
X147374428Y-59309000D01*
X147410714Y-59345285D01*
X147447000Y-59417857D01*
X147447000Y-59526714D01*
X147410714Y-59599285D01*
X147374428Y-59635571D01*
X147301857Y-59671857D01*
X147011571Y-59671857D01*
X148100142Y-59526714D02*
X148100142Y-60034714D01*
X147918714Y-59236428D02*
X147737285Y-59780714D01*
X148209000Y-59780714D01*
%TO.C,R5*%
X181991000Y-103468714D02*
X181737000Y-103105857D01*
X181555571Y-103468714D02*
X181555571Y-102706714D01*
X181845857Y-102706714D01*
X181918428Y-102743000D01*
X181954714Y-102779285D01*
X181991000Y-102851857D01*
X181991000Y-102960714D01*
X181954714Y-103033285D01*
X181918428Y-103069571D01*
X181845857Y-103105857D01*
X181555571Y-103105857D01*
X182680428Y-102706714D02*
X182317571Y-102706714D01*
X182281285Y-103069571D01*
X182317571Y-103033285D01*
X182390142Y-102997000D01*
X182571571Y-102997000D01*
X182644142Y-103033285D01*
X182680428Y-103069571D01*
X182716714Y-103142142D01*
X182716714Y-103323571D01*
X182680428Y-103396142D01*
X182644142Y-103432428D01*
X182571571Y-103468714D01*
X182390142Y-103468714D01*
X182317571Y-103432428D01*
X182281285Y-103396142D01*
%TO.C,R6*%
X181991000Y-60034714D02*
X181737000Y-59671857D01*
X181555571Y-60034714D02*
X181555571Y-59272714D01*
X181845857Y-59272714D01*
X181918428Y-59309000D01*
X181954714Y-59345285D01*
X181991000Y-59417857D01*
X181991000Y-59526714D01*
X181954714Y-59599285D01*
X181918428Y-59635571D01*
X181845857Y-59671857D01*
X181555571Y-59671857D01*
X182644142Y-59272714D02*
X182499000Y-59272714D01*
X182426428Y-59309000D01*
X182390142Y-59345285D01*
X182317571Y-59454142D01*
X182281285Y-59599285D01*
X182281285Y-59889571D01*
X182317571Y-59962142D01*
X182353857Y-59998428D01*
X182426428Y-60034714D01*
X182571571Y-60034714D01*
X182644142Y-59998428D01*
X182680428Y-59962142D01*
X182716714Y-59889571D01*
X182716714Y-59708142D01*
X182680428Y-59635571D01*
X182644142Y-59599285D01*
X182571571Y-59563000D01*
X182426428Y-59563000D01*
X182353857Y-59599285D01*
X182317571Y-59635571D01*
X182281285Y-59708142D01*
%TO.C,R7*%
X148209000Y-108802714D02*
X147955000Y-108439857D01*
X147773571Y-108802714D02*
X147773571Y-108040714D01*
X148063857Y-108040714D01*
X148136428Y-108077000D01*
X148172714Y-108113285D01*
X148209000Y-108185857D01*
X148209000Y-108294714D01*
X148172714Y-108367285D01*
X148136428Y-108403571D01*
X148063857Y-108439857D01*
X147773571Y-108439857D01*
X148463000Y-108040714D02*
X148971000Y-108040714D01*
X148644428Y-108802714D01*
%TO.C,R8*%
X147447000Y-64860714D02*
X147193000Y-64497857D01*
X147011571Y-64860714D02*
X147011571Y-64098714D01*
X147301857Y-64098714D01*
X147374428Y-64135000D01*
X147410714Y-64171285D01*
X147447000Y-64243857D01*
X147447000Y-64352714D01*
X147410714Y-64425285D01*
X147374428Y-64461571D01*
X147301857Y-64497857D01*
X147011571Y-64497857D01*
X147882428Y-64425285D02*
X147809857Y-64389000D01*
X147773571Y-64352714D01*
X147737285Y-64280142D01*
X147737285Y-64243857D01*
X147773571Y-64171285D01*
X147809857Y-64135000D01*
X147882428Y-64098714D01*
X148027571Y-64098714D01*
X148100142Y-64135000D01*
X148136428Y-64171285D01*
X148172714Y-64243857D01*
X148172714Y-64280142D01*
X148136428Y-64352714D01*
X148100142Y-64389000D01*
X148027571Y-64425285D01*
X147882428Y-64425285D01*
X147809857Y-64461571D01*
X147773571Y-64497857D01*
X147737285Y-64570428D01*
X147737285Y-64715571D01*
X147773571Y-64788142D01*
X147809857Y-64824428D01*
X147882428Y-64860714D01*
X148027571Y-64860714D01*
X148100142Y-64824428D01*
X148136428Y-64788142D01*
X148172714Y-64715571D01*
X148172714Y-64570428D01*
X148136428Y-64497857D01*
X148100142Y-64461571D01*
X148027571Y-64425285D01*
%TO.C,R9*%
X171831000Y-103468714D02*
X171577000Y-103105857D01*
X171395571Y-103468714D02*
X171395571Y-102706714D01*
X171685857Y-102706714D01*
X171758428Y-102743000D01*
X171794714Y-102779285D01*
X171831000Y-102851857D01*
X171831000Y-102960714D01*
X171794714Y-103033285D01*
X171758428Y-103069571D01*
X171685857Y-103105857D01*
X171395571Y-103105857D01*
X172193857Y-103468714D02*
X172339000Y-103468714D01*
X172411571Y-103432428D01*
X172447857Y-103396142D01*
X172520428Y-103287285D01*
X172556714Y-103142142D01*
X172556714Y-102851857D01*
X172520428Y-102779285D01*
X172484142Y-102743000D01*
X172411571Y-102706714D01*
X172266428Y-102706714D01*
X172193857Y-102743000D01*
X172157571Y-102779285D01*
X172121285Y-102851857D01*
X172121285Y-103033285D01*
X172157571Y-103105857D01*
X172193857Y-103142142D01*
X172266428Y-103178428D01*
X172411571Y-103178428D01*
X172484142Y-103142142D01*
X172520428Y-103105857D01*
X172556714Y-103033285D01*
%TO.C,R10*%
X180866142Y-135726714D02*
X180612142Y-135363857D01*
X180430714Y-135726714D02*
X180430714Y-134964714D01*
X180721000Y-134964714D01*
X180793571Y-135001000D01*
X180829857Y-135037285D01*
X180866142Y-135109857D01*
X180866142Y-135218714D01*
X180829857Y-135291285D01*
X180793571Y-135327571D01*
X180721000Y-135363857D01*
X180430714Y-135363857D01*
X181591857Y-135726714D02*
X181156428Y-135726714D01*
X181374142Y-135726714D02*
X181374142Y-134964714D01*
X181301571Y-135073571D01*
X181229000Y-135146142D01*
X181156428Y-135182428D01*
X182063571Y-134964714D02*
X182136142Y-134964714D01*
X182208714Y-135001000D01*
X182245000Y-135037285D01*
X182281285Y-135109857D01*
X182317571Y-135255000D01*
X182317571Y-135436428D01*
X182281285Y-135581571D01*
X182245000Y-135654142D01*
X182208714Y-135690428D01*
X182136142Y-135726714D01*
X182063571Y-135726714D01*
X181991000Y-135690428D01*
X181954714Y-135654142D01*
X181918428Y-135581571D01*
X181882142Y-135436428D01*
X181882142Y-135255000D01*
X181918428Y-135109857D01*
X181954714Y-135037285D01*
X181991000Y-135001000D01*
X182063571Y-134964714D01*
%TO.C,R11*%
X180612142Y-86704714D02*
X180358142Y-86341857D01*
X180176714Y-86704714D02*
X180176714Y-85942714D01*
X180467000Y-85942714D01*
X180539571Y-85979000D01*
X180575857Y-86015285D01*
X180612142Y-86087857D01*
X180612142Y-86196714D01*
X180575857Y-86269285D01*
X180539571Y-86305571D01*
X180467000Y-86341857D01*
X180176714Y-86341857D01*
X181337857Y-86704714D02*
X180902428Y-86704714D01*
X181120142Y-86704714D02*
X181120142Y-85942714D01*
X181047571Y-86051571D01*
X180975000Y-86124142D01*
X180902428Y-86160428D01*
X182063571Y-86704714D02*
X181628142Y-86704714D01*
X181845857Y-86704714D02*
X181845857Y-85942714D01*
X181773285Y-86051571D01*
X181700714Y-86124142D01*
X181628142Y-86160428D01*
%TO.C,R12*%
X147846142Y-125566714D02*
X147592142Y-125203857D01*
X147410714Y-125566714D02*
X147410714Y-124804714D01*
X147701000Y-124804714D01*
X147773571Y-124841000D01*
X147809857Y-124877285D01*
X147846142Y-124949857D01*
X147846142Y-125058714D01*
X147809857Y-125131285D01*
X147773571Y-125167571D01*
X147701000Y-125203857D01*
X147410714Y-125203857D01*
X148571857Y-125566714D02*
X148136428Y-125566714D01*
X148354142Y-125566714D02*
X148354142Y-124804714D01*
X148281571Y-124913571D01*
X148209000Y-124986142D01*
X148136428Y-125022428D01*
X148862142Y-124877285D02*
X148898428Y-124841000D01*
X148971000Y-124804714D01*
X149152428Y-124804714D01*
X149225000Y-124841000D01*
X149261285Y-124877285D01*
X149297571Y-124949857D01*
X149297571Y-125022428D01*
X149261285Y-125131285D01*
X148825857Y-125566714D01*
X149297571Y-125566714D01*
%TO.C,R13*%
X147846142Y-82132714D02*
X147592142Y-81769857D01*
X147410714Y-82132714D02*
X147410714Y-81370714D01*
X147701000Y-81370714D01*
X147773571Y-81407000D01*
X147809857Y-81443285D01*
X147846142Y-81515857D01*
X147846142Y-81624714D01*
X147809857Y-81697285D01*
X147773571Y-81733571D01*
X147701000Y-81769857D01*
X147410714Y-81769857D01*
X148571857Y-82132714D02*
X148136428Y-82132714D01*
X148354142Y-82132714D02*
X148354142Y-81370714D01*
X148281571Y-81479571D01*
X148209000Y-81552142D01*
X148136428Y-81588428D01*
X148825857Y-81370714D02*
X149297571Y-81370714D01*
X149043571Y-81661000D01*
X149152428Y-81661000D01*
X149225000Y-81697285D01*
X149261285Y-81733571D01*
X149297571Y-81806142D01*
X149297571Y-81987571D01*
X149261285Y-82060142D01*
X149225000Y-82096428D01*
X149152428Y-82132714D01*
X148934714Y-82132714D01*
X148862142Y-82096428D01*
X148825857Y-82060142D01*
%TO.C,R14*%
X181120142Y-125820714D02*
X180866142Y-125457857D01*
X180684714Y-125820714D02*
X180684714Y-125058714D01*
X180975000Y-125058714D01*
X181047571Y-125095000D01*
X181083857Y-125131285D01*
X181120142Y-125203857D01*
X181120142Y-125312714D01*
X181083857Y-125385285D01*
X181047571Y-125421571D01*
X180975000Y-125457857D01*
X180684714Y-125457857D01*
X181845857Y-125820714D02*
X181410428Y-125820714D01*
X181628142Y-125820714D02*
X181628142Y-125058714D01*
X181555571Y-125167571D01*
X181483000Y-125240142D01*
X181410428Y-125276428D01*
X182499000Y-125312714D02*
X182499000Y-125820714D01*
X182317571Y-125022428D02*
X182136142Y-125566714D01*
X182607857Y-125566714D01*
%TO.C,R15*%
X180866142Y-82132714D02*
X180612142Y-81769857D01*
X180430714Y-82132714D02*
X180430714Y-81370714D01*
X180721000Y-81370714D01*
X180793571Y-81407000D01*
X180829857Y-81443285D01*
X180866142Y-81515857D01*
X180866142Y-81624714D01*
X180829857Y-81697285D01*
X180793571Y-81733571D01*
X180721000Y-81769857D01*
X180430714Y-81769857D01*
X181591857Y-82132714D02*
X181156428Y-82132714D01*
X181374142Y-82132714D02*
X181374142Y-81370714D01*
X181301571Y-81479571D01*
X181229000Y-81552142D01*
X181156428Y-81588428D01*
X182281285Y-81370714D02*
X181918428Y-81370714D01*
X181882142Y-81733571D01*
X181918428Y-81697285D01*
X181991000Y-81661000D01*
X182172428Y-81661000D01*
X182245000Y-81697285D01*
X182281285Y-81733571D01*
X182317571Y-81806142D01*
X182317571Y-81987571D01*
X182281285Y-82060142D01*
X182245000Y-82096428D01*
X182172428Y-82132714D01*
X181991000Y-82132714D01*
X181918428Y-82096428D01*
X181882142Y-82060142D01*
%TO.C,R16*%
X147846142Y-135726714D02*
X147592142Y-135363857D01*
X147410714Y-135726714D02*
X147410714Y-134964714D01*
X147701000Y-134964714D01*
X147773571Y-135001000D01*
X147809857Y-135037285D01*
X147846142Y-135109857D01*
X147846142Y-135218714D01*
X147809857Y-135291285D01*
X147773571Y-135327571D01*
X147701000Y-135363857D01*
X147410714Y-135363857D01*
X148571857Y-135726714D02*
X148136428Y-135726714D01*
X148354142Y-135726714D02*
X148354142Y-134964714D01*
X148281571Y-135073571D01*
X148209000Y-135146142D01*
X148136428Y-135182428D01*
X149225000Y-134964714D02*
X149079857Y-134964714D01*
X149007285Y-135001000D01*
X148971000Y-135037285D01*
X148898428Y-135146142D01*
X148862142Y-135291285D01*
X148862142Y-135581571D01*
X148898428Y-135654142D01*
X148934714Y-135690428D01*
X149007285Y-135726714D01*
X149152428Y-135726714D01*
X149225000Y-135690428D01*
X149261285Y-135654142D01*
X149297571Y-135581571D01*
X149297571Y-135400142D01*
X149261285Y-135327571D01*
X149225000Y-135291285D01*
X149152428Y-135255000D01*
X149007285Y-135255000D01*
X148934714Y-135291285D01*
X148898428Y-135327571D01*
X148862142Y-135400142D01*
%TO.C,R17*%
X147592142Y-86704714D02*
X147338142Y-86341857D01*
X147156714Y-86704714D02*
X147156714Y-85942714D01*
X147447000Y-85942714D01*
X147519571Y-85979000D01*
X147555857Y-86015285D01*
X147592142Y-86087857D01*
X147592142Y-86196714D01*
X147555857Y-86269285D01*
X147519571Y-86305571D01*
X147447000Y-86341857D01*
X147156714Y-86341857D01*
X148317857Y-86704714D02*
X147882428Y-86704714D01*
X148100142Y-86704714D02*
X148100142Y-85942714D01*
X148027571Y-86051571D01*
X147955000Y-86124142D01*
X147882428Y-86160428D01*
X148571857Y-85942714D02*
X149079857Y-85942714D01*
X148753285Y-86704714D01*
%TO.C,R18*%
X164356142Y-131408714D02*
X164102142Y-131045857D01*
X163920714Y-131408714D02*
X163920714Y-130646714D01*
X164211000Y-130646714D01*
X164283571Y-130683000D01*
X164319857Y-130719285D01*
X164356142Y-130791857D01*
X164356142Y-130900714D01*
X164319857Y-130973285D01*
X164283571Y-131009571D01*
X164211000Y-131045857D01*
X163920714Y-131045857D01*
X165081857Y-131408714D02*
X164646428Y-131408714D01*
X164864142Y-131408714D02*
X164864142Y-130646714D01*
X164791571Y-130755571D01*
X164719000Y-130828142D01*
X164646428Y-130864428D01*
X165517285Y-130973285D02*
X165444714Y-130937000D01*
X165408428Y-130900714D01*
X165372142Y-130828142D01*
X165372142Y-130791857D01*
X165408428Y-130719285D01*
X165444714Y-130683000D01*
X165517285Y-130646714D01*
X165662428Y-130646714D01*
X165735000Y-130683000D01*
X165771285Y-130719285D01*
X165807571Y-130791857D01*
X165807571Y-130828142D01*
X165771285Y-130900714D01*
X165735000Y-130937000D01*
X165662428Y-130973285D01*
X165517285Y-130973285D01*
X165444714Y-131009571D01*
X165408428Y-131045857D01*
X165372142Y-131118428D01*
X165372142Y-131263571D01*
X165408428Y-131336142D01*
X165444714Y-131372428D01*
X165517285Y-131408714D01*
X165662428Y-131408714D01*
X165735000Y-131372428D01*
X165771285Y-131336142D01*
X165807571Y-131263571D01*
X165807571Y-131118428D01*
X165771285Y-131045857D01*
X165735000Y-131009571D01*
X165662428Y-130973285D01*
%TO.C,U1*%
X170869428Y-58383714D02*
X170869428Y-59000571D01*
X170905714Y-59073142D01*
X170942000Y-59109428D01*
X171014571Y-59145714D01*
X171159714Y-59145714D01*
X171232285Y-59109428D01*
X171268571Y-59073142D01*
X171304857Y-59000571D01*
X171304857Y-58383714D01*
X172066857Y-59145714D02*
X171631428Y-59145714D01*
X171849142Y-59145714D02*
X171849142Y-58383714D01*
X171776571Y-58492571D01*
X171704000Y-58565142D01*
X171631428Y-58601428D01*
%TO.C,Y1*%
X155720142Y-100311857D02*
X155720142Y-100674714D01*
X155466142Y-99912714D02*
X155720142Y-100311857D01*
X155974142Y-99912714D01*
X156627285Y-100674714D02*
X156191857Y-100674714D01*
X156409571Y-100674714D02*
X156409571Y-99912714D01*
X156337000Y-100021571D01*
X156264428Y-100094142D01*
X156191857Y-100130428D01*
D11*
X153924000Y-94575380D02*
X153924000Y-94813476D01*
X153685904Y-94718238D02*
X153924000Y-94813476D01*
X154162095Y-94718238D01*
X153781142Y-95003952D02*
X153924000Y-94813476D01*
X154066857Y-95003952D01*
%TO.C,J9*%
X175942666Y-48982380D02*
X175942666Y-49696666D01*
X175895047Y-49839523D01*
X175799809Y-49934761D01*
X175656952Y-49982380D01*
X175561714Y-49982380D01*
X176466476Y-49982380D02*
X176656952Y-49982380D01*
X176752190Y-49934761D01*
X176799809Y-49887142D01*
X176895047Y-49744285D01*
X176942666Y-49553809D01*
X176942666Y-49172857D01*
X176895047Y-49077619D01*
X176847428Y-49030000D01*
X176752190Y-48982380D01*
X176561714Y-48982380D01*
X176466476Y-49030000D01*
X176418857Y-49077619D01*
X176371238Y-49172857D01*
X176371238Y-49410952D01*
X176418857Y-49506190D01*
X176466476Y-49553809D01*
X176561714Y-49601428D01*
X176752190Y-49601428D01*
X176847428Y-49553809D01*
X176895047Y-49506190D01*
X176942666Y-49410952D01*
%TD*%
M02*
