%TF.GenerationSoftware,KiCad,Pcbnew,(5.1.9)-1*%
%TF.CreationDate,2021-06-30T11:02:33-04:00*%
%TF.ProjectId,disco_fish,64697363-6f5f-4666-9973-682e6b696361,rev?*%
%TF.SameCoordinates,Original*%
%TF.FileFunction,Legend,Bot*%
%TF.FilePolarity,Positive*%
%FSLAX46Y46*%
G04 Gerber Fmt 4.6, Leading zero omitted, Abs format (unit mm)*
G04 Created by KiCad (PCBNEW (5.1.9)-1) date 2021-06-30 11:02:33*
%MOMM*%
%LPD*%
G01*
G04 APERTURE LIST*
%ADD10C,0.300000*%
%ADD11C,0.010000*%
G04 APERTURE END LIST*
D10*
X151443428Y-113460000D02*
X149943428Y-113102857D01*
X151014857Y-112817142D01*
X149943428Y-112531428D01*
X151443428Y-112174285D01*
X149943428Y-111602857D02*
X151443428Y-111602857D01*
X149943428Y-110174285D02*
X149943428Y-110888571D01*
X151443428Y-110888571D01*
X149943428Y-108960000D02*
X149943428Y-109674285D01*
X151443428Y-109674285D01*
X150729142Y-106817142D02*
X150729142Y-107317142D01*
X149943428Y-107317142D02*
X151443428Y-107317142D01*
X151443428Y-106602857D01*
X150514857Y-104888571D02*
X150514857Y-103745714D01*
X149943428Y-101888571D02*
X151443428Y-101888571D01*
X150729142Y-101888571D02*
X150729142Y-101031428D01*
X149943428Y-101031428D02*
X151443428Y-101031428D01*
X150729142Y-99817142D02*
X150657714Y-99602857D01*
X150586285Y-99531428D01*
X150443428Y-99460000D01*
X150229142Y-99460000D01*
X150086285Y-99531428D01*
X150014857Y-99602857D01*
X149943428Y-99745714D01*
X149943428Y-100317142D01*
X151443428Y-100317142D01*
X151443428Y-99817142D01*
X151372000Y-99674285D01*
X151300571Y-99602857D01*
X151157714Y-99531428D01*
X151014857Y-99531428D01*
X150872000Y-99602857D01*
X150800571Y-99674285D01*
X150729142Y-99817142D01*
X150729142Y-100317142D01*
X151443428Y-98531428D02*
X151443428Y-98245714D01*
X151372000Y-98102857D01*
X151229142Y-97960000D01*
X150943428Y-97888571D01*
X150443428Y-97888571D01*
X150157714Y-97960000D01*
X150014857Y-98102857D01*
X149943428Y-98245714D01*
X149943428Y-98531428D01*
X150014857Y-98674285D01*
X150157714Y-98817142D01*
X150443428Y-98888571D01*
X150943428Y-98888571D01*
X151229142Y-98817142D01*
X151372000Y-98674285D01*
X151443428Y-98531428D01*
X149943428Y-97245714D02*
X151443428Y-97245714D01*
X150514857Y-95388571D02*
X150514857Y-94245714D01*
X149943428Y-91531428D02*
X150657714Y-92031428D01*
X149943428Y-92388571D02*
X151443428Y-92388571D01*
X151443428Y-91817142D01*
X151372000Y-91674285D01*
X151300571Y-91602857D01*
X151157714Y-91531428D01*
X150943428Y-91531428D01*
X150800571Y-91602857D01*
X150729142Y-91674285D01*
X150657714Y-91817142D01*
X150657714Y-92388571D01*
X150729142Y-90888571D02*
X150729142Y-90388571D01*
X149943428Y-90174285D02*
X149943428Y-90888571D01*
X151443428Y-90888571D01*
X151443428Y-90174285D01*
X151443428Y-89745714D02*
X149943428Y-89245714D01*
X151443428Y-88745714D01*
X149943428Y-86317142D02*
X149943428Y-87174285D01*
X149943428Y-86745714D02*
X151443428Y-86745714D01*
X151229142Y-86888571D01*
X151086285Y-87031428D01*
X151014857Y-87174285D01*
X150514857Y-84531428D02*
X150514857Y-83388571D01*
X151443428Y-81245714D02*
X151443428Y-81102857D01*
X151372000Y-80960000D01*
X151300571Y-80888571D01*
X151157714Y-80817142D01*
X150872000Y-80745714D01*
X150514857Y-80745714D01*
X150229142Y-80817142D01*
X150086285Y-80888571D01*
X150014857Y-80960000D01*
X149943428Y-81102857D01*
X149943428Y-81245714D01*
X150014857Y-81388571D01*
X150086285Y-81460000D01*
X150229142Y-81531428D01*
X150514857Y-81602857D01*
X150872000Y-81602857D01*
X151157714Y-81531428D01*
X151300571Y-81460000D01*
X151372000Y-81388571D01*
X151443428Y-81245714D01*
X151443428Y-79460000D02*
X151443428Y-79745714D01*
X151372000Y-79888571D01*
X151300571Y-79960000D01*
X151086285Y-80102857D01*
X150800571Y-80174285D01*
X150229142Y-80174285D01*
X150086285Y-80102857D01*
X150014857Y-80031428D01*
X149943428Y-79888571D01*
X149943428Y-79602857D01*
X150014857Y-79460000D01*
X150086285Y-79388571D01*
X150229142Y-79317142D01*
X150586285Y-79317142D01*
X150729142Y-79388571D01*
X150800571Y-79460000D01*
X150872000Y-79602857D01*
X150872000Y-79888571D01*
X150800571Y-80031428D01*
X150729142Y-80102857D01*
X150586285Y-80174285D01*
X151514857Y-77602857D02*
X149586285Y-78888571D01*
X151300571Y-77174285D02*
X151372000Y-77102857D01*
X151443428Y-76960000D01*
X151443428Y-76602857D01*
X151372000Y-76460000D01*
X151300571Y-76388571D01*
X151157714Y-76317142D01*
X151014857Y-76317142D01*
X150800571Y-76388571D01*
X149943428Y-77245714D01*
X149943428Y-76317142D01*
X151443428Y-75388571D02*
X151443428Y-75245714D01*
X151372000Y-75102857D01*
X151300571Y-75031428D01*
X151157714Y-74960000D01*
X150872000Y-74888571D01*
X150514857Y-74888571D01*
X150229142Y-74960000D01*
X150086285Y-75031428D01*
X150014857Y-75102857D01*
X149943428Y-75245714D01*
X149943428Y-75388571D01*
X150014857Y-75531428D01*
X150086285Y-75602857D01*
X150229142Y-75674285D01*
X150514857Y-75745714D01*
X150872000Y-75745714D01*
X151157714Y-75674285D01*
X151300571Y-75602857D01*
X151372000Y-75531428D01*
X151443428Y-75388571D01*
X151300571Y-74317142D02*
X151372000Y-74245714D01*
X151443428Y-74102857D01*
X151443428Y-73745714D01*
X151372000Y-73602857D01*
X151300571Y-73531428D01*
X151157714Y-73460000D01*
X151014857Y-73460000D01*
X150800571Y-73531428D01*
X149943428Y-74388571D01*
X149943428Y-73460000D01*
X149943428Y-72031428D02*
X149943428Y-72888571D01*
X149943428Y-72460000D02*
X151443428Y-72460000D01*
X151229142Y-72602857D01*
X151086285Y-72745714D01*
X151014857Y-72888571D01*
D11*
%TO.C,G\u002A\u002A\u002A*%
G36*
X187248775Y-90252720D02*
G01*
X187233600Y-89333951D01*
X187207010Y-88442567D01*
X187169296Y-87618713D01*
X187120749Y-86902537D01*
X187061658Y-86334185D01*
X187026050Y-86106000D01*
X186819594Y-85132949D01*
X186560764Y-84127654D01*
X186270383Y-83158944D01*
X185969276Y-82295646D01*
X185678264Y-81606590D01*
X185643231Y-81535333D01*
X185415647Y-81103592D01*
X185243160Y-80854980D01*
X185078344Y-80740234D01*
X184873774Y-80710093D01*
X184848500Y-80709833D01*
X184580191Y-80741597D01*
X184501357Y-80867170D01*
X184508778Y-80947994D01*
X184497120Y-81116171D01*
X184334818Y-81093285D01*
X184318278Y-81086190D01*
X184037689Y-81003309D01*
X183658151Y-80934625D01*
X183610250Y-80928607D01*
X183257288Y-80832750D01*
X183141439Y-80667683D01*
X183269074Y-80450736D01*
X183396909Y-80348255D01*
X183559980Y-80194144D01*
X183497327Y-80104864D01*
X183492159Y-80102928D01*
X183394332Y-80002597D01*
X183463406Y-79893320D01*
X183523857Y-79686373D01*
X183523918Y-79330077D01*
X183474669Y-78918821D01*
X183387193Y-78546991D01*
X183278160Y-78315496D01*
X183178840Y-78102147D01*
X183084219Y-77756564D01*
X183065306Y-77660500D01*
X182980387Y-77301617D01*
X182883785Y-77045232D01*
X182861250Y-77009848D01*
X182805159Y-76819397D01*
X182848782Y-76617618D01*
X182956902Y-76511702D01*
X183020308Y-76525725D01*
X183123546Y-76496694D01*
X183134000Y-76436572D01*
X183201935Y-76240594D01*
X183372514Y-75938231D01*
X183453819Y-75815654D01*
X183728947Y-75232148D01*
X183873790Y-74522251D01*
X183957775Y-74009042D01*
X184094501Y-73629114D01*
X184335083Y-73261752D01*
X184487898Y-73071923D01*
X184869708Y-72591726D01*
X185108272Y-72216345D01*
X185236315Y-71867429D01*
X185286560Y-71466626D01*
X185293000Y-71144225D01*
X185306730Y-70653716D01*
X185341989Y-70203593D01*
X185372778Y-69990863D01*
X185437692Y-69732521D01*
X185511768Y-69693217D01*
X185622739Y-69816238D01*
X185736938Y-69939603D01*
X185785414Y-69874157D01*
X185796961Y-69614163D01*
X185773362Y-69327144D01*
X185679028Y-69244645D01*
X185610501Y-69260927D01*
X185484243Y-69254574D01*
X185428519Y-69074648D01*
X185420000Y-68840598D01*
X185449673Y-68515548D01*
X185523387Y-68321843D01*
X185547872Y-68304543D01*
X185606615Y-68155208D01*
X185602099Y-67765440D01*
X185548945Y-67246210D01*
X185458284Y-66553512D01*
X185381649Y-66075069D01*
X185307714Y-65772403D01*
X185225153Y-65607040D01*
X185122639Y-65540500D01*
X185044350Y-65532000D01*
X184884020Y-65650794D01*
X184726647Y-65974490D01*
X184581163Y-66454060D01*
X184456500Y-67040477D01*
X184361590Y-67684714D01*
X184305366Y-68337743D01*
X184296762Y-68950536D01*
X184336008Y-69419811D01*
X184399234Y-69767984D01*
X184460283Y-69894915D01*
X184537407Y-69832536D01*
X184554885Y-69802810D01*
X184631175Y-69491030D01*
X184615183Y-69318981D01*
X184600764Y-69081026D01*
X184627568Y-68718068D01*
X184683295Y-68307576D01*
X184755647Y-67927019D01*
X184832325Y-67653867D01*
X184893820Y-67563856D01*
X184925007Y-67681535D01*
X184942532Y-67998233D01*
X184944455Y-68459238D01*
X184937198Y-68785980D01*
X184899801Y-69464237D01*
X184835105Y-69914984D01*
X184739094Y-70163642D01*
X184715138Y-70192005D01*
X184544799Y-70455094D01*
X184449176Y-70716131D01*
X184344337Y-71019652D01*
X184178868Y-71376648D01*
X183994317Y-71710425D01*
X183832235Y-71944290D01*
X183749294Y-72008022D01*
X183712775Y-71895939D01*
X183710634Y-71608665D01*
X183736013Y-71221641D01*
X183782050Y-70810307D01*
X183841886Y-70450101D01*
X183908662Y-70216465D01*
X183913006Y-70207600D01*
X184015218Y-69912250D01*
X183973633Y-69742731D01*
X183909391Y-69723000D01*
X183826396Y-69836307D01*
X183692489Y-70142118D01*
X183528464Y-70589268D01*
X183406144Y-70961250D01*
X182928176Y-72496809D01*
X182503915Y-73893799D01*
X182141157Y-75125824D01*
X181847696Y-76166486D01*
X181661098Y-76870870D01*
X181384527Y-77839319D01*
X181084646Y-78672929D01*
X180774764Y-79343515D01*
X180468191Y-79822895D01*
X180178234Y-80082884D01*
X180135312Y-80101853D01*
X179133983Y-80486827D01*
X178351043Y-80812163D01*
X177761024Y-81089276D01*
X177338458Y-81329585D01*
X177228500Y-81404865D01*
X176821522Y-81684421D01*
X176331673Y-82000160D01*
X176045750Y-82175340D01*
X175640145Y-82435756D01*
X175294914Y-82689442D01*
X175131339Y-82835042D01*
X174853441Y-83021241D01*
X174515417Y-83017034D01*
X174147233Y-83019975D01*
X173978199Y-83135720D01*
X173734899Y-83269475D01*
X173577463Y-83266955D01*
X173301217Y-83278586D01*
X172844391Y-83390657D01*
X172250741Y-83584491D01*
X171564024Y-83841411D01*
X170827997Y-84142741D01*
X170086418Y-84469804D01*
X169383042Y-84803924D01*
X168761627Y-85126424D01*
X168265930Y-85418627D01*
X167939708Y-85661856D01*
X167918511Y-85682348D01*
X167666723Y-85896852D01*
X167431681Y-86065855D01*
X167211639Y-86263063D01*
X167132000Y-86426452D01*
X167027902Y-86561832D01*
X166752363Y-86771164D01*
X166360522Y-87013601D01*
X166274750Y-87061532D01*
X165252205Y-87652317D01*
X164331418Y-88254092D01*
X163438247Y-88920433D01*
X162498551Y-89704917D01*
X161982662Y-90163101D01*
X161586346Y-90499010D01*
X161066861Y-90909568D01*
X160511230Y-91326824D01*
X160268162Y-91501808D01*
X159764765Y-91881312D01*
X159207864Y-92339229D01*
X158630866Y-92843606D01*
X158067178Y-93362492D01*
X157550206Y-93863934D01*
X157113359Y-94315981D01*
X156790043Y-94686680D01*
X156613665Y-94944079D01*
X156591000Y-95018808D01*
X156697308Y-95266239D01*
X156976878Y-95396024D01*
X157370680Y-95393261D01*
X157698069Y-95298289D01*
X158194103Y-95086047D01*
X158803591Y-94811970D01*
X159412944Y-94528096D01*
X159908569Y-94286460D01*
X159924750Y-94278241D01*
X160185784Y-94175328D01*
X160265119Y-94208131D01*
X160173254Y-94346306D01*
X159920691Y-94559509D01*
X159797750Y-94645254D01*
X159438281Y-94920083D01*
X158980695Y-95322161D01*
X158454652Y-95819881D01*
X157889813Y-96381637D01*
X157315839Y-96975820D01*
X156762390Y-97570824D01*
X156259126Y-98135041D01*
X155835708Y-98636865D01*
X155521798Y-99044688D01*
X155347054Y-99326904D01*
X155321000Y-99415804D01*
X155233698Y-99589915D01*
X155130500Y-99695000D01*
X154971992Y-99939378D01*
X154955667Y-100216825D01*
X155073602Y-100397580D01*
X155414087Y-100490821D01*
X155893377Y-100478364D01*
X156424445Y-100370766D01*
X156920264Y-100178585D01*
X156932930Y-100172018D01*
X157521016Y-99835484D01*
X158196485Y-99404159D01*
X158875484Y-98935337D01*
X159474159Y-98486314D01*
X159809044Y-98206859D01*
X160144677Y-97923829D01*
X160316194Y-97819060D01*
X160329215Y-97881857D01*
X160189362Y-98101520D01*
X159902254Y-98467355D01*
X159473512Y-98968662D01*
X159314729Y-99147658D01*
X158864227Y-99652939D01*
X158445361Y-100124892D01*
X158103047Y-100512771D01*
X157882200Y-100765832D01*
X157872404Y-100777239D01*
X157587248Y-101134811D01*
X157266653Y-101575074D01*
X156946258Y-102043847D01*
X156661698Y-102486945D01*
X156448609Y-102850188D01*
X156342630Y-103079392D01*
X156337000Y-103111689D01*
X156245214Y-103324365D01*
X156114750Y-103459334D01*
X155979796Y-103591900D01*
X156011146Y-103715736D01*
X156210000Y-103900510D01*
X156454827Y-104062441D01*
X156737835Y-104123112D01*
X157161124Y-104103481D01*
X157186334Y-104100919D01*
X157730370Y-103987776D01*
X158305782Y-103745814D01*
X158951809Y-103353755D01*
X159707691Y-102790320D01*
X159921367Y-102617785D01*
X160666959Y-102014782D01*
X161241028Y-101567077D01*
X161662269Y-101261644D01*
X161684315Y-101248116D01*
X161684315Y-100782730D01*
X161589246Y-100598071D01*
X161605080Y-100322876D01*
X161720929Y-100089504D01*
X161743031Y-100068920D01*
X161889139Y-99985025D01*
X161923266Y-100092200D01*
X161887875Y-100384104D01*
X161808467Y-100644972D01*
X161716934Y-100782645D01*
X161684315Y-100782730D01*
X161684315Y-101248116D01*
X161949380Y-101085459D01*
X162121057Y-101025499D01*
X162180813Y-101043863D01*
X162175340Y-101202705D01*
X162043683Y-101507974D01*
X161841229Y-101854000D01*
X161501087Y-102432935D01*
X161087720Y-103224240D01*
X160614343Y-104201446D01*
X160094169Y-105338084D01*
X160030201Y-105481752D01*
X159874690Y-105916532D01*
X159790891Y-106321332D01*
X159787047Y-106497752D01*
X159838239Y-106733001D01*
X159971072Y-106849869D01*
X160260989Y-106900593D01*
X160382723Y-106910211D01*
X160825697Y-106894617D01*
X161221676Y-106747761D01*
X161462136Y-106601706D01*
X162212075Y-106023359D01*
X163008798Y-105261214D01*
X163801352Y-104365915D01*
X164130553Y-103949500D01*
X164496581Y-103492210D01*
X164763956Y-103205507D01*
X164916237Y-103105904D01*
X164944253Y-103132292D01*
X164917108Y-103330056D01*
X164813098Y-103702359D01*
X164650527Y-104188245D01*
X164524730Y-104529292D01*
X164308048Y-105155616D01*
X164089014Y-105890480D01*
X163884479Y-106665552D01*
X163711294Y-107412496D01*
X163586308Y-108062978D01*
X163526374Y-108548664D01*
X163524627Y-108585000D01*
X163612046Y-108838424D01*
X163869921Y-108952765D01*
X164254758Y-108925841D01*
X164723063Y-108755468D01*
X164910581Y-108654582D01*
X165249967Y-108403000D01*
X165654906Y-108027363D01*
X166066210Y-107591962D01*
X166424691Y-107161086D01*
X166671163Y-106799028D01*
X166727976Y-106680489D01*
X166852473Y-106419366D01*
X167032953Y-106114639D01*
X167228373Y-105825278D01*
X167397688Y-105610255D01*
X167499853Y-105528543D01*
X167513000Y-105552586D01*
X167478366Y-105777230D01*
X167389504Y-106146230D01*
X167313735Y-106415900D01*
X167071577Y-107335210D01*
X166928332Y-108117556D01*
X166886621Y-108736637D01*
X166949066Y-109166154D01*
X167025379Y-109308055D01*
X167265350Y-109418387D01*
X167625273Y-109395798D01*
X168028723Y-109268458D01*
X168399272Y-109064541D01*
X168660494Y-108812216D01*
X168724768Y-108681643D01*
X168851703Y-108431277D01*
X169067392Y-108134038D01*
X169306321Y-107867905D01*
X169502972Y-107710857D01*
X169552886Y-107696000D01*
X169635760Y-107805576D01*
X169715059Y-108070187D01*
X169717050Y-108079998D01*
X169832736Y-108395730D01*
X170048211Y-108536979D01*
X170411786Y-108523269D01*
X170666647Y-108463750D01*
X171166070Y-108231294D01*
X171687719Y-107788547D01*
X172198498Y-107189912D01*
X172440463Y-106874324D01*
X172686053Y-107177615D01*
X172892982Y-107433161D01*
X172892982Y-103226252D01*
X172763364Y-103217720D01*
X172720000Y-103074088D01*
X172822442Y-102878030D01*
X172910500Y-102824074D01*
X173070242Y-102784387D01*
X173080964Y-102888097D01*
X173023913Y-103050113D01*
X172892982Y-103226252D01*
X172892982Y-107433161D01*
X172931644Y-107480907D01*
X173406566Y-107222422D01*
X173406566Y-94170500D01*
X172909799Y-94139480D01*
X172485031Y-94082699D01*
X172238534Y-93951292D01*
X172154806Y-93706423D01*
X172218345Y-93309255D01*
X172380231Y-92812727D01*
X172557622Y-92277570D01*
X172642000Y-91876724D01*
X172647794Y-91514342D01*
X172615548Y-91249500D01*
X172516159Y-90614500D01*
X172221824Y-91179095D01*
X172006935Y-91640920D01*
X171822815Y-92118390D01*
X171778613Y-92257892D01*
X171610495Y-92650269D01*
X171400864Y-92793190D01*
X171142321Y-92687812D01*
X170875039Y-92399251D01*
X170666312Y-92098921D01*
X170601575Y-91882637D01*
X170657772Y-91643103D01*
X170693415Y-91553930D01*
X170875650Y-91185115D01*
X171116762Y-90778514D01*
X171164982Y-90705719D01*
X171361124Y-90361977D01*
X171405578Y-90081052D01*
X171362024Y-89862128D01*
X171230982Y-89580625D01*
X171069005Y-89439340D01*
X171064497Y-89438390D01*
X170898014Y-89520632D01*
X170671200Y-89770043D01*
X170428244Y-90122291D01*
X170213331Y-90513046D01*
X170070651Y-90877975D01*
X170067340Y-90890118D01*
X169930123Y-91199300D01*
X169760826Y-91259710D01*
X169574922Y-91072088D01*
X169470453Y-90861649D01*
X169344415Y-90404108D01*
X169392932Y-89981991D01*
X169631561Y-89526685D01*
X169834575Y-89255735D01*
X170103972Y-88856906D01*
X170201040Y-88515727D01*
X170197215Y-88350193D01*
X170152292Y-88024150D01*
X170070931Y-87914271D01*
X169895344Y-87983616D01*
X169759548Y-88070423D01*
X169527132Y-88306327D01*
X169285490Y-88677824D01*
X169173498Y-88906070D01*
X169006572Y-89255432D01*
X168865553Y-89483792D01*
X168804870Y-89535000D01*
X168588059Y-89418894D01*
X168445969Y-89104022D01*
X168402000Y-88701710D01*
X168410472Y-88470463D01*
X168458225Y-88282381D01*
X168578770Y-88095527D01*
X168805615Y-87867967D01*
X169172268Y-87557765D01*
X169576750Y-87231556D01*
X170173924Y-86728567D01*
X170576337Y-86334460D01*
X170774296Y-86059068D01*
X170792788Y-85998270D01*
X170806634Y-85802940D01*
X170725429Y-85787498D01*
X170520860Y-85911874D01*
X170226614Y-86151165D01*
X169918879Y-86466612D01*
X169883171Y-86508766D01*
X169604461Y-86755228D01*
X169357747Y-86824552D01*
X169196939Y-86713782D01*
X169164000Y-86548180D01*
X169280097Y-86094584D01*
X169633306Y-85668114D01*
X170231006Y-85260667D01*
X170434123Y-85153439D01*
X170859645Y-84943171D01*
X171191691Y-84786611D01*
X171370513Y-84711733D01*
X171383330Y-84709000D01*
X171458328Y-84794862D01*
X171405978Y-84994639D01*
X171254704Y-85221618D01*
X171196000Y-85280500D01*
X170994575Y-85533380D01*
X170954122Y-85744182D01*
X171082703Y-85849235D01*
X171123635Y-85852000D01*
X171235337Y-85902392D01*
X171230748Y-86093999D01*
X171187135Y-86263912D01*
X171092082Y-86631961D01*
X171080433Y-86811855D01*
X171150207Y-86854659D01*
X171164250Y-86852961D01*
X171563796Y-86848491D01*
X171740343Y-86971784D01*
X171740343Y-84318689D01*
X171741451Y-84250617D01*
X171806088Y-84167518D01*
X172027331Y-83983232D01*
X172357801Y-83787141D01*
X172414067Y-83759524D01*
X172735928Y-83634293D01*
X172970442Y-83591055D01*
X173000525Y-83596009D01*
X172992924Y-83675606D01*
X172816823Y-83823440D01*
X172533865Y-84000269D01*
X172205692Y-84166851D01*
X171942928Y-84269284D01*
X171740343Y-84318689D01*
X171740343Y-86971784D01*
X171797643Y-87011801D01*
X171902276Y-87309284D01*
X172000356Y-87623856D01*
X172191753Y-87775443D01*
X172389890Y-87826514D01*
X172749423Y-87979413D01*
X172916109Y-88178980D01*
X173062021Y-88364693D01*
X173340828Y-88475977D01*
X173545500Y-88508796D01*
X173545500Y-88265000D01*
X173482000Y-88201500D01*
X173545500Y-88138000D01*
X173609000Y-88201500D01*
X173545500Y-88265000D01*
X173545500Y-88508796D01*
X173672500Y-88529161D01*
X174160521Y-88594906D01*
X174631653Y-88672502D01*
X174771849Y-88699812D01*
X175126774Y-88738269D01*
X175370179Y-88647423D01*
X175492674Y-88540327D01*
X175744068Y-88388970D01*
X176018622Y-88351895D01*
X176223585Y-88427907D01*
X176276000Y-88550430D01*
X176388753Y-88619497D01*
X176701019Y-88598051D01*
X176752250Y-88588829D01*
X177314985Y-88499774D01*
X177815592Y-88452506D01*
X178205615Y-88447909D01*
X178436597Y-88486867D01*
X178470087Y-88557479D01*
X178438085Y-88728865D01*
X178410420Y-89110049D01*
X178388911Y-89656843D01*
X178375376Y-90325056D01*
X178371500Y-90952748D01*
X178366154Y-91684486D01*
X178351321Y-92327692D01*
X178328809Y-92839495D01*
X178300425Y-93177021D01*
X178272723Y-93295192D01*
X178123858Y-93289372D01*
X177924302Y-93144747D01*
X177806677Y-93007477D01*
X177743857Y-92848461D01*
X177731159Y-92607117D01*
X177763898Y-92222863D01*
X177818715Y-91779151D01*
X177885743Y-91163125D01*
X177898319Y-90719413D01*
X177855422Y-90372009D01*
X177796958Y-90160781D01*
X177634173Y-89780049D01*
X177450100Y-89512177D01*
X177285347Y-89408732D01*
X177224201Y-89433467D01*
X177193088Y-89575805D01*
X177150165Y-89924004D01*
X177100417Y-90430480D01*
X177048829Y-91047650D01*
X177032706Y-91261314D01*
X176970184Y-92084907D01*
X176916715Y-92688870D01*
X176865109Y-93107054D01*
X176808175Y-93373308D01*
X176738723Y-93521483D01*
X176649563Y-93585429D01*
X176536139Y-93599000D01*
X176315909Y-93518372D01*
X176215160Y-93263937D01*
X176231180Y-92816869D01*
X176340848Y-92244281D01*
X176447756Y-91713380D01*
X176475335Y-91322191D01*
X176427361Y-90970409D01*
X176393735Y-90839164D01*
X176257119Y-90473174D01*
X176089607Y-90187705D01*
X175932104Y-90041198D01*
X175846009Y-90056653D01*
X175812534Y-90192783D01*
X175748065Y-90536071D01*
X175660297Y-91042639D01*
X175556929Y-91668609D01*
X175491926Y-92075000D01*
X175180697Y-94043500D01*
X174807599Y-94043500D01*
X174650621Y-94046274D01*
X174545459Y-94027226D01*
X174484733Y-93945304D01*
X174461067Y-93759457D01*
X174467083Y-93428632D01*
X174495405Y-92911778D01*
X174522316Y-92456000D01*
X174518780Y-91965593D01*
X174458726Y-91548792D01*
X174355898Y-91268928D01*
X174246679Y-91186000D01*
X174167118Y-91241692D01*
X174077252Y-91428068D01*
X173968078Y-91774081D01*
X173830598Y-92308684D01*
X173655809Y-93060830D01*
X173634724Y-93154500D01*
X173406566Y-94170500D01*
X173406566Y-107222422D01*
X173594110Y-107120347D01*
X174010963Y-106873517D01*
X174374117Y-106624587D01*
X174536039Y-106490859D01*
X174832791Y-106286282D01*
X175240659Y-106096708D01*
X175387000Y-106046301D01*
X175818298Y-105885811D01*
X176203536Y-105697560D01*
X176295606Y-105640336D01*
X176572826Y-105464277D01*
X176749454Y-105440321D01*
X176935366Y-105578376D01*
X177064611Y-105709679D01*
X177213752Y-105813379D01*
X177213752Y-101683846D01*
X177165000Y-101663500D01*
X177042742Y-101495262D01*
X177038000Y-101458010D01*
X177116249Y-101389155D01*
X177165000Y-101409500D01*
X177287259Y-101577739D01*
X177292000Y-101614991D01*
X177213752Y-101683846D01*
X177213752Y-105813379D01*
X177531220Y-106034122D01*
X177807496Y-106133339D01*
X177807496Y-100584000D01*
X177678169Y-100491810D01*
X177673000Y-100457000D01*
X177716331Y-100333302D01*
X177729005Y-100330000D01*
X177837434Y-100418994D01*
X177863500Y-100457000D01*
X177853431Y-100574029D01*
X177807496Y-100584000D01*
X177807496Y-106133339D01*
X178194928Y-106272477D01*
X179009809Y-106412504D01*
X179822220Y-106444560D01*
X180547615Y-106402916D01*
X181029511Y-106306997D01*
X181183002Y-106235712D01*
X181419912Y-106095028D01*
X181542032Y-106045000D01*
X181600982Y-106158171D01*
X181607408Y-106455490D01*
X181566153Y-106873668D01*
X181482059Y-107349417D01*
X181423243Y-107597645D01*
X181299704Y-108126813D01*
X181174766Y-108748264D01*
X181099591Y-109180077D01*
X180986586Y-109778258D01*
X180838452Y-110414862D01*
X180730002Y-110807500D01*
X180582125Y-111364296D01*
X180457378Y-111958492D01*
X180408523Y-112268000D01*
X180330392Y-112777902D01*
X180233012Y-113278146D01*
X180186305Y-113474500D01*
X180121340Y-113838856D01*
X180065817Y-114361526D01*
X180029189Y-114946826D01*
X180023163Y-115125500D01*
X179990608Y-115824122D01*
X179932561Y-116598004D01*
X179860991Y-117290235D01*
X179853671Y-117348000D01*
X179775794Y-117950089D01*
X179698167Y-118551364D01*
X179635796Y-119035562D01*
X179628254Y-119094250D01*
X179590066Y-119490388D01*
X179612662Y-119693557D01*
X179704821Y-119759409D01*
X179733461Y-119761000D01*
X179828753Y-119686372D01*
X179945644Y-119447710D01*
X180091933Y-119022853D01*
X180275417Y-118389638D01*
X180459652Y-117697251D01*
X180658523Y-116934501D01*
X180854832Y-116188464D01*
X181031428Y-115523848D01*
X181171157Y-115005361D01*
X181225500Y-114808000D01*
X181391919Y-114204975D01*
X181572261Y-113541081D01*
X181675093Y-113157000D01*
X181836654Y-112569520D01*
X182018858Y-111937659D01*
X182129703Y-111569500D01*
X182251688Y-111153248D01*
X182415204Y-110565275D01*
X182599880Y-109880200D01*
X182679531Y-109576320D01*
X182679531Y-75729759D01*
X182645003Y-75691635D01*
X182641417Y-75628500D01*
X182697348Y-75325407D01*
X182807287Y-75063399D01*
X182914774Y-74781059D01*
X182918802Y-74593934D01*
X182914560Y-74381536D01*
X182979355Y-74043247D01*
X183088265Y-73659462D01*
X183216371Y-73310575D01*
X183338752Y-73076980D01*
X183405136Y-73025000D01*
X183482318Y-73119119D01*
X183455847Y-73247250D01*
X183384808Y-73493666D01*
X183295691Y-73886064D01*
X183240026Y-74168000D01*
X183146780Y-74582563D01*
X183045398Y-74902157D01*
X182986455Y-75017131D01*
X182859513Y-75245814D01*
X182755105Y-75525131D01*
X182679531Y-75729759D01*
X182679531Y-109576320D01*
X182785340Y-109172643D01*
X182805851Y-109093000D01*
X183071553Y-108100165D01*
X183302090Y-107332278D01*
X183506295Y-106764127D01*
X183692999Y-106370500D01*
X183829092Y-106172000D01*
X183969850Y-105931412D01*
X184117385Y-105571874D01*
X184150001Y-105473500D01*
X184291059Y-105102962D01*
X184442480Y-104817627D01*
X184476357Y-104772957D01*
X184563454Y-104640128D01*
X184679026Y-104399211D01*
X184834323Y-104021960D01*
X185040593Y-103480132D01*
X185309083Y-102745483D01*
X185537708Y-102108000D01*
X185806462Y-101214211D01*
X185919711Y-100461523D01*
X185924971Y-100294171D01*
X185980300Y-99841420D01*
X186111100Y-99380711D01*
X186126919Y-99341671D01*
X186225303Y-99007681D01*
X186324039Y-98503871D01*
X186408034Y-97913952D01*
X186441007Y-97599500D01*
X186538135Y-96695588D01*
X186657361Y-95850469D01*
X186790121Y-95110868D01*
X186927851Y-94523505D01*
X187061989Y-94135102D01*
X187083845Y-94092173D01*
X187143260Y-93852183D01*
X187189517Y-93398697D01*
X187222906Y-92771861D01*
X187243718Y-92011821D01*
X187252244Y-91158725D01*
X187248775Y-90252720D01*
G37*
X187248775Y-90252720D02*
X187233600Y-89333951D01*
X187207010Y-88442567D01*
X187169296Y-87618713D01*
X187120749Y-86902537D01*
X187061658Y-86334185D01*
X187026050Y-86106000D01*
X186819594Y-85132949D01*
X186560764Y-84127654D01*
X186270383Y-83158944D01*
X185969276Y-82295646D01*
X185678264Y-81606590D01*
X185643231Y-81535333D01*
X185415647Y-81103592D01*
X185243160Y-80854980D01*
X185078344Y-80740234D01*
X184873774Y-80710093D01*
X184848500Y-80709833D01*
X184580191Y-80741597D01*
X184501357Y-80867170D01*
X184508778Y-80947994D01*
X184497120Y-81116171D01*
X184334818Y-81093285D01*
X184318278Y-81086190D01*
X184037689Y-81003309D01*
X183658151Y-80934625D01*
X183610250Y-80928607D01*
X183257288Y-80832750D01*
X183141439Y-80667683D01*
X183269074Y-80450736D01*
X183396909Y-80348255D01*
X183559980Y-80194144D01*
X183497327Y-80104864D01*
X183492159Y-80102928D01*
X183394332Y-80002597D01*
X183463406Y-79893320D01*
X183523857Y-79686373D01*
X183523918Y-79330077D01*
X183474669Y-78918821D01*
X183387193Y-78546991D01*
X183278160Y-78315496D01*
X183178840Y-78102147D01*
X183084219Y-77756564D01*
X183065306Y-77660500D01*
X182980387Y-77301617D01*
X182883785Y-77045232D01*
X182861250Y-77009848D01*
X182805159Y-76819397D01*
X182848782Y-76617618D01*
X182956902Y-76511702D01*
X183020308Y-76525725D01*
X183123546Y-76496694D01*
X183134000Y-76436572D01*
X183201935Y-76240594D01*
X183372514Y-75938231D01*
X183453819Y-75815654D01*
X183728947Y-75232148D01*
X183873790Y-74522251D01*
X183957775Y-74009042D01*
X184094501Y-73629114D01*
X184335083Y-73261752D01*
X184487898Y-73071923D01*
X184869708Y-72591726D01*
X185108272Y-72216345D01*
X185236315Y-71867429D01*
X185286560Y-71466626D01*
X185293000Y-71144225D01*
X185306730Y-70653716D01*
X185341989Y-70203593D01*
X185372778Y-69990863D01*
X185437692Y-69732521D01*
X185511768Y-69693217D01*
X185622739Y-69816238D01*
X185736938Y-69939603D01*
X185785414Y-69874157D01*
X185796961Y-69614163D01*
X185773362Y-69327144D01*
X185679028Y-69244645D01*
X185610501Y-69260927D01*
X185484243Y-69254574D01*
X185428519Y-69074648D01*
X185420000Y-68840598D01*
X185449673Y-68515548D01*
X185523387Y-68321843D01*
X185547872Y-68304543D01*
X185606615Y-68155208D01*
X185602099Y-67765440D01*
X185548945Y-67246210D01*
X185458284Y-66553512D01*
X185381649Y-66075069D01*
X185307714Y-65772403D01*
X185225153Y-65607040D01*
X185122639Y-65540500D01*
X185044350Y-65532000D01*
X184884020Y-65650794D01*
X184726647Y-65974490D01*
X184581163Y-66454060D01*
X184456500Y-67040477D01*
X184361590Y-67684714D01*
X184305366Y-68337743D01*
X184296762Y-68950536D01*
X184336008Y-69419811D01*
X184399234Y-69767984D01*
X184460283Y-69894915D01*
X184537407Y-69832536D01*
X184554885Y-69802810D01*
X184631175Y-69491030D01*
X184615183Y-69318981D01*
X184600764Y-69081026D01*
X184627568Y-68718068D01*
X184683295Y-68307576D01*
X184755647Y-67927019D01*
X184832325Y-67653867D01*
X184893820Y-67563856D01*
X184925007Y-67681535D01*
X184942532Y-67998233D01*
X184944455Y-68459238D01*
X184937198Y-68785980D01*
X184899801Y-69464237D01*
X184835105Y-69914984D01*
X184739094Y-70163642D01*
X184715138Y-70192005D01*
X184544799Y-70455094D01*
X184449176Y-70716131D01*
X184344337Y-71019652D01*
X184178868Y-71376648D01*
X183994317Y-71710425D01*
X183832235Y-71944290D01*
X183749294Y-72008022D01*
X183712775Y-71895939D01*
X183710634Y-71608665D01*
X183736013Y-71221641D01*
X183782050Y-70810307D01*
X183841886Y-70450101D01*
X183908662Y-70216465D01*
X183913006Y-70207600D01*
X184015218Y-69912250D01*
X183973633Y-69742731D01*
X183909391Y-69723000D01*
X183826396Y-69836307D01*
X183692489Y-70142118D01*
X183528464Y-70589268D01*
X183406144Y-70961250D01*
X182928176Y-72496809D01*
X182503915Y-73893799D01*
X182141157Y-75125824D01*
X181847696Y-76166486D01*
X181661098Y-76870870D01*
X181384527Y-77839319D01*
X181084646Y-78672929D01*
X180774764Y-79343515D01*
X180468191Y-79822895D01*
X180178234Y-80082884D01*
X180135312Y-80101853D01*
X179133983Y-80486827D01*
X178351043Y-80812163D01*
X177761024Y-81089276D01*
X177338458Y-81329585D01*
X177228500Y-81404865D01*
X176821522Y-81684421D01*
X176331673Y-82000160D01*
X176045750Y-82175340D01*
X175640145Y-82435756D01*
X175294914Y-82689442D01*
X175131339Y-82835042D01*
X174853441Y-83021241D01*
X174515417Y-83017034D01*
X174147233Y-83019975D01*
X173978199Y-83135720D01*
X173734899Y-83269475D01*
X173577463Y-83266955D01*
X173301217Y-83278586D01*
X172844391Y-83390657D01*
X172250741Y-83584491D01*
X171564024Y-83841411D01*
X170827997Y-84142741D01*
X170086418Y-84469804D01*
X169383042Y-84803924D01*
X168761627Y-85126424D01*
X168265930Y-85418627D01*
X167939708Y-85661856D01*
X167918511Y-85682348D01*
X167666723Y-85896852D01*
X167431681Y-86065855D01*
X167211639Y-86263063D01*
X167132000Y-86426452D01*
X167027902Y-86561832D01*
X166752363Y-86771164D01*
X166360522Y-87013601D01*
X166274750Y-87061532D01*
X165252205Y-87652317D01*
X164331418Y-88254092D01*
X163438247Y-88920433D01*
X162498551Y-89704917D01*
X161982662Y-90163101D01*
X161586346Y-90499010D01*
X161066861Y-90909568D01*
X160511230Y-91326824D01*
X160268162Y-91501808D01*
X159764765Y-91881312D01*
X159207864Y-92339229D01*
X158630866Y-92843606D01*
X158067178Y-93362492D01*
X157550206Y-93863934D01*
X157113359Y-94315981D01*
X156790043Y-94686680D01*
X156613665Y-94944079D01*
X156591000Y-95018808D01*
X156697308Y-95266239D01*
X156976878Y-95396024D01*
X157370680Y-95393261D01*
X157698069Y-95298289D01*
X158194103Y-95086047D01*
X158803591Y-94811970D01*
X159412944Y-94528096D01*
X159908569Y-94286460D01*
X159924750Y-94278241D01*
X160185784Y-94175328D01*
X160265119Y-94208131D01*
X160173254Y-94346306D01*
X159920691Y-94559509D01*
X159797750Y-94645254D01*
X159438281Y-94920083D01*
X158980695Y-95322161D01*
X158454652Y-95819881D01*
X157889813Y-96381637D01*
X157315839Y-96975820D01*
X156762390Y-97570824D01*
X156259126Y-98135041D01*
X155835708Y-98636865D01*
X155521798Y-99044688D01*
X155347054Y-99326904D01*
X155321000Y-99415804D01*
X155233698Y-99589915D01*
X155130500Y-99695000D01*
X154971992Y-99939378D01*
X154955667Y-100216825D01*
X155073602Y-100397580D01*
X155414087Y-100490821D01*
X155893377Y-100478364D01*
X156424445Y-100370766D01*
X156920264Y-100178585D01*
X156932930Y-100172018D01*
X157521016Y-99835484D01*
X158196485Y-99404159D01*
X158875484Y-98935337D01*
X159474159Y-98486314D01*
X159809044Y-98206859D01*
X160144677Y-97923829D01*
X160316194Y-97819060D01*
X160329215Y-97881857D01*
X160189362Y-98101520D01*
X159902254Y-98467355D01*
X159473512Y-98968662D01*
X159314729Y-99147658D01*
X158864227Y-99652939D01*
X158445361Y-100124892D01*
X158103047Y-100512771D01*
X157882200Y-100765832D01*
X157872404Y-100777239D01*
X157587248Y-101134811D01*
X157266653Y-101575074D01*
X156946258Y-102043847D01*
X156661698Y-102486945D01*
X156448609Y-102850188D01*
X156342630Y-103079392D01*
X156337000Y-103111689D01*
X156245214Y-103324365D01*
X156114750Y-103459334D01*
X155979796Y-103591900D01*
X156011146Y-103715736D01*
X156210000Y-103900510D01*
X156454827Y-104062441D01*
X156737835Y-104123112D01*
X157161124Y-104103481D01*
X157186334Y-104100919D01*
X157730370Y-103987776D01*
X158305782Y-103745814D01*
X158951809Y-103353755D01*
X159707691Y-102790320D01*
X159921367Y-102617785D01*
X160666959Y-102014782D01*
X161241028Y-101567077D01*
X161662269Y-101261644D01*
X161684315Y-101248116D01*
X161684315Y-100782730D01*
X161589246Y-100598071D01*
X161605080Y-100322876D01*
X161720929Y-100089504D01*
X161743031Y-100068920D01*
X161889139Y-99985025D01*
X161923266Y-100092200D01*
X161887875Y-100384104D01*
X161808467Y-100644972D01*
X161716934Y-100782645D01*
X161684315Y-100782730D01*
X161684315Y-101248116D01*
X161949380Y-101085459D01*
X162121057Y-101025499D01*
X162180813Y-101043863D01*
X162175340Y-101202705D01*
X162043683Y-101507974D01*
X161841229Y-101854000D01*
X161501087Y-102432935D01*
X161087720Y-103224240D01*
X160614343Y-104201446D01*
X160094169Y-105338084D01*
X160030201Y-105481752D01*
X159874690Y-105916532D01*
X159790891Y-106321332D01*
X159787047Y-106497752D01*
X159838239Y-106733001D01*
X159971072Y-106849869D01*
X160260989Y-106900593D01*
X160382723Y-106910211D01*
X160825697Y-106894617D01*
X161221676Y-106747761D01*
X161462136Y-106601706D01*
X162212075Y-106023359D01*
X163008798Y-105261214D01*
X163801352Y-104365915D01*
X164130553Y-103949500D01*
X164496581Y-103492210D01*
X164763956Y-103205507D01*
X164916237Y-103105904D01*
X164944253Y-103132292D01*
X164917108Y-103330056D01*
X164813098Y-103702359D01*
X164650527Y-104188245D01*
X164524730Y-104529292D01*
X164308048Y-105155616D01*
X164089014Y-105890480D01*
X163884479Y-106665552D01*
X163711294Y-107412496D01*
X163586308Y-108062978D01*
X163526374Y-108548664D01*
X163524627Y-108585000D01*
X163612046Y-108838424D01*
X163869921Y-108952765D01*
X164254758Y-108925841D01*
X164723063Y-108755468D01*
X164910581Y-108654582D01*
X165249967Y-108403000D01*
X165654906Y-108027363D01*
X166066210Y-107591962D01*
X166424691Y-107161086D01*
X166671163Y-106799028D01*
X166727976Y-106680489D01*
X166852473Y-106419366D01*
X167032953Y-106114639D01*
X167228373Y-105825278D01*
X167397688Y-105610255D01*
X167499853Y-105528543D01*
X167513000Y-105552586D01*
X167478366Y-105777230D01*
X167389504Y-106146230D01*
X167313735Y-106415900D01*
X167071577Y-107335210D01*
X166928332Y-108117556D01*
X166886621Y-108736637D01*
X166949066Y-109166154D01*
X167025379Y-109308055D01*
X167265350Y-109418387D01*
X167625273Y-109395798D01*
X168028723Y-109268458D01*
X168399272Y-109064541D01*
X168660494Y-108812216D01*
X168724768Y-108681643D01*
X168851703Y-108431277D01*
X169067392Y-108134038D01*
X169306321Y-107867905D01*
X169502972Y-107710857D01*
X169552886Y-107696000D01*
X169635760Y-107805576D01*
X169715059Y-108070187D01*
X169717050Y-108079998D01*
X169832736Y-108395730D01*
X170048211Y-108536979D01*
X170411786Y-108523269D01*
X170666647Y-108463750D01*
X171166070Y-108231294D01*
X171687719Y-107788547D01*
X172198498Y-107189912D01*
X172440463Y-106874324D01*
X172686053Y-107177615D01*
X172892982Y-107433161D01*
X172892982Y-103226252D01*
X172763364Y-103217720D01*
X172720000Y-103074088D01*
X172822442Y-102878030D01*
X172910500Y-102824074D01*
X173070242Y-102784387D01*
X173080964Y-102888097D01*
X173023913Y-103050113D01*
X172892982Y-103226252D01*
X172892982Y-107433161D01*
X172931644Y-107480907D01*
X173406566Y-107222422D01*
X173406566Y-94170500D01*
X172909799Y-94139480D01*
X172485031Y-94082699D01*
X172238534Y-93951292D01*
X172154806Y-93706423D01*
X172218345Y-93309255D01*
X172380231Y-92812727D01*
X172557622Y-92277570D01*
X172642000Y-91876724D01*
X172647794Y-91514342D01*
X172615548Y-91249500D01*
X172516159Y-90614500D01*
X172221824Y-91179095D01*
X172006935Y-91640920D01*
X171822815Y-92118390D01*
X171778613Y-92257892D01*
X171610495Y-92650269D01*
X171400864Y-92793190D01*
X171142321Y-92687812D01*
X170875039Y-92399251D01*
X170666312Y-92098921D01*
X170601575Y-91882637D01*
X170657772Y-91643103D01*
X170693415Y-91553930D01*
X170875650Y-91185115D01*
X171116762Y-90778514D01*
X171164982Y-90705719D01*
X171361124Y-90361977D01*
X171405578Y-90081052D01*
X171362024Y-89862128D01*
X171230982Y-89580625D01*
X171069005Y-89439340D01*
X171064497Y-89438390D01*
X170898014Y-89520632D01*
X170671200Y-89770043D01*
X170428244Y-90122291D01*
X170213331Y-90513046D01*
X170070651Y-90877975D01*
X170067340Y-90890118D01*
X169930123Y-91199300D01*
X169760826Y-91259710D01*
X169574922Y-91072088D01*
X169470453Y-90861649D01*
X169344415Y-90404108D01*
X169392932Y-89981991D01*
X169631561Y-89526685D01*
X169834575Y-89255735D01*
X170103972Y-88856906D01*
X170201040Y-88515727D01*
X170197215Y-88350193D01*
X170152292Y-88024150D01*
X170070931Y-87914271D01*
X169895344Y-87983616D01*
X169759548Y-88070423D01*
X169527132Y-88306327D01*
X169285490Y-88677824D01*
X169173498Y-88906070D01*
X169006572Y-89255432D01*
X168865553Y-89483792D01*
X168804870Y-89535000D01*
X168588059Y-89418894D01*
X168445969Y-89104022D01*
X168402000Y-88701710D01*
X168410472Y-88470463D01*
X168458225Y-88282381D01*
X168578770Y-88095527D01*
X168805615Y-87867967D01*
X169172268Y-87557765D01*
X169576750Y-87231556D01*
X170173924Y-86728567D01*
X170576337Y-86334460D01*
X170774296Y-86059068D01*
X170792788Y-85998270D01*
X170806634Y-85802940D01*
X170725429Y-85787498D01*
X170520860Y-85911874D01*
X170226614Y-86151165D01*
X169918879Y-86466612D01*
X169883171Y-86508766D01*
X169604461Y-86755228D01*
X169357747Y-86824552D01*
X169196939Y-86713782D01*
X169164000Y-86548180D01*
X169280097Y-86094584D01*
X169633306Y-85668114D01*
X170231006Y-85260667D01*
X170434123Y-85153439D01*
X170859645Y-84943171D01*
X171191691Y-84786611D01*
X171370513Y-84711733D01*
X171383330Y-84709000D01*
X171458328Y-84794862D01*
X171405978Y-84994639D01*
X171254704Y-85221618D01*
X171196000Y-85280500D01*
X170994575Y-85533380D01*
X170954122Y-85744182D01*
X171082703Y-85849235D01*
X171123635Y-85852000D01*
X171235337Y-85902392D01*
X171230748Y-86093999D01*
X171187135Y-86263912D01*
X171092082Y-86631961D01*
X171080433Y-86811855D01*
X171150207Y-86854659D01*
X171164250Y-86852961D01*
X171563796Y-86848491D01*
X171740343Y-86971784D01*
X171740343Y-84318689D01*
X171741451Y-84250617D01*
X171806088Y-84167518D01*
X172027331Y-83983232D01*
X172357801Y-83787141D01*
X172414067Y-83759524D01*
X172735928Y-83634293D01*
X172970442Y-83591055D01*
X173000525Y-83596009D01*
X172992924Y-83675606D01*
X172816823Y-83823440D01*
X172533865Y-84000269D01*
X172205692Y-84166851D01*
X171942928Y-84269284D01*
X171740343Y-84318689D01*
X171740343Y-86971784D01*
X171797643Y-87011801D01*
X171902276Y-87309284D01*
X172000356Y-87623856D01*
X172191753Y-87775443D01*
X172389890Y-87826514D01*
X172749423Y-87979413D01*
X172916109Y-88178980D01*
X173062021Y-88364693D01*
X173340828Y-88475977D01*
X173545500Y-88508796D01*
X173545500Y-88265000D01*
X173482000Y-88201500D01*
X173545500Y-88138000D01*
X173609000Y-88201500D01*
X173545500Y-88265000D01*
X173545500Y-88508796D01*
X173672500Y-88529161D01*
X174160521Y-88594906D01*
X174631653Y-88672502D01*
X174771849Y-88699812D01*
X175126774Y-88738269D01*
X175370179Y-88647423D01*
X175492674Y-88540327D01*
X175744068Y-88388970D01*
X176018622Y-88351895D01*
X176223585Y-88427907D01*
X176276000Y-88550430D01*
X176388753Y-88619497D01*
X176701019Y-88598051D01*
X176752250Y-88588829D01*
X177314985Y-88499774D01*
X177815592Y-88452506D01*
X178205615Y-88447909D01*
X178436597Y-88486867D01*
X178470087Y-88557479D01*
X178438085Y-88728865D01*
X178410420Y-89110049D01*
X178388911Y-89656843D01*
X178375376Y-90325056D01*
X178371500Y-90952748D01*
X178366154Y-91684486D01*
X178351321Y-92327692D01*
X178328809Y-92839495D01*
X178300425Y-93177021D01*
X178272723Y-93295192D01*
X178123858Y-93289372D01*
X177924302Y-93144747D01*
X177806677Y-93007477D01*
X177743857Y-92848461D01*
X177731159Y-92607117D01*
X177763898Y-92222863D01*
X177818715Y-91779151D01*
X177885743Y-91163125D01*
X177898319Y-90719413D01*
X177855422Y-90372009D01*
X177796958Y-90160781D01*
X177634173Y-89780049D01*
X177450100Y-89512177D01*
X177285347Y-89408732D01*
X177224201Y-89433467D01*
X177193088Y-89575805D01*
X177150165Y-89924004D01*
X177100417Y-90430480D01*
X177048829Y-91047650D01*
X177032706Y-91261314D01*
X176970184Y-92084907D01*
X176916715Y-92688870D01*
X176865109Y-93107054D01*
X176808175Y-93373308D01*
X176738723Y-93521483D01*
X176649563Y-93585429D01*
X176536139Y-93599000D01*
X176315909Y-93518372D01*
X176215160Y-93263937D01*
X176231180Y-92816869D01*
X176340848Y-92244281D01*
X176447756Y-91713380D01*
X176475335Y-91322191D01*
X176427361Y-90970409D01*
X176393735Y-90839164D01*
X176257119Y-90473174D01*
X176089607Y-90187705D01*
X175932104Y-90041198D01*
X175846009Y-90056653D01*
X175812534Y-90192783D01*
X175748065Y-90536071D01*
X175660297Y-91042639D01*
X175556929Y-91668609D01*
X175491926Y-92075000D01*
X175180697Y-94043500D01*
X174807599Y-94043500D01*
X174650621Y-94046274D01*
X174545459Y-94027226D01*
X174484733Y-93945304D01*
X174461067Y-93759457D01*
X174467083Y-93428632D01*
X174495405Y-92911778D01*
X174522316Y-92456000D01*
X174518780Y-91965593D01*
X174458726Y-91548792D01*
X174355898Y-91268928D01*
X174246679Y-91186000D01*
X174167118Y-91241692D01*
X174077252Y-91428068D01*
X173968078Y-91774081D01*
X173830598Y-92308684D01*
X173655809Y-93060830D01*
X173634724Y-93154500D01*
X173406566Y-94170500D01*
X173406566Y-107222422D01*
X173594110Y-107120347D01*
X174010963Y-106873517D01*
X174374117Y-106624587D01*
X174536039Y-106490859D01*
X174832791Y-106286282D01*
X175240659Y-106096708D01*
X175387000Y-106046301D01*
X175818298Y-105885811D01*
X176203536Y-105697560D01*
X176295606Y-105640336D01*
X176572826Y-105464277D01*
X176749454Y-105440321D01*
X176935366Y-105578376D01*
X177064611Y-105709679D01*
X177213752Y-105813379D01*
X177213752Y-101683846D01*
X177165000Y-101663500D01*
X177042742Y-101495262D01*
X177038000Y-101458010D01*
X177116249Y-101389155D01*
X177165000Y-101409500D01*
X177287259Y-101577739D01*
X177292000Y-101614991D01*
X177213752Y-101683846D01*
X177213752Y-105813379D01*
X177531220Y-106034122D01*
X177807496Y-106133339D01*
X177807496Y-100584000D01*
X177678169Y-100491810D01*
X177673000Y-100457000D01*
X177716331Y-100333302D01*
X177729005Y-100330000D01*
X177837434Y-100418994D01*
X177863500Y-100457000D01*
X177853431Y-100574029D01*
X177807496Y-100584000D01*
X177807496Y-106133339D01*
X178194928Y-106272477D01*
X179009809Y-106412504D01*
X179822220Y-106444560D01*
X180547615Y-106402916D01*
X181029511Y-106306997D01*
X181183002Y-106235712D01*
X181419912Y-106095028D01*
X181542032Y-106045000D01*
X181600982Y-106158171D01*
X181607408Y-106455490D01*
X181566153Y-106873668D01*
X181482059Y-107349417D01*
X181423243Y-107597645D01*
X181299704Y-108126813D01*
X181174766Y-108748264D01*
X181099591Y-109180077D01*
X180986586Y-109778258D01*
X180838452Y-110414862D01*
X180730002Y-110807500D01*
X180582125Y-111364296D01*
X180457378Y-111958492D01*
X180408523Y-112268000D01*
X180330392Y-112777902D01*
X180233012Y-113278146D01*
X180186305Y-113474500D01*
X180121340Y-113838856D01*
X180065817Y-114361526D01*
X180029189Y-114946826D01*
X180023163Y-115125500D01*
X179990608Y-115824122D01*
X179932561Y-116598004D01*
X179860991Y-117290235D01*
X179853671Y-117348000D01*
X179775794Y-117950089D01*
X179698167Y-118551364D01*
X179635796Y-119035562D01*
X179628254Y-119094250D01*
X179590066Y-119490388D01*
X179612662Y-119693557D01*
X179704821Y-119759409D01*
X179733461Y-119761000D01*
X179828753Y-119686372D01*
X179945644Y-119447710D01*
X180091933Y-119022853D01*
X180275417Y-118389638D01*
X180459652Y-117697251D01*
X180658523Y-116934501D01*
X180854832Y-116188464D01*
X181031428Y-115523848D01*
X181171157Y-115005361D01*
X181225500Y-114808000D01*
X181391919Y-114204975D01*
X181572261Y-113541081D01*
X181675093Y-113157000D01*
X181836654Y-112569520D01*
X182018858Y-111937659D01*
X182129703Y-111569500D01*
X182251688Y-111153248D01*
X182415204Y-110565275D01*
X182599880Y-109880200D01*
X182679531Y-109576320D01*
X182679531Y-75729759D01*
X182645003Y-75691635D01*
X182641417Y-75628500D01*
X182697348Y-75325407D01*
X182807287Y-75063399D01*
X182914774Y-74781059D01*
X182918802Y-74593934D01*
X182914560Y-74381536D01*
X182979355Y-74043247D01*
X183088265Y-73659462D01*
X183216371Y-73310575D01*
X183338752Y-73076980D01*
X183405136Y-73025000D01*
X183482318Y-73119119D01*
X183455847Y-73247250D01*
X183384808Y-73493666D01*
X183295691Y-73886064D01*
X183240026Y-74168000D01*
X183146780Y-74582563D01*
X183045398Y-74902157D01*
X182986455Y-75017131D01*
X182859513Y-75245814D01*
X182755105Y-75525131D01*
X182679531Y-75729759D01*
X182679531Y-109576320D01*
X182785340Y-109172643D01*
X182805851Y-109093000D01*
X183071553Y-108100165D01*
X183302090Y-107332278D01*
X183506295Y-106764127D01*
X183692999Y-106370500D01*
X183829092Y-106172000D01*
X183969850Y-105931412D01*
X184117385Y-105571874D01*
X184150001Y-105473500D01*
X184291059Y-105102962D01*
X184442480Y-104817627D01*
X184476357Y-104772957D01*
X184563454Y-104640128D01*
X184679026Y-104399211D01*
X184834323Y-104021960D01*
X185040593Y-103480132D01*
X185309083Y-102745483D01*
X185537708Y-102108000D01*
X185806462Y-101214211D01*
X185919711Y-100461523D01*
X185924971Y-100294171D01*
X185980300Y-99841420D01*
X186111100Y-99380711D01*
X186126919Y-99341671D01*
X186225303Y-99007681D01*
X186324039Y-98503871D01*
X186408034Y-97913952D01*
X186441007Y-97599500D01*
X186538135Y-96695588D01*
X186657361Y-95850469D01*
X186790121Y-95110868D01*
X186927851Y-94523505D01*
X187061989Y-94135102D01*
X187083845Y-94092173D01*
X187143260Y-93852183D01*
X187189517Y-93398697D01*
X187222906Y-92771861D01*
X187243718Y-92011821D01*
X187252244Y-91158725D01*
X187248775Y-90252720D01*
G36*
X184086500Y-69215000D02*
G01*
X184023000Y-69278500D01*
X184086500Y-69342000D01*
X184150000Y-69278500D01*
X184086500Y-69215000D01*
G37*
X184086500Y-69215000D02*
X184023000Y-69278500D01*
X184086500Y-69342000D01*
X184150000Y-69278500D01*
X184086500Y-69215000D01*
G36*
X188059795Y-81772853D02*
G01*
X187988924Y-81398529D01*
X187902698Y-81002131D01*
X187804315Y-80514829D01*
X187742855Y-80036476D01*
X187717350Y-79513528D01*
X187726828Y-78892442D01*
X187770322Y-78119674D01*
X187835311Y-77279500D01*
X187911716Y-76000092D01*
X187903366Y-74925933D01*
X187801794Y-74019999D01*
X187598532Y-73245265D01*
X187285115Y-72564709D01*
X186853074Y-71941306D01*
X186531250Y-71577047D01*
X186308122Y-71361354D01*
X186205093Y-71327252D01*
X186182000Y-71440706D01*
X186100189Y-71717376D01*
X185983107Y-71891275D01*
X185742552Y-72276726D01*
X185518198Y-72854418D01*
X185326381Y-73562596D01*
X185183439Y-74339500D01*
X185105706Y-75123373D01*
X185101134Y-75225416D01*
X185067846Y-75776363D01*
X185016768Y-76239171D01*
X184956157Y-76549794D01*
X184919313Y-76635690D01*
X184848599Y-76876636D01*
X184884681Y-77317008D01*
X184908266Y-77450306D01*
X184973964Y-78023539D01*
X184909729Y-78410030D01*
X184709468Y-78644804D01*
X184699328Y-78651061D01*
X184566557Y-78830992D01*
X184566254Y-79157917D01*
X184643962Y-79499146D01*
X184775574Y-79734883D01*
X185047077Y-79836320D01*
X185153885Y-79848038D01*
X185420000Y-79929971D01*
X185420000Y-79629000D01*
X185315465Y-79582533D01*
X185335334Y-79544334D01*
X185485367Y-79529204D01*
X185485367Y-77724000D01*
X185328060Y-77618396D01*
X185293000Y-77473986D01*
X185354529Y-77292044D01*
X185483500Y-77297074D01*
X185648959Y-77279735D01*
X185676824Y-77197838D01*
X185752328Y-76981777D01*
X185928000Y-76708000D01*
X186097977Y-76506435D01*
X186165970Y-76498779D01*
X186178702Y-76644500D01*
X186112059Y-76943228D01*
X185944325Y-77278972D01*
X185730774Y-77565675D01*
X185526676Y-77717279D01*
X185485367Y-77724000D01*
X185485367Y-79529204D01*
X185486053Y-79529134D01*
X185504667Y-79544334D01*
X185487234Y-79619835D01*
X185420000Y-79629000D01*
X185420000Y-79929971D01*
X185556259Y-79971924D01*
X185988960Y-80297748D01*
X186078934Y-80385051D01*
X186278451Y-80566765D01*
X186278451Y-75819000D01*
X186189478Y-75727873D01*
X186231954Y-75506904D01*
X186376540Y-75254977D01*
X186469552Y-75043126D01*
X186469552Y-73225622D01*
X186240023Y-73195825D01*
X186097494Y-73125882D01*
X186137954Y-73068717D01*
X186391454Y-72995448D01*
X186467750Y-72976947D01*
X186717041Y-72952050D01*
X186817000Y-73008993D01*
X186710796Y-73155251D01*
X186469552Y-73225622D01*
X186469552Y-75043126D01*
X186508371Y-74954708D01*
X186563000Y-74580732D01*
X186596689Y-74288906D01*
X186695673Y-74235386D01*
X186703682Y-74239956D01*
X186784826Y-74419113D01*
X186784826Y-73972560D01*
X186702503Y-73963779D01*
X186690000Y-73806517D01*
X186781276Y-73565323D01*
X186890888Y-73483088D01*
X187203325Y-73405603D01*
X187316217Y-73467584D01*
X187219937Y-73639838D01*
X187003510Y-73824679D01*
X186784826Y-73972560D01*
X186784826Y-74419113D01*
X186786634Y-74423105D01*
X186776141Y-74748021D01*
X186694448Y-75132091D01*
X186563803Y-75492700D01*
X186406455Y-75747237D01*
X186278451Y-75819000D01*
X186278451Y-80566765D01*
X186403410Y-80680575D01*
X186508572Y-80758910D01*
X186508572Y-77597000D01*
X186434930Y-77511150D01*
X186489940Y-77317636D01*
X186617429Y-77143429D01*
X186836922Y-76976215D01*
X186937380Y-77031219D01*
X186944000Y-77098072D01*
X186862769Y-77285067D01*
X186687044Y-77490074D01*
X186518780Y-77596272D01*
X186508572Y-77597000D01*
X186508572Y-80758910D01*
X186694680Y-80897544D01*
X186826351Y-80965468D01*
X186974364Y-81047115D01*
X186974364Y-77795918D01*
X186954027Y-77671084D01*
X186977377Y-77506363D01*
X187020730Y-77504396D01*
X187051047Y-77674372D01*
X187030756Y-77747813D01*
X186974364Y-77795918D01*
X186974364Y-81047115D01*
X187026492Y-81075871D01*
X187071000Y-81153000D01*
X187175235Y-81276517D01*
X187311342Y-81339166D01*
X187321015Y-81346559D01*
X187321015Y-77216000D01*
X187211859Y-77113075D01*
X187198000Y-77025500D01*
X187225172Y-76856056D01*
X187247913Y-76835000D01*
X187329803Y-76934309D01*
X187370927Y-77025500D01*
X187373567Y-77189033D01*
X187321015Y-77216000D01*
X187321015Y-81346559D01*
X187527536Y-81504413D01*
X187707750Y-81792224D01*
X187861344Y-82066705D01*
X187999846Y-82166428D01*
X188080415Y-82069460D01*
X188087000Y-81986381D01*
X188059795Y-81772853D01*
G37*
X188059795Y-81772853D02*
X187988924Y-81398529D01*
X187902698Y-81002131D01*
X187804315Y-80514829D01*
X187742855Y-80036476D01*
X187717350Y-79513528D01*
X187726828Y-78892442D01*
X187770322Y-78119674D01*
X187835311Y-77279500D01*
X187911716Y-76000092D01*
X187903366Y-74925933D01*
X187801794Y-74019999D01*
X187598532Y-73245265D01*
X187285115Y-72564709D01*
X186853074Y-71941306D01*
X186531250Y-71577047D01*
X186308122Y-71361354D01*
X186205093Y-71327252D01*
X186182000Y-71440706D01*
X186100189Y-71717376D01*
X185983107Y-71891275D01*
X185742552Y-72276726D01*
X185518198Y-72854418D01*
X185326381Y-73562596D01*
X185183439Y-74339500D01*
X185105706Y-75123373D01*
X185101134Y-75225416D01*
X185067846Y-75776363D01*
X185016768Y-76239171D01*
X184956157Y-76549794D01*
X184919313Y-76635690D01*
X184848599Y-76876636D01*
X184884681Y-77317008D01*
X184908266Y-77450306D01*
X184973964Y-78023539D01*
X184909729Y-78410030D01*
X184709468Y-78644804D01*
X184699328Y-78651061D01*
X184566557Y-78830992D01*
X184566254Y-79157917D01*
X184643962Y-79499146D01*
X184775574Y-79734883D01*
X185047077Y-79836320D01*
X185153885Y-79848038D01*
X185420000Y-79929971D01*
X185420000Y-79629000D01*
X185315465Y-79582533D01*
X185335334Y-79544334D01*
X185485367Y-79529204D01*
X185485367Y-77724000D01*
X185328060Y-77618396D01*
X185293000Y-77473986D01*
X185354529Y-77292044D01*
X185483500Y-77297074D01*
X185648959Y-77279735D01*
X185676824Y-77197838D01*
X185752328Y-76981777D01*
X185928000Y-76708000D01*
X186097977Y-76506435D01*
X186165970Y-76498779D01*
X186178702Y-76644500D01*
X186112059Y-76943228D01*
X185944325Y-77278972D01*
X185730774Y-77565675D01*
X185526676Y-77717279D01*
X185485367Y-77724000D01*
X185485367Y-79529204D01*
X185486053Y-79529134D01*
X185504667Y-79544334D01*
X185487234Y-79619835D01*
X185420000Y-79629000D01*
X185420000Y-79929971D01*
X185556259Y-79971924D01*
X185988960Y-80297748D01*
X186078934Y-80385051D01*
X186278451Y-80566765D01*
X186278451Y-75819000D01*
X186189478Y-75727873D01*
X186231954Y-75506904D01*
X186376540Y-75254977D01*
X186469552Y-75043126D01*
X186469552Y-73225622D01*
X186240023Y-73195825D01*
X186097494Y-73125882D01*
X186137954Y-73068717D01*
X186391454Y-72995448D01*
X186467750Y-72976947D01*
X186717041Y-72952050D01*
X186817000Y-73008993D01*
X186710796Y-73155251D01*
X186469552Y-73225622D01*
X186469552Y-75043126D01*
X186508371Y-74954708D01*
X186563000Y-74580732D01*
X186596689Y-74288906D01*
X186695673Y-74235386D01*
X186703682Y-74239956D01*
X186784826Y-74419113D01*
X186784826Y-73972560D01*
X186702503Y-73963779D01*
X186690000Y-73806517D01*
X186781276Y-73565323D01*
X186890888Y-73483088D01*
X187203325Y-73405603D01*
X187316217Y-73467584D01*
X187219937Y-73639838D01*
X187003510Y-73824679D01*
X186784826Y-73972560D01*
X186784826Y-74419113D01*
X186786634Y-74423105D01*
X186776141Y-74748021D01*
X186694448Y-75132091D01*
X186563803Y-75492700D01*
X186406455Y-75747237D01*
X186278451Y-75819000D01*
X186278451Y-80566765D01*
X186403410Y-80680575D01*
X186508572Y-80758910D01*
X186508572Y-77597000D01*
X186434930Y-77511150D01*
X186489940Y-77317636D01*
X186617429Y-77143429D01*
X186836922Y-76976215D01*
X186937380Y-77031219D01*
X186944000Y-77098072D01*
X186862769Y-77285067D01*
X186687044Y-77490074D01*
X186518780Y-77596272D01*
X186508572Y-77597000D01*
X186508572Y-80758910D01*
X186694680Y-80897544D01*
X186826351Y-80965468D01*
X186974364Y-81047115D01*
X186974364Y-77795918D01*
X186954027Y-77671084D01*
X186977377Y-77506363D01*
X187020730Y-77504396D01*
X187051047Y-77674372D01*
X187030756Y-77747813D01*
X186974364Y-77795918D01*
X186974364Y-81047115D01*
X187026492Y-81075871D01*
X187071000Y-81153000D01*
X187175235Y-81276517D01*
X187311342Y-81339166D01*
X187321015Y-81346559D01*
X187321015Y-77216000D01*
X187211859Y-77113075D01*
X187198000Y-77025500D01*
X187225172Y-76856056D01*
X187247913Y-76835000D01*
X187329803Y-76934309D01*
X187370927Y-77025500D01*
X187373567Y-77189033D01*
X187321015Y-77216000D01*
X187321015Y-81346559D01*
X187527536Y-81504413D01*
X187707750Y-81792224D01*
X187861344Y-82066705D01*
X187999846Y-82166428D01*
X188080415Y-82069460D01*
X188087000Y-81986381D01*
X188059795Y-81772853D01*
%TD*%
M02*
