%TF.GenerationSoftware,KiCad,Pcbnew,(5.1.9)-1*%
%TF.CreationDate,2021-06-30T11:02:33-04:00*%
%TF.ProjectId,disco_fish,64697363-6f5f-4666-9973-682e6b696361,rev?*%
%TF.SameCoordinates,Original*%
%TF.FileFunction,Paste,Top*%
%TF.FilePolarity,Positive*%
%FSLAX46Y46*%
G04 Gerber Fmt 4.6, Leading zero omitted, Abs format (unit mm)*
G04 Created by KiCad (PCBNEW (5.1.9)-1) date 2021-06-30 11:02:33*
%MOMM*%
%LPD*%
G01*
G04 APERTURE LIST*
%ADD10C,0.100000*%
%ADD11R,1.000000X1.250000*%
%ADD12R,1.250000X1.000000*%
%ADD13R,1.200000X0.900000*%
%ADD14R,0.700000X0.450000*%
%ADD15R,3.050000X2.750000*%
%ADD16R,2.200000X1.200000*%
%ADD17R,1.200000X1.400000*%
G04 APERTURE END LIST*
D10*
%TO.C,Y1*%
G36*
X156311600Y-95072200D02*
G01*
X156311600Y-96469200D01*
X157505400Y-96469200D01*
X157505400Y-95072200D01*
X156311600Y-95072200D01*
G37*
X156311600Y-95072200D02*
X156311600Y-96469200D01*
X157505400Y-96469200D01*
X157505400Y-95072200D01*
X156311600Y-95072200D01*
G36*
X156311600Y-97332800D02*
G01*
X156311600Y-98729800D01*
X157505400Y-98729800D01*
X157505400Y-97332800D01*
X156311600Y-97332800D01*
G37*
X156311600Y-97332800D02*
X156311600Y-98729800D01*
X157505400Y-98729800D01*
X157505400Y-97332800D01*
X156311600Y-97332800D01*
G36*
X154660600Y-97332800D02*
G01*
X154660600Y-98729800D01*
X155854400Y-98729800D01*
X155854400Y-97332800D01*
X154660600Y-97332800D01*
G37*
X154660600Y-97332800D02*
X154660600Y-98729800D01*
X155854400Y-98729800D01*
X155854400Y-97332800D01*
X154660600Y-97332800D01*
G36*
X154660600Y-95072200D02*
G01*
X154660600Y-96469200D01*
X155854400Y-96469200D01*
X155854400Y-95072200D01*
X154660600Y-95072200D01*
G37*
X154660600Y-95072200D02*
X154660600Y-96469200D01*
X155854400Y-96469200D01*
X155854400Y-95072200D01*
X154660600Y-95072200D01*
%TD*%
D11*
%TO.C,C1*%
X165846000Y-58547000D03*
X163846000Y-58547000D03*
%TD*%
%TO.C,C2*%
X165846000Y-68199000D03*
X163846000Y-68199000D03*
%TD*%
D12*
%TO.C,C3*%
X153289000Y-97901000D03*
X153289000Y-95901000D03*
%TD*%
%TO.C,C4*%
X158877000Y-97901000D03*
X158877000Y-95901000D03*
%TD*%
%TO.C,C5*%
X158242000Y-89678000D03*
X158242000Y-91678000D03*
%TD*%
%TO.C,C6*%
X171450000Y-90440000D03*
X171450000Y-92440000D03*
%TD*%
D13*
%TO.C,D1*%
X171874000Y-106934000D03*
X174074000Y-106934000D03*
%TD*%
D14*
%TO.C,Q1*%
X184166000Y-110348000D03*
X184166000Y-111648000D03*
X186166000Y-110998000D03*
%TD*%
%TO.C,Q2*%
X186166000Y-67056000D03*
X184166000Y-67706000D03*
X184166000Y-66406000D03*
%TD*%
%TO.C,Q3*%
X145780000Y-101488000D03*
X145780000Y-100188000D03*
X143780000Y-100838000D03*
%TD*%
%TO.C,Q4*%
X143780000Y-57150000D03*
X145780000Y-56500000D03*
X145780000Y-57800000D03*
%TD*%
%TO.C,Q5*%
X186166000Y-100838000D03*
X184166000Y-101488000D03*
X184166000Y-100188000D03*
%TD*%
%TO.C,Q6*%
X184166000Y-56500000D03*
X184166000Y-57800000D03*
X186166000Y-57150000D03*
%TD*%
%TO.C,Q7*%
X143780000Y-110998000D03*
X145780000Y-110348000D03*
X145780000Y-111648000D03*
%TD*%
%TO.C,Q8*%
X145780000Y-67960000D03*
X145780000Y-66660000D03*
X143780000Y-67310000D03*
%TD*%
%TO.C,Q9*%
X186166000Y-132842000D03*
X184166000Y-133492000D03*
X184166000Y-132192000D03*
%TD*%
%TO.C,Q10*%
X184166000Y-88504000D03*
X184166000Y-89804000D03*
X186166000Y-89154000D03*
%TD*%
%TO.C,Q11*%
X143780000Y-122682000D03*
X145780000Y-122032000D03*
X145780000Y-123332000D03*
%TD*%
%TO.C,Q12*%
X145780000Y-79644000D03*
X145780000Y-78344000D03*
X143780000Y-78994000D03*
%TD*%
%TO.C,Q13*%
X186166000Y-122682000D03*
X184166000Y-123332000D03*
X184166000Y-122032000D03*
%TD*%
%TO.C,Q14*%
X184166000Y-78344000D03*
X184166000Y-79644000D03*
X186166000Y-78994000D03*
%TD*%
%TO.C,Q15*%
X143780000Y-132842000D03*
X145780000Y-132192000D03*
X145780000Y-133492000D03*
%TD*%
%TO.C,Q16*%
X145780000Y-89550000D03*
X145780000Y-88250000D03*
X143780000Y-88900000D03*
%TD*%
%TO.C,R1*%
G36*
G01*
X181915750Y-111369500D02*
X182828250Y-111369500D01*
G75*
G02*
X183072000Y-111613250I0J-243750D01*
G01*
X183072000Y-112100750D01*
G75*
G02*
X182828250Y-112344500I-243750J0D01*
G01*
X181915750Y-112344500D01*
G75*
G02*
X181672000Y-112100750I0J243750D01*
G01*
X181672000Y-111613250D01*
G75*
G02*
X181915750Y-111369500I243750J0D01*
G01*
G37*
G36*
G01*
X181915750Y-109494500D02*
X182828250Y-109494500D01*
G75*
G02*
X183072000Y-109738250I0J-243750D01*
G01*
X183072000Y-110225750D01*
G75*
G02*
X182828250Y-110469500I-243750J0D01*
G01*
X181915750Y-110469500D01*
G75*
G02*
X181672000Y-110225750I0J243750D01*
G01*
X181672000Y-109738250D01*
G75*
G02*
X181915750Y-109494500I243750J0D01*
G01*
G37*
%TD*%
%TO.C,R2*%
G36*
G01*
X181788750Y-65504000D02*
X182701250Y-65504000D01*
G75*
G02*
X182945000Y-65747750I0J-243750D01*
G01*
X182945000Y-66235250D01*
G75*
G02*
X182701250Y-66479000I-243750J0D01*
G01*
X181788750Y-66479000D01*
G75*
G02*
X181545000Y-66235250I0J243750D01*
G01*
X181545000Y-65747750D01*
G75*
G02*
X181788750Y-65504000I243750J0D01*
G01*
G37*
G36*
G01*
X181788750Y-67379000D02*
X182701250Y-67379000D01*
G75*
G02*
X182945000Y-67622750I0J-243750D01*
G01*
X182945000Y-68110250D01*
G75*
G02*
X182701250Y-68354000I-243750J0D01*
G01*
X181788750Y-68354000D01*
G75*
G02*
X181545000Y-68110250I0J243750D01*
G01*
X181545000Y-67622750D01*
G75*
G02*
X181788750Y-67379000I243750J0D01*
G01*
G37*
%TD*%
%TO.C,R3*%
G36*
G01*
X148073251Y-100388000D02*
X147160751Y-100388000D01*
G75*
G02*
X146917001Y-100144250I0J243750D01*
G01*
X146917001Y-99656750D01*
G75*
G02*
X147160751Y-99413000I243750J0D01*
G01*
X148073251Y-99413000D01*
G75*
G02*
X148317001Y-99656750I0J-243750D01*
G01*
X148317001Y-100144250D01*
G75*
G02*
X148073251Y-100388000I-243750J0D01*
G01*
G37*
G36*
G01*
X148073251Y-102263000D02*
X147160751Y-102263000D01*
G75*
G02*
X146917001Y-102019250I0J243750D01*
G01*
X146917001Y-101531750D01*
G75*
G02*
X147160751Y-101288000I243750J0D01*
G01*
X148073251Y-101288000D01*
G75*
G02*
X148317001Y-101531750I0J-243750D01*
G01*
X148317001Y-102019250D01*
G75*
G02*
X148073251Y-102263000I-243750J0D01*
G01*
G37*
%TD*%
%TO.C,R4*%
G36*
G01*
X148030250Y-56700000D02*
X147117750Y-56700000D01*
G75*
G02*
X146874000Y-56456250I0J243750D01*
G01*
X146874000Y-55968750D01*
G75*
G02*
X147117750Y-55725000I243750J0D01*
G01*
X148030250Y-55725000D01*
G75*
G02*
X148274000Y-55968750I0J-243750D01*
G01*
X148274000Y-56456250D01*
G75*
G02*
X148030250Y-56700000I-243750J0D01*
G01*
G37*
G36*
G01*
X148030250Y-58575000D02*
X147117750Y-58575000D01*
G75*
G02*
X146874000Y-58331250I0J243750D01*
G01*
X146874000Y-57843750D01*
G75*
G02*
X147117750Y-57600000I243750J0D01*
G01*
X148030250Y-57600000D01*
G75*
G02*
X148274000Y-57843750I0J-243750D01*
G01*
X148274000Y-58331250D01*
G75*
G02*
X148030250Y-58575000I-243750J0D01*
G01*
G37*
%TD*%
%TO.C,R5*%
G36*
G01*
X181915750Y-101209500D02*
X182828250Y-101209500D01*
G75*
G02*
X183072000Y-101453250I0J-243750D01*
G01*
X183072000Y-101940750D01*
G75*
G02*
X182828250Y-102184500I-243750J0D01*
G01*
X181915750Y-102184500D01*
G75*
G02*
X181672000Y-101940750I0J243750D01*
G01*
X181672000Y-101453250D01*
G75*
G02*
X181915750Y-101209500I243750J0D01*
G01*
G37*
G36*
G01*
X181915750Y-99334500D02*
X182828250Y-99334500D01*
G75*
G02*
X183072000Y-99578250I0J-243750D01*
G01*
X183072000Y-100065750D01*
G75*
G02*
X182828250Y-100309500I-243750J0D01*
G01*
X181915750Y-100309500D01*
G75*
G02*
X181672000Y-100065750I0J243750D01*
G01*
X181672000Y-99578250D01*
G75*
G02*
X181915750Y-99334500I243750J0D01*
G01*
G37*
%TD*%
%TO.C,R6*%
G36*
G01*
X181915750Y-55725000D02*
X182828250Y-55725000D01*
G75*
G02*
X183072000Y-55968750I0J-243750D01*
G01*
X183072000Y-56456250D01*
G75*
G02*
X182828250Y-56700000I-243750J0D01*
G01*
X181915750Y-56700000D01*
G75*
G02*
X181672000Y-56456250I0J243750D01*
G01*
X181672000Y-55968750D01*
G75*
G02*
X181915750Y-55725000I243750J0D01*
G01*
G37*
G36*
G01*
X181915750Y-57600000D02*
X182828250Y-57600000D01*
G75*
G02*
X183072000Y-57843750I0J-243750D01*
G01*
X183072000Y-58331250D01*
G75*
G02*
X182828250Y-58575000I-243750J0D01*
G01*
X181915750Y-58575000D01*
G75*
G02*
X181672000Y-58331250I0J243750D01*
G01*
X181672000Y-57843750D01*
G75*
G02*
X181915750Y-57600000I243750J0D01*
G01*
G37*
%TD*%
%TO.C,R7*%
G36*
G01*
X148030250Y-110626500D02*
X147117750Y-110626500D01*
G75*
G02*
X146874000Y-110382750I0J243750D01*
G01*
X146874000Y-109895250D01*
G75*
G02*
X147117750Y-109651500I243750J0D01*
G01*
X148030250Y-109651500D01*
G75*
G02*
X148274000Y-109895250I0J-243750D01*
G01*
X148274000Y-110382750D01*
G75*
G02*
X148030250Y-110626500I-243750J0D01*
G01*
G37*
G36*
G01*
X148030250Y-112501500D02*
X147117750Y-112501500D01*
G75*
G02*
X146874000Y-112257750I0J243750D01*
G01*
X146874000Y-111770250D01*
G75*
G02*
X147117750Y-111526500I243750J0D01*
G01*
X148030250Y-111526500D01*
G75*
G02*
X148274000Y-111770250I0J-243750D01*
G01*
X148274000Y-112257750D01*
G75*
G02*
X148030250Y-112501500I-243750J0D01*
G01*
G37*
%TD*%
%TO.C,R8*%
G36*
G01*
X148030250Y-66860000D02*
X147117750Y-66860000D01*
G75*
G02*
X146874000Y-66616250I0J243750D01*
G01*
X146874000Y-66128750D01*
G75*
G02*
X147117750Y-65885000I243750J0D01*
G01*
X148030250Y-65885000D01*
G75*
G02*
X148274000Y-66128750I0J-243750D01*
G01*
X148274000Y-66616250D01*
G75*
G02*
X148030250Y-66860000I-243750J0D01*
G01*
G37*
G36*
G01*
X148030250Y-68735000D02*
X147117750Y-68735000D01*
G75*
G02*
X146874000Y-68491250I0J243750D01*
G01*
X146874000Y-68003750D01*
G75*
G02*
X147117750Y-67760000I243750J0D01*
G01*
X148030250Y-67760000D01*
G75*
G02*
X148274000Y-68003750I0J-243750D01*
G01*
X148274000Y-68491250D01*
G75*
G02*
X148030250Y-68735000I-243750J0D01*
G01*
G37*
%TD*%
%TO.C,R9*%
G36*
G01*
X174066500Y-104445750D02*
X174066500Y-105358250D01*
G75*
G02*
X173822750Y-105602000I-243750J0D01*
G01*
X173335250Y-105602000D01*
G75*
G02*
X173091500Y-105358250I0J243750D01*
G01*
X173091500Y-104445750D01*
G75*
G02*
X173335250Y-104202000I243750J0D01*
G01*
X173822750Y-104202000D01*
G75*
G02*
X174066500Y-104445750I0J-243750D01*
G01*
G37*
G36*
G01*
X172191500Y-104445750D02*
X172191500Y-105358250D01*
G75*
G02*
X171947750Y-105602000I-243750J0D01*
G01*
X171460250Y-105602000D01*
G75*
G02*
X171216500Y-105358250I0J243750D01*
G01*
X171216500Y-104445750D01*
G75*
G02*
X171460250Y-104202000I243750J0D01*
G01*
X171947750Y-104202000D01*
G75*
G02*
X172191500Y-104445750I0J-243750D01*
G01*
G37*
%TD*%
%TO.C,R10*%
G36*
G01*
X181915750Y-133213500D02*
X182828250Y-133213500D01*
G75*
G02*
X183072000Y-133457250I0J-243750D01*
G01*
X183072000Y-133944750D01*
G75*
G02*
X182828250Y-134188500I-243750J0D01*
G01*
X181915750Y-134188500D01*
G75*
G02*
X181672000Y-133944750I0J243750D01*
G01*
X181672000Y-133457250D01*
G75*
G02*
X181915750Y-133213500I243750J0D01*
G01*
G37*
G36*
G01*
X181915750Y-131338500D02*
X182828250Y-131338500D01*
G75*
G02*
X183072000Y-131582250I0J-243750D01*
G01*
X183072000Y-132069750D01*
G75*
G02*
X182828250Y-132313500I-243750J0D01*
G01*
X181915750Y-132313500D01*
G75*
G02*
X181672000Y-132069750I0J243750D01*
G01*
X181672000Y-131582250D01*
G75*
G02*
X181915750Y-131338500I243750J0D01*
G01*
G37*
%TD*%
%TO.C,R11*%
G36*
G01*
X181915750Y-87729000D02*
X182828250Y-87729000D01*
G75*
G02*
X183072000Y-87972750I0J-243750D01*
G01*
X183072000Y-88460250D01*
G75*
G02*
X182828250Y-88704000I-243750J0D01*
G01*
X181915750Y-88704000D01*
G75*
G02*
X181672000Y-88460250I0J243750D01*
G01*
X181672000Y-87972750D01*
G75*
G02*
X181915750Y-87729000I243750J0D01*
G01*
G37*
G36*
G01*
X181915750Y-89604000D02*
X182828250Y-89604000D01*
G75*
G02*
X183072000Y-89847750I0J-243750D01*
G01*
X183072000Y-90335250D01*
G75*
G02*
X182828250Y-90579000I-243750J0D01*
G01*
X181915750Y-90579000D01*
G75*
G02*
X181672000Y-90335250I0J243750D01*
G01*
X181672000Y-89847750D01*
G75*
G02*
X181915750Y-89604000I243750J0D01*
G01*
G37*
%TD*%
%TO.C,R12*%
G36*
G01*
X148030250Y-124107000D02*
X147117750Y-124107000D01*
G75*
G02*
X146874000Y-123863250I0J243750D01*
G01*
X146874000Y-123375750D01*
G75*
G02*
X147117750Y-123132000I243750J0D01*
G01*
X148030250Y-123132000D01*
G75*
G02*
X148274000Y-123375750I0J-243750D01*
G01*
X148274000Y-123863250D01*
G75*
G02*
X148030250Y-124107000I-243750J0D01*
G01*
G37*
G36*
G01*
X148030250Y-122232000D02*
X147117750Y-122232000D01*
G75*
G02*
X146874000Y-121988250I0J243750D01*
G01*
X146874000Y-121500750D01*
G75*
G02*
X147117750Y-121257000I243750J0D01*
G01*
X148030250Y-121257000D01*
G75*
G02*
X148274000Y-121500750I0J-243750D01*
G01*
X148274000Y-121988250D01*
G75*
G02*
X148030250Y-122232000I-243750J0D01*
G01*
G37*
%TD*%
%TO.C,R13*%
G36*
G01*
X148030250Y-78544000D02*
X147117750Y-78544000D01*
G75*
G02*
X146874000Y-78300250I0J243750D01*
G01*
X146874000Y-77812750D01*
G75*
G02*
X147117750Y-77569000I243750J0D01*
G01*
X148030250Y-77569000D01*
G75*
G02*
X148274000Y-77812750I0J-243750D01*
G01*
X148274000Y-78300250D01*
G75*
G02*
X148030250Y-78544000I-243750J0D01*
G01*
G37*
G36*
G01*
X148030250Y-80419000D02*
X147117750Y-80419000D01*
G75*
G02*
X146874000Y-80175250I0J243750D01*
G01*
X146874000Y-79687750D01*
G75*
G02*
X147117750Y-79444000I243750J0D01*
G01*
X148030250Y-79444000D01*
G75*
G02*
X148274000Y-79687750I0J-243750D01*
G01*
X148274000Y-80175250D01*
G75*
G02*
X148030250Y-80419000I-243750J0D01*
G01*
G37*
%TD*%
%TO.C,R14*%
G36*
G01*
X181915750Y-123132000D02*
X182828250Y-123132000D01*
G75*
G02*
X183072000Y-123375750I0J-243750D01*
G01*
X183072000Y-123863250D01*
G75*
G02*
X182828250Y-124107000I-243750J0D01*
G01*
X181915750Y-124107000D01*
G75*
G02*
X181672000Y-123863250I0J243750D01*
G01*
X181672000Y-123375750D01*
G75*
G02*
X181915750Y-123132000I243750J0D01*
G01*
G37*
G36*
G01*
X181915750Y-121257000D02*
X182828250Y-121257000D01*
G75*
G02*
X183072000Y-121500750I0J-243750D01*
G01*
X183072000Y-121988250D01*
G75*
G02*
X182828250Y-122232000I-243750J0D01*
G01*
X181915750Y-122232000D01*
G75*
G02*
X181672000Y-121988250I0J243750D01*
G01*
X181672000Y-121500750D01*
G75*
G02*
X181915750Y-121257000I243750J0D01*
G01*
G37*
%TD*%
%TO.C,R15*%
G36*
G01*
X181915750Y-77569000D02*
X182828250Y-77569000D01*
G75*
G02*
X183072000Y-77812750I0J-243750D01*
G01*
X183072000Y-78300250D01*
G75*
G02*
X182828250Y-78544000I-243750J0D01*
G01*
X181915750Y-78544000D01*
G75*
G02*
X181672000Y-78300250I0J243750D01*
G01*
X181672000Y-77812750D01*
G75*
G02*
X181915750Y-77569000I243750J0D01*
G01*
G37*
G36*
G01*
X181915750Y-79444000D02*
X182828250Y-79444000D01*
G75*
G02*
X183072000Y-79687750I0J-243750D01*
G01*
X183072000Y-80175250D01*
G75*
G02*
X182828250Y-80419000I-243750J0D01*
G01*
X181915750Y-80419000D01*
G75*
G02*
X181672000Y-80175250I0J243750D01*
G01*
X181672000Y-79687750D01*
G75*
G02*
X181915750Y-79444000I243750J0D01*
G01*
G37*
%TD*%
%TO.C,R16*%
G36*
G01*
X148030250Y-134267000D02*
X147117750Y-134267000D01*
G75*
G02*
X146874000Y-134023250I0J243750D01*
G01*
X146874000Y-133535750D01*
G75*
G02*
X147117750Y-133292000I243750J0D01*
G01*
X148030250Y-133292000D01*
G75*
G02*
X148274000Y-133535750I0J-243750D01*
G01*
X148274000Y-134023250D01*
G75*
G02*
X148030250Y-134267000I-243750J0D01*
G01*
G37*
G36*
G01*
X148030250Y-132392000D02*
X147117750Y-132392000D01*
G75*
G02*
X146874000Y-132148250I0J243750D01*
G01*
X146874000Y-131660750D01*
G75*
G02*
X147117750Y-131417000I243750J0D01*
G01*
X148030250Y-131417000D01*
G75*
G02*
X148274000Y-131660750I0J-243750D01*
G01*
X148274000Y-132148250D01*
G75*
G02*
X148030250Y-132392000I-243750J0D01*
G01*
G37*
%TD*%
%TO.C,R17*%
G36*
G01*
X148030250Y-90325000D02*
X147117750Y-90325000D01*
G75*
G02*
X146874000Y-90081250I0J243750D01*
G01*
X146874000Y-89593750D01*
G75*
G02*
X147117750Y-89350000I243750J0D01*
G01*
X148030250Y-89350000D01*
G75*
G02*
X148274000Y-89593750I0J-243750D01*
G01*
X148274000Y-90081250D01*
G75*
G02*
X148030250Y-90325000I-243750J0D01*
G01*
G37*
G36*
G01*
X148030250Y-88450000D02*
X147117750Y-88450000D01*
G75*
G02*
X146874000Y-88206250I0J243750D01*
G01*
X146874000Y-87718750D01*
G75*
G02*
X147117750Y-87475000I243750J0D01*
G01*
X148030250Y-87475000D01*
G75*
G02*
X148274000Y-87718750I0J-243750D01*
G01*
X148274000Y-88206250D01*
G75*
G02*
X148030250Y-88450000I-243750J0D01*
G01*
G37*
%TD*%
%TO.C,R18*%
G36*
G01*
X163421000Y-129488250D02*
X163421000Y-128575750D01*
G75*
G02*
X163664750Y-128332000I243750J0D01*
G01*
X164152250Y-128332000D01*
G75*
G02*
X164396000Y-128575750I0J-243750D01*
G01*
X164396000Y-129488250D01*
G75*
G02*
X164152250Y-129732000I-243750J0D01*
G01*
X163664750Y-129732000D01*
G75*
G02*
X163421000Y-129488250I0J243750D01*
G01*
G37*
G36*
G01*
X165296000Y-129488250D02*
X165296000Y-128575750D01*
G75*
G02*
X165539750Y-128332000I243750J0D01*
G01*
X166027250Y-128332000D01*
G75*
G02*
X166271000Y-128575750I0J-243750D01*
G01*
X166271000Y-129488250D01*
G75*
G02*
X166027250Y-129732000I-243750J0D01*
G01*
X165539750Y-129732000D01*
G75*
G02*
X165296000Y-129488250I0J243750D01*
G01*
G37*
%TD*%
D15*
%TO.C,U1*%
X167132000Y-64897000D03*
X170482000Y-61847000D03*
X167132000Y-61847000D03*
X170482000Y-64897000D03*
D16*
X162507000Y-65652000D03*
X162507000Y-61092000D03*
%TD*%
D17*
%TO.C,Y1*%
X156933000Y-95801000D03*
X156933000Y-98001000D03*
X155233000Y-98001000D03*
X155233000Y-95801000D03*
%TD*%
M02*
