M48
; DRILL file {KiCad (5.1.9)-1} date 06/30/21 11:02:27
; FORMAT={-:-/ absolute / inch / decimal}
; #@! TF.CreationDate,2021-06-30T11:02:27-04:00
; #@! TF.GenerationSoftware,Kicad,Pcbnew,(5.1.9)-1
; #@! TF.FileFunction,Plated,1,2,PTH
FMAT,2
INCH
T1C0.0160
T2C0.0315
T3C0.0450
T4C0.0472
%
G90
G05
T1
X5.74Y-2.18
X5.74Y-2.58
X5.74Y-3.04
X5.74Y-3.43
X5.74Y-3.9
X5.74Y-4.3
X5.74Y-4.76
X5.74Y-5.155
X5.81Y-2.165
X5.81Y-2.565
X5.81Y-3.025
X5.81Y-3.415
X5.81Y-3.885
X5.81Y-4.29
X5.81Y-4.745
X5.81Y-5.15
X6.055Y-3.9
X6.235Y-3.735
X6.44Y-4.79
X6.45Y-3.595
X6.45Y-3.685
X6.51Y-3.055
X6.581Y-4.09
X6.601Y-4.365
X6.645Y-2.34
X6.645Y-2.645
X6.795Y-2.35
X6.8Y-2.645
X6.81Y-2.495
X6.855Y-4.255
X7.175Y-2.72
X7.18Y-2.335
X7.18Y-3.195
X7.18Y-3.595
X7.18Y-4.05
X7.18Y-4.45
X7.18Y-4.915
X7.18Y-5.31
X7.25Y-2.32
X7.25Y-2.71
X7.25Y-3.18
X7.25Y-3.58
X7.25Y-4.04
X7.25Y-4.44
X7.25Y-4.9
X7.25Y-5.3
T2
X6.345Y-2.94
X6.345Y-3.04
X6.345Y-3.14
X6.345Y-3.24
X6.345Y-3.34
X6.345Y-3.44
X6.345Y-3.54
X6.345Y-3.64
X6.345Y-3.74
X6.345Y-3.84
X6.345Y-3.94
X6.345Y-4.04
X6.345Y-4.14
X6.345Y-4.24
X6.645Y-2.94
X6.645Y-3.04
X6.645Y-3.14
X6.645Y-3.24
X6.645Y-3.34
X6.645Y-3.44
X6.645Y-3.54
X6.645Y-3.64
X6.645Y-3.74
X6.645Y-3.84
X6.645Y-3.94
X6.645Y-4.04
X6.645Y-4.14
X6.645Y-4.24
T3
X6.39Y-4.86
X6.39Y-4.96
X6.49Y-4.86
X6.49Y-4.96
X6.59Y-4.86
X6.59Y-4.96
T4
X5.4525Y-2.055
X5.4525Y-2.2519
X5.4525Y-2.4487
X5.4525Y-2.6456
X5.4525Y-2.915
X5.4525Y-3.1119
X5.4525Y-3.3087
X5.4525Y-3.5056
X5.4525Y-3.775
X5.4525Y-3.9719
X5.4525Y-4.1687
X5.4525Y-4.3656
X5.4525Y-4.635
X5.4525Y-4.8319
X5.4525Y-5.0287
X5.4525Y-5.2256
X6.2013Y-1.81
X6.3981Y-1.81
X6.595Y-1.81
X6.7919Y-1.81
X7.54Y-2.0554
X7.54Y-2.2523
X7.54Y-2.4491
X7.54Y-2.646
X7.54Y-2.9154
X7.54Y-3.1123
X7.54Y-3.3091
X7.54Y-3.506
X7.54Y-3.7754
X7.54Y-3.9723
X7.54Y-4.1691
X7.54Y-4.366
X7.54Y-4.6354
X7.54Y-4.8323
X7.54Y-5.0291
X7.54Y-5.226
T0
M30
